<svg width="297" height="65" viewBox="0 0 297 65" fill="none" xmlns="http://www.w3.org/2000/svg">
<g clip-path="url(#clip0_273_2728)">
<g clip-path="url(#clip1_273_2728)">
<path d="M64.3966 37.6258C63.2696 35.2503 62.161 32.7864 61.0672 30.2341C59.9734 27.6818 58.9311 25.1552 57.9477 22.6545C56.9607 20.1537 56.0583 17.7635 55.2297 15.4763C54.4047 13.1892 53.6902 11.1525 53.0898 9.35889H60.1059C60.6363 10.9941 61.2219 12.7583 61.8701 14.644C62.5183 16.5297 63.1776 18.4117 63.8515 20.2863C64.5218 22.161 65.1664 23.9546 65.7814 25.6745C66.3965 27.3908 66.9858 28.875 67.5493 30.1236C68.0796 28.8824 68.6615 27.4055 69.2913 25.6893C69.9211 23.973 70.573 22.1757 71.2433 20.3047C71.9136 18.4301 72.5729 16.5518 73.2211 14.6624C73.8693 12.7767 74.4585 11.0089 74.9889 9.36257H81.7619C81.1284 11.1672 80.3992 13.2076 79.5742 15.4874C78.7492 17.7671 77.8506 20.1611 76.8709 22.6618C75.8912 25.1626 74.86 27.6928 73.7735 30.2488C72.687 32.8048 71.5821 35.265 70.4625 37.6295H64.3929L64.3966 37.6258Z" fill="#003366"/>
<path d="M85.3972 37.6261V9.35547H104.486V14.6995H91.7578V20.2461H103.057V25.4685H91.7578V32.2821H105.422V37.6261H85.3936H85.3972Z" fill="#003366"/>
<path d="M118.397 9.03125C122.64 9.03125 125.888 9.78626 128.146 11.2963C130.403 12.8063 131.53 15.1524 131.53 18.3345C131.53 20.3196 131.074 21.9328 130.164 23.1666C129.251 24.404 127.939 25.3764 126.227 26.0835C126.798 26.7906 127.394 27.6009 128.02 28.5106C128.647 29.4203 129.265 30.3742 129.877 31.3649C130.488 32.3593 131.081 33.3905 131.652 34.466C132.223 35.5414 132.753 36.5947 133.243 37.626H126.131C125.612 36.7015 125.085 35.7624 124.555 34.8122C124.021 33.862 123.476 32.9375 122.916 32.0389C122.356 31.1402 121.804 30.2931 121.258 29.4902C120.713 28.6874 120.165 27.9618 119.62 27.3062H116.478V37.626H110.114V9.76416C111.502 9.49162 112.935 9.30379 114.415 9.1933C115.896 9.0865 117.222 9.03125 118.393 9.03125H118.397ZM118.761 14.4563C118.297 14.4563 117.885 14.471 117.517 14.4968C117.148 14.5226 116.802 14.5521 116.478 14.5778V22.2458H118.272C120.666 22.2458 122.378 21.9475 123.413 21.3472C124.448 20.7505 124.964 19.7303 124.964 18.2866C124.964 16.8429 124.441 15.9148 123.395 15.3292C122.349 14.7436 120.805 14.4526 118.765 14.4526L118.761 14.4563Z" fill="#003366"/>
<path d="M137.32 9.35547H143.684V37.6224H137.32V9.35547Z" fill="#003366"/>
<path d="M169.211 12.3753C169.535 13.4912 169.896 14.7471 170.29 16.1503C170.684 17.5499 171.104 19.0009 171.553 20.4926C171.999 21.9879 172.455 23.4831 172.916 24.9784C173.376 26.4737 173.825 27.8622 174.26 29.1402C174.614 27.7517 174.978 26.2454 175.347 24.6138C175.715 22.9823 176.065 21.2955 176.393 19.5571C176.72 17.8187 177.041 16.084 177.354 14.3567C177.667 12.6294 177.961 10.9647 178.234 9.35889H184.845C183.887 14.0915 182.786 18.8905 181.541 23.7594C180.296 28.6283 178.949 33.2504 177.501 37.6295H171.682C170.732 35.0183 169.807 32.2781 168.912 29.4091C168.017 26.54 167.133 23.6636 166.264 20.7835C165.391 23.6673 164.522 26.5437 163.649 29.4091C162.777 32.2781 161.867 35.0183 160.913 37.6295H155.097C153.65 33.2504 152.306 28.6283 151.061 23.7594C149.816 18.8905 148.719 14.0915 147.765 9.35889H154.659C154.932 10.9647 155.234 12.6294 155.562 14.3567C155.889 16.084 156.232 17.8187 156.585 19.5571C156.939 21.2991 157.304 22.9823 157.672 24.6138C158.04 26.2454 158.416 27.7554 158.799 29.1402C159.289 27.807 159.768 26.3927 160.228 24.8974C160.692 23.4021 161.141 21.9068 161.576 20.4115C162.01 18.9162 162.412 17.4762 162.78 16.0877C163.148 14.6992 163.484 13.4654 163.782 12.3753H169.207H169.211Z" fill="#DD7200"/>
<path d="M215.436 23.4682C215.436 25.8879 215.075 28.0167 214.357 29.8508C213.635 31.685 212.652 33.2245 211.399 34.4619C210.147 35.6994 208.659 36.6312 206.932 37.2573C205.205 37.8834 203.348 38.1965 201.363 38.1965C199.378 38.1965 197.61 37.8834 195.898 37.2573C194.185 36.6312 192.69 35.6994 191.412 34.4619C190.134 33.2245 189.128 31.6887 188.392 29.8508C187.659 28.0167 187.291 25.8879 187.291 23.4682C187.291 21.0485 187.67 18.9197 188.432 17.0856C189.195 15.2515 190.219 13.7083 191.511 12.4561C192.804 11.2039 194.299 10.2684 195.997 9.64229C197.695 9.01618 199.485 8.70312 201.36 8.70312C203.234 8.70312 205.113 9.01618 206.825 9.64229C208.538 10.2684 210.033 11.2076 211.311 12.4561C212.589 13.7083 213.594 15.2515 214.331 17.0856C215.064 18.9197 215.432 21.0485 215.432 23.4682H215.436ZM193.857 23.4682C193.857 24.8567 194.027 26.1052 194.366 27.2212C194.704 28.3371 195.194 29.2947 195.835 30.0976C196.472 30.9005 197.257 31.5192 198.181 31.9538C199.106 32.3884 200.166 32.6057 201.363 32.6057C202.56 32.6057 203.588 32.3884 204.523 31.9538C205.462 31.5192 206.251 30.9005 206.888 30.0976C207.525 29.2947 208.015 28.3371 208.357 27.2212C208.696 26.1052 208.865 24.8567 208.865 23.4682C208.865 22.0797 208.696 20.8238 208.357 19.6932C208.018 18.5662 207.529 17.6012 206.888 16.7983C206.247 15.9954 205.459 15.3767 204.523 14.9421C203.584 14.5075 202.531 14.2902 201.363 14.2902C200.196 14.2902 199.106 14.5149 198.181 14.9642C197.257 15.4135 196.476 16.0396 195.835 16.8388C195.194 17.6417 194.704 18.6067 194.366 19.7337C194.027 20.8607 193.857 22.1055 193.857 23.4645V23.4682Z" fill="#DD7200"/>
<path d="M229.019 9.03076C233.262 9.03076 236.51 9.78577 238.768 11.2958C241.025 12.8058 242.152 15.1519 242.152 18.334C242.152 20.3191 241.696 21.9323 240.786 23.1661C239.876 24.4036 238.562 25.3759 236.849 26.083C237.42 26.7901 238.016 27.6004 238.643 28.5101C239.269 29.4198 239.887 30.3737 240.499 31.3644C241.11 32.3588 241.703 33.39 242.274 34.4655C242.845 35.5409 243.375 36.5942 243.865 37.6255H236.753C236.234 36.7011 235.707 35.7619 235.177 34.8117C234.643 33.8615 234.098 32.937 233.538 32.0384C232.978 31.1397 232.426 30.2927 231.881 29.4898C231.335 28.6869 230.787 27.9613 230.242 27.3057H227.1V37.6255H220.736V9.76368C222.124 9.49114 223.557 9.3033 225.038 9.19281C226.518 9.08601 227.844 9.03076 229.015 9.03076H229.019ZM229.387 14.4558C228.923 14.4558 228.511 14.4705 228.142 14.4963C227.774 14.5221 227.428 14.5516 227.104 14.5773V22.2453H228.897C231.291 22.2453 233.004 21.947 234.039 21.3467C235.07 20.75 235.589 19.7298 235.589 18.2861C235.589 16.8424 235.066 15.9143 234.02 15.3287C232.974 14.7431 231.431 14.4521 229.391 14.4521L229.387 14.4558Z" fill="#DD7200"/>
<path d="M266.832 32.16V37.6256H247.946V9.35498H254.31V32.1564H266.832V32.16Z" fill="#DD7200"/>
<path d="M295.67 23.4683C295.67 25.9175 295.291 28.05 294.528 29.8731C293.766 31.6961 292.687 33.2062 291.287 34.3995C289.888 35.5964 288.179 36.4951 286.168 37.0917C284.157 37.6884 281.899 37.9904 279.398 37.9904C278.257 37.9904 276.923 37.9425 275.402 37.8467C273.878 37.751 272.382 37.5558 270.917 37.2538V9.72343C272.386 9.45089 273.914 9.26674 275.505 9.17098C277.097 9.07522 278.463 9.02734 279.605 9.02734C282.024 9.02734 284.219 9.29988 286.194 9.84128C288.164 10.3864 289.858 11.2408 291.272 12.412C292.687 13.5832 293.773 15.0785 294.536 16.8979C295.298 18.721 295.677 20.9087 295.677 23.4647L295.67 23.4683ZM277.273 32.4438C277.572 32.4696 277.918 32.4917 278.312 32.5064C278.706 32.5211 279.174 32.5248 279.719 32.5248C282.901 32.5248 285.258 31.7219 286.798 30.1198C288.333 28.514 289.103 26.3006 289.103 23.472C289.103 20.6435 288.37 18.2643 286.901 16.7432C285.431 15.2221 283.107 14.4598 279.925 14.4598C279.49 14.4598 279.041 14.4671 278.581 14.4818C278.117 14.4966 277.682 14.5297 277.277 14.585V32.4511L277.273 32.4438Z" fill="#DD7200"/>
<path d="M59.3066 51.2273C59.185 50.9032 59.0708 50.5718 58.9604 50.2292C58.8499 49.8867 58.7431 49.5479 58.6363 49.2127C58.5331 48.8776 58.4337 48.5461 58.3379 48.2183C58.2422 47.8942 58.1538 47.5885 58.0728 47.3013H58.7762C58.9014 47.8464 59.0487 48.4062 59.2108 48.9881C59.3765 49.5663 59.557 50.1077 59.7596 50.6086C59.9732 50.3692 60.2015 50.1077 60.4446 49.8315C60.684 49.5516 60.9234 49.268 61.1554 48.977C61.3911 48.6861 61.6121 48.3988 61.822 48.1115C62.032 47.8279 62.2161 47.5591 62.3818 47.305H63.1516C62.7133 47.8869 62.2198 48.5167 61.671 49.1943C61.1223 49.872 60.5477 50.5497 59.9511 51.2273L59.325 53.8865H58.6804L59.3066 51.2273Z" fill="#353434"/>
<path d="M67.3541 50.5164C67.3541 51.1131 67.2694 51.6287 67.1036 52.0633C66.9342 52.5015 66.7206 52.8625 66.4591 53.1498C66.1976 53.437 65.9067 53.6506 65.5862 53.7906C65.2658 53.9305 64.9528 54.0005 64.6397 54.0005C64.4187 54.0005 64.2088 53.9674 64.0099 53.8974C63.811 53.8274 63.6343 53.7243 63.4833 53.5843C63.3323 53.4444 63.2107 53.2713 63.1223 53.065C63.0339 52.8588 62.9897 52.6194 62.9897 52.3469C62.9897 51.7502 63.0745 51.2346 63.2402 50.8C63.4096 50.3617 63.6232 50.0008 63.8847 49.7172C64.1462 49.4336 64.4372 49.22 64.7576 49.08C65.078 48.9401 65.3911 48.8701 65.7041 48.8701C65.9251 48.8701 66.135 48.9033 66.3339 48.9732C66.5328 49.0432 66.7096 49.1463 66.8606 49.2863C67.0116 49.4262 67.1331 49.5993 67.2215 49.8056C67.3099 50.0118 67.3541 50.2476 67.3541 50.5127V50.5164ZM63.6122 52.31C63.6122 52.682 63.7153 52.9656 63.9252 53.1534C64.1352 53.3413 64.3856 53.437 64.6765 53.437C64.9049 53.437 65.1369 53.3781 65.38 53.2602C65.6194 53.1424 65.8404 52.9656 66.0393 52.7299C66.2381 52.4942 66.4039 52.1922 66.5328 51.8312C66.6617 51.4703 66.728 51.0468 66.728 50.5569C66.728 50.1849 66.6249 49.9014 66.4149 49.7135C66.205 49.5257 65.9545 49.4299 65.6636 49.4299C65.4352 49.4299 65.2032 49.4889 64.9601 49.6067C64.7207 49.7246 64.4998 49.9014 64.3009 50.1371C64.102 50.3728 63.9363 50.6748 63.8074 51.0357C63.6785 51.3966 63.6122 51.8202 63.6122 52.31Z" fill="#353434"/>
<path d="M70.4326 54.0004C70.1601 54.0004 69.9318 53.9673 69.7476 53.8973C69.5635 53.8273 69.4198 53.7316 69.3093 53.6063C69.1988 53.4811 69.1252 53.3375 69.0773 53.1681C69.0294 52.9987 69.0073 52.8182 69.0073 52.623C69.0073 52.4388 69.0221 52.2436 69.0552 52.0374C69.0883 51.8311 69.1289 51.6249 69.1767 51.415L69.766 48.9731H70.3811L69.8581 51.1387C69.8065 51.3597 69.7513 51.5917 69.6924 51.8385C69.6334 52.0816 69.604 52.3136 69.604 52.5346C69.604 52.6598 69.6187 52.7777 69.6482 52.8845C69.6776 52.9913 69.7255 53.087 69.7955 53.1681C69.8655 53.2491 69.9575 53.3154 70.0717 53.3596C70.1859 53.4038 70.3332 53.4259 70.51 53.4259C70.8157 53.4259 71.0808 53.3669 71.3129 53.2454C71.5449 53.1239 71.7622 52.9508 71.9648 52.7224C71.9648 52.553 71.9905 52.3541 72.0421 52.1331C72.0937 51.9122 72.1415 51.7133 72.1857 51.5365L72.8229 48.9731H73.438L72.6866 52.0116C72.6498 52.17 72.6167 52.3173 72.5909 52.4573C72.5651 52.5972 72.554 52.7298 72.554 52.855C72.554 53.0244 72.5688 53.1865 72.6019 53.3412C72.6351 53.4922 72.6903 53.6616 72.7713 53.8457L72.1379 53.9415C72.101 53.8642 72.0679 53.7794 72.0384 53.68C72.009 53.5806 71.9905 53.4811 71.9758 53.3817C71.7548 53.5953 71.5191 53.7537 71.2687 53.8531C71.0182 53.9525 70.742 54.0004 70.4363 54.0004H70.4326Z" fill="#353434"/>
<path d="M75.9719 49.1943C76.2113 49.0985 76.4765 49.0212 76.7638 48.9586C77.0511 48.8959 77.3346 48.8628 77.6109 48.8628C77.7582 48.8628 77.8945 48.8738 78.027 48.8923C78.1596 48.9107 78.2849 48.9438 78.4064 48.988L78.2443 49.5478C77.9976 49.4705 77.7435 49.4337 77.4857 49.4337C77.3199 49.4337 77.1579 49.4447 76.9921 49.4705C76.8264 49.4963 76.6643 49.5331 76.4986 49.5847L75.4637 53.8864H74.8486L75.9683 49.1943H75.9719Z" fill="#353434"/>
<path d="M82.2073 54.7332C82.3399 54.84 82.5314 54.9284 82.7819 54.9984C83.0323 55.0684 83.2791 55.1015 83.5258 55.1015C84.1078 55.1015 84.5571 54.9689 84.8701 54.7037C85.1832 54.4386 85.3894 54.0592 85.4815 53.5731L85.5294 53.3263C85.3379 53.4478 85.1353 53.5362 84.9217 53.5989C84.7081 53.6615 84.4908 53.6872 84.2772 53.6872C84.0046 53.6872 83.7689 53.643 83.57 53.5547C83.3712 53.4663 83.2091 53.3447 83.0802 53.19C82.955 53.0354 82.8592 52.8549 82.7966 52.6486C82.734 52.4424 82.7009 52.2214 82.7009 51.9894C82.7009 51.6285 82.7671 51.2638 82.8961 50.8919C83.025 50.5199 83.2275 50.1847 83.5001 49.8864C83.7726 49.5844 84.1114 49.3413 84.5202 49.1498C84.9291 48.9583 85.4152 48.8662 85.9787 48.8662C86.2071 48.8662 86.4207 48.8883 86.6232 48.9362C86.8258 48.9841 87.0063 49.0504 87.1646 49.1388L86.1003 53.5657C86.0376 53.8309 85.9529 54.0924 85.8535 54.3428C85.7504 54.5969 85.603 54.8216 85.4079 55.0168C85.2127 55.212 84.9512 55.3704 84.6234 55.4919C84.2956 55.6134 83.8794 55.6724 83.3638 55.6724C83.2607 55.6724 83.1502 55.665 83.0213 55.6503C82.8924 55.6355 82.7671 55.6098 82.6382 55.5803C82.5093 55.5472 82.3841 55.514 82.2626 55.4698C82.141 55.4293 82.0342 55.3777 81.9385 55.3225L82.2037 54.7332H82.2073ZM86.4612 49.4997C86.2586 49.4481 86.0634 49.4223 85.8719 49.4223C85.4336 49.4223 85.058 49.4997 84.7375 49.6507C84.4171 49.8017 84.152 49.9969 83.9457 50.2363C83.7395 50.4757 83.5811 50.7372 83.4816 51.0244C83.3822 51.3117 83.3306 51.5879 83.3306 51.8568C83.3306 52.0262 83.3454 52.1919 83.3785 52.3466C83.4117 52.5013 83.4632 52.6376 83.5406 52.7518C83.6179 52.8659 83.721 52.9543 83.8536 53.0243C83.9862 53.0906 84.1556 53.1237 84.3656 53.1237C84.5755 53.1237 84.8038 53.0832 85.0322 53.0059C85.2605 52.9285 85.4815 52.8217 85.6914 52.6892L86.4649 49.5071L86.4612 49.4997Z" fill="#353434"/>
<path d="M91.8714 53.9416C91.8346 53.8643 91.8014 53.7796 91.7719 53.6801C91.7425 53.5807 91.7241 53.4813 91.7093 53.3818C91.4884 53.5954 91.2526 53.7538 91.0096 53.8569C90.7665 53.9564 90.5124 54.0079 90.2546 54.0079C90.052 54.0079 89.8568 53.9748 89.6726 53.9048C89.4885 53.8348 89.3264 53.728 89.1865 53.5807C89.0465 53.4334 88.9324 53.2456 88.8477 53.0172C88.7629 52.7852 88.7188 52.5126 88.7188 52.1959C88.7188 51.6876 88.7998 51.231 88.9655 50.8185C89.1312 50.406 89.3596 50.0561 89.6542 49.7688C89.9489 49.4815 90.2987 49.2569 90.7002 49.0985C91.1016 48.9401 91.5399 48.8628 92.015 48.8628C92.4091 48.8628 92.7848 48.9291 93.1457 49.0617L92.4128 52.0154C92.376 52.1738 92.3428 52.3211 92.317 52.4611C92.2912 52.601 92.2802 52.7336 92.2802 52.8588C92.2802 53.0283 92.2949 53.1903 92.3281 53.345C92.3612 53.496 92.4165 53.6654 92.4975 53.8496L91.864 53.9453L91.8714 53.9416ZM92.4201 49.5073C92.306 49.4815 92.2029 49.4631 92.1071 49.4521C92.0113 49.441 91.9119 49.4337 91.8125 49.4337C91.4184 49.4337 91.0685 49.511 90.7665 49.662C90.4608 49.813 90.2067 50.0119 89.9967 50.2586C89.7868 50.5054 89.6284 50.789 89.518 51.1021C89.4075 51.4188 89.3522 51.7429 89.3522 52.0707C89.3522 52.3322 89.378 52.5458 89.4296 52.7226C89.4811 52.8957 89.5511 53.0356 89.6395 53.1387C89.7279 53.2419 89.831 53.3192 89.9489 53.3671C90.0667 53.415 90.1919 53.4371 90.3245 53.4371C90.586 53.4371 90.8291 53.3745 91.0574 53.2529C91.2858 53.1314 91.5031 52.9546 91.7056 52.7262C91.7056 52.5568 91.7314 52.3579 91.783 52.137C91.8346 51.916 91.8824 51.7171 91.9266 51.5403L92.4312 49.5073H92.4201Z" fill="#353434"/>
<path d="M96.0297 47.5331L96.6742 47.4189L96.3096 48.9769H98.0406L97.9154 49.5072H96.1696L95.5914 51.9085C95.5583 52.0227 95.5325 52.1442 95.5104 52.2731C95.4883 52.402 95.4772 52.5309 95.4772 52.6562C95.4772 52.9397 95.5472 53.1386 95.6872 53.2528C95.8271 53.367 96.0002 53.4222 96.2101 53.4222C96.4201 53.4222 96.5895 53.4001 96.7405 53.3559C96.8915 53.3117 97.0462 53.2528 97.2119 53.1755L97.2708 53.7353C97.0977 53.8052 96.9062 53.8642 96.6963 53.9157C96.4827 53.9673 96.2728 53.9931 96.0628 53.9931C95.8971 53.9931 95.7424 53.9747 95.5951 53.9342C95.4478 53.8973 95.3189 53.8347 95.2084 53.7426C95.0979 53.6542 95.0095 53.5364 94.9432 53.3928C94.8769 53.2491 94.8438 53.065 94.8438 52.8403C94.8438 52.5678 94.8879 52.2547 94.9763 51.9011L96.0297 47.5221V47.5331Z" fill="#353434"/>
<path d="M103.51 50.1259C103.51 50.4794 103.421 50.7704 103.248 50.9914C103.075 51.2124 102.832 51.3891 102.515 51.518C102.199 51.6469 101.827 51.7427 101.385 51.798C100.943 51.8532 100.457 51.8974 99.919 51.9195V52.1184C99.919 52.3025 99.9374 52.4719 99.9742 52.6303C100.011 52.7887 100.081 52.9249 100.184 53.0428C100.284 53.1607 100.427 53.2527 100.608 53.3227C100.788 53.3927 101.02 53.4258 101.307 53.4258C101.528 53.4258 101.753 53.3927 101.978 53.3301C102.202 53.2675 102.416 53.1717 102.619 53.0465L102.685 53.6173C102.471 53.7389 102.232 53.831 101.974 53.8973C101.713 53.9636 101.451 53.9967 101.186 53.9967C100.836 53.9967 100.545 53.9525 100.306 53.8641C100.07 53.7757 99.8748 53.6505 99.7274 53.4921C99.5801 53.3338 99.4733 53.1422 99.4107 52.9213C99.3481 52.7003 99.3149 52.4572 99.3149 52.1884C99.3149 51.7832 99.3776 51.3818 99.4991 50.9803C99.6243 50.5826 99.8048 50.2253 100.044 49.9086C100.284 49.5918 100.582 49.3377 100.932 49.1425C101.282 48.9473 101.683 48.8516 102.132 48.8516C102.582 48.8516 102.917 48.9657 103.153 49.1978C103.388 49.4298 103.51 49.7355 103.51 50.1148V50.1259ZM102.073 49.4224C101.819 49.4224 101.584 49.474 101.363 49.5808C101.142 49.6839 100.943 49.8276 100.766 50.0043C100.589 50.1811 100.435 50.3874 100.306 50.6231C100.177 50.8588 100.081 51.1056 100.015 51.3634C100.552 51.3523 101.005 51.3155 101.374 51.2602C101.742 51.2013 102.037 51.124 102.261 51.0245C102.486 50.9214 102.644 50.7999 102.74 50.6599C102.836 50.52 102.884 50.3542 102.884 50.1701C102.884 49.9233 102.81 49.7392 102.659 49.6139C102.512 49.4924 102.317 49.4298 102.073 49.4298V49.4224Z" fill="#353434"/>
<path d="M106.375 53.8863H105.73C105.598 53.1902 105.491 52.4278 105.41 51.5991C105.329 50.7704 105.285 49.8976 105.27 48.9768H105.878C105.885 49.312 105.896 49.6766 105.915 50.0744C105.933 50.4721 105.959 50.8625 105.992 51.2566C106.025 51.6507 106.058 52.019 106.095 52.3689C106.132 52.7187 106.176 53.0097 106.228 53.2417C106.43 52.9581 106.636 52.6414 106.85 52.2915C107.064 51.9416 107.266 51.5807 107.458 51.205C107.649 50.8294 107.83 50.45 107.999 50.0707C108.169 49.6913 108.308 49.3267 108.423 48.9768H109.06C109.06 49.2862 109.067 49.625 109.082 49.9933C109.097 50.3616 109.119 50.7336 109.145 51.113C109.17 51.4923 109.2 51.868 109.237 52.2326C109.27 52.6009 109.31 52.936 109.354 53.238C109.505 53.0686 109.693 52.8108 109.911 52.4646C110.128 52.1184 110.349 51.7428 110.57 51.3339C110.791 50.9251 110.997 50.5126 111.192 50.0928C111.387 49.6729 111.531 49.3009 111.623 48.9731H112.231C112.084 49.4409 111.896 49.9234 111.66 50.4132C111.424 50.903 111.178 51.3708 110.916 51.809C110.655 52.251 110.393 52.6525 110.132 53.0171C109.87 53.3817 109.645 53.6726 109.447 53.8863H108.802C108.739 53.3301 108.677 52.7261 108.622 52.0816C108.563 51.4371 108.529 50.7999 108.515 50.1738C108.39 50.4721 108.242 50.7889 108.073 51.1277C107.903 51.4665 107.727 51.8017 107.535 52.1331C107.344 52.4646 107.152 52.785 106.949 53.087C106.747 53.389 106.555 53.6579 106.364 53.8863H106.375Z" fill="#353434"/>
<path d="M116.393 53.9416C116.356 53.8643 116.323 53.7796 116.293 53.6801C116.264 53.5807 116.246 53.4813 116.231 53.3818C116.01 53.5954 115.774 53.7538 115.531 53.8569C115.288 53.9564 115.034 54.0079 114.776 54.0079C114.573 54.0079 114.378 53.9748 114.194 53.9048C114.01 53.8348 113.848 53.728 113.708 53.5807C113.568 53.4334 113.454 53.2456 113.369 53.0172C113.284 52.7852 113.24 52.5126 113.24 52.1959C113.24 51.6876 113.321 51.231 113.487 50.8185C113.653 50.406 113.881 50.0561 114.176 49.7688C114.47 49.4815 114.82 49.2569 115.222 49.0985C115.623 48.9401 116.061 48.8628 116.537 48.8628C116.931 48.8628 117.306 48.9291 117.667 49.0617L116.934 52.0154C116.897 52.1738 116.864 52.3211 116.839 52.4611C116.813 52.601 116.802 52.7336 116.802 52.8588C116.802 53.0283 116.816 53.1903 116.85 53.345C116.883 53.496 116.938 53.6654 117.019 53.8496L116.386 53.9453L116.393 53.9416ZM116.942 49.5073C116.827 49.4815 116.724 49.4631 116.629 49.4521C116.533 49.441 116.433 49.4337 116.334 49.4337C115.94 49.4337 115.59 49.511 115.288 49.662C114.982 49.813 114.728 50.0119 114.518 50.2586C114.308 50.5054 114.15 50.789 114.039 51.1021C113.929 51.4188 113.874 51.7429 113.874 52.0707C113.874 52.3322 113.899 52.5458 113.951 52.7226C114.003 52.8957 114.073 53.0356 114.161 53.1387C114.249 53.2419 114.352 53.3192 114.47 53.3671C114.588 53.415 114.713 53.4371 114.846 53.4371C115.108 53.4371 115.351 53.3745 115.579 53.2529C115.807 53.1314 116.025 52.9546 116.227 52.7262C116.227 52.5568 116.253 52.3579 116.304 52.137C116.356 51.916 116.404 51.7171 116.448 51.5403L116.953 49.5073H116.942Z" fill="#353434"/>
<path d="M117.955 54.9874C118.128 55.0832 118.319 55.1311 118.537 55.1311C118.861 55.1311 119.177 55.0427 119.487 54.8659C119.796 54.6891 120.087 54.4202 120.352 54.0593C120.083 53.2159 119.874 52.3615 119.723 51.496C119.572 50.6304 119.479 49.7907 119.454 48.9805H120.098C120.109 49.2862 120.131 49.6176 120.161 49.9786C120.19 50.3395 120.231 50.7152 120.29 51.1092C120.349 51.5033 120.419 51.9011 120.5 52.3099C120.581 52.7187 120.684 53.1165 120.805 53.5032C121.089 53.0539 121.347 52.6008 121.571 52.1405C121.8 51.6801 121.999 51.2492 122.168 50.8441C122.337 50.4389 122.477 50.0743 122.588 49.7465C122.698 49.4224 122.779 49.1646 122.831 48.9805H123.439C123.402 49.1131 123.332 49.3414 123.229 49.6581C123.129 49.9786 122.993 50.3505 122.82 50.7741C122.65 51.1976 122.444 51.6543 122.197 52.1478C121.951 52.6414 121.675 53.1165 121.358 53.5879C120.868 54.3171 120.397 54.8475 119.94 55.1789C119.483 55.5104 119.008 55.6761 118.514 55.6761C118.4 55.6761 118.275 55.6651 118.143 55.6467C118.01 55.6283 117.87 55.5804 117.723 55.503L117.94 54.9911L117.955 54.9874Z" fill="#353434"/>
<path d="M129.099 47.5331L129.744 47.4189L129.379 48.9769H131.11L130.985 49.5072H129.239L128.661 51.9085C128.628 52.0227 128.602 52.1442 128.58 52.2731C128.558 52.402 128.547 52.5309 128.547 52.6562C128.547 52.9397 128.617 53.1386 128.756 53.2528C128.896 53.367 129.07 53.4222 129.279 53.4222C129.489 53.4222 129.659 53.4001 129.81 53.3559C129.961 53.3117 130.116 53.2528 130.281 53.1755L130.34 53.7353C130.167 53.8052 129.976 53.8642 129.766 53.9157C129.552 53.9673 129.342 53.9931 129.132 53.9931C128.966 53.9931 128.812 53.9747 128.664 53.9342C128.517 53.8973 128.388 53.8347 128.278 53.7426C128.167 53.6542 128.079 53.5364 128.013 53.3928C127.946 53.2491 127.913 53.065 127.913 52.8403C127.913 52.5678 127.957 52.2547 128.046 51.9011L129.099 47.5221V47.5331Z" fill="#353434"/>
<path d="M136.749 50.5164C136.749 51.1131 136.664 51.6287 136.498 52.0633C136.329 52.5015 136.115 52.8625 135.854 53.1498C135.592 53.437 135.301 53.6506 134.981 53.7906C134.66 53.9305 134.347 54.0005 134.034 54.0005C133.813 54.0005 133.603 53.9674 133.404 53.8974C133.206 53.8274 133.029 53.7243 132.878 53.5843C132.727 53.4444 132.605 53.2713 132.517 53.065C132.428 52.8588 132.384 52.6194 132.384 52.3469C132.384 51.7502 132.469 51.2346 132.635 50.8C132.804 50.3617 133.018 50.0008 133.279 49.7172C133.541 49.4336 133.832 49.22 134.152 49.08C134.473 48.9401 134.786 48.8701 135.099 48.8701C135.32 48.8701 135.53 48.9033 135.728 48.9732C135.927 49.0432 136.104 49.1463 136.255 49.2863C136.406 49.4262 136.528 49.5993 136.616 49.8056C136.704 50.0118 136.749 50.2476 136.749 50.5127V50.5164ZM133.007 52.31C133.007 52.682 133.11 52.9656 133.32 53.1534C133.53 53.3413 133.78 53.437 134.071 53.437C134.299 53.437 134.531 53.3781 134.775 53.2602C135.014 53.1424 135.235 52.9656 135.434 52.7299C135.633 52.4942 135.798 52.1922 135.927 51.8312C136.056 51.4703 136.123 51.0468 136.123 50.5569C136.123 50.1849 136.019 49.9014 135.809 49.7135C135.6 49.5257 135.349 49.4299 135.058 49.4299C134.83 49.4299 134.598 49.4889 134.355 49.6067C134.115 49.7246 133.894 49.9014 133.695 50.1371C133.497 50.3728 133.331 50.6748 133.202 51.0357C133.073 51.3966 133.007 51.8202 133.007 52.31Z" fill="#353434"/>
<path d="M142.575 53.8865C142.417 53.183 142.277 52.4096 142.152 51.5699C142.026 50.7302 141.956 49.8647 141.945 48.9771H142.553C142.56 49.3196 142.575 49.6805 142.601 50.0598C142.627 50.4392 142.66 50.8185 142.704 51.1979C142.748 51.5772 142.8 51.9455 142.859 52.2991C142.918 52.6527 142.984 52.9694 143.061 53.2493C143.253 52.9952 143.459 52.6932 143.684 52.3433C143.908 51.9934 144.129 51.6214 144.347 51.231C144.564 50.8406 144.759 50.4502 144.943 50.0635C145.124 49.6731 145.267 49.3122 145.378 48.9771H145.986C145.86 49.3748 145.695 49.7947 145.492 50.2293C145.289 50.6639 145.065 51.0985 144.818 51.5294C144.571 51.9603 144.306 52.3764 144.023 52.7816C143.739 53.1867 143.463 53.555 143.19 53.8828H142.582L142.575 53.8865Z" fill="#353434"/>
<path d="M151.175 50.1259C151.175 50.4794 151.087 50.7704 150.913 50.9914C150.74 51.2124 150.497 51.3891 150.18 51.518C149.867 51.6469 149.492 51.7427 149.05 51.798C148.612 51.8532 148.122 51.8974 147.584 51.9195V52.1184C147.584 52.3025 147.602 52.4719 147.639 52.6303C147.676 52.7887 147.746 52.9249 147.849 53.0428C147.949 53.1607 148.092 53.2527 148.273 53.3227C148.453 53.3927 148.685 53.4258 148.972 53.4258C149.193 53.4258 149.418 53.3927 149.643 53.3301C149.867 53.2675 150.081 53.1717 150.284 53.0465L150.35 53.6173C150.136 53.7389 149.897 53.831 149.639 53.8973C149.378 53.9636 149.116 53.9967 148.851 53.9967C148.501 53.9967 148.21 53.9525 147.971 53.8641C147.735 53.7757 147.54 53.6505 147.392 53.4921C147.245 53.3338 147.138 53.1422 147.076 52.9213C147.013 52.7003 146.98 52.4572 146.98 52.1884C146.98 51.7832 147.043 51.3818 147.164 50.9803C147.289 50.5826 147.47 50.2253 147.709 49.9086C147.949 49.5918 148.247 49.3377 148.597 49.1425C148.947 48.9473 149.348 48.8516 149.797 48.8516C150.247 48.8516 150.582 48.9657 150.818 49.1978C151.053 49.4298 151.175 49.7355 151.175 50.1148V50.1259ZM149.739 49.4224C149.484 49.4224 149.249 49.474 149.028 49.5808C148.807 49.6839 148.608 49.8276 148.431 50.0043C148.254 50.1811 148.1 50.3874 147.971 50.6231C147.842 50.8588 147.746 51.1056 147.68 51.3634C148.217 51.3523 148.67 51.3155 149.039 51.2602C149.407 51.2013 149.702 51.124 149.926 51.0245C150.151 50.9214 150.309 50.7999 150.405 50.6599C150.501 50.52 150.549 50.3542 150.549 50.1701C150.549 49.9233 150.475 49.7392 150.324 49.6139C150.177 49.4924 149.982 49.4298 149.739 49.4298V49.4224Z" fill="#353434"/>
<path d="M153.617 49.1943C153.856 49.0985 154.122 49.0212 154.409 48.9586C154.696 48.8959 154.98 48.8628 155.256 48.8628C155.4 48.8628 155.539 48.8738 155.672 48.8923C155.805 48.9107 155.93 48.9438 156.051 48.988L155.889 49.5478C155.643 49.4705 155.388 49.4337 155.131 49.4337C154.965 49.4337 154.803 49.4447 154.637 49.4705C154.471 49.4963 154.309 49.5331 154.144 49.5847L153.109 53.8864H152.494L153.613 49.1943H153.617Z" fill="#353434"/>
<path d="M158.187 48.9771H158.802L157.617 53.8865H157.001L158.187 48.9771ZM158.43 47.5407C158.43 47.375 158.475 47.2497 158.567 47.165C158.659 47.0803 158.758 47.0361 158.865 47.0361C158.99 47.0361 159.09 47.0766 159.16 47.154C159.23 47.2313 159.263 47.3345 159.263 47.4634C159.263 47.6144 159.211 47.7322 159.112 47.8132C159.009 47.8943 158.909 47.9348 158.806 47.9348C158.681 47.9348 158.585 47.898 158.523 47.8243C158.46 47.7506 158.427 47.6549 158.427 47.5333L158.43 47.5407Z" fill="#353434"/>
<path d="M161.082 52.9179C161.005 53.2236 160.931 53.5035 160.858 53.7576C160.784 54.0154 160.703 54.2511 160.611 54.4758C160.519 54.6968 160.412 54.9067 160.294 55.1019C160.173 55.2971 160.033 55.4923 159.867 55.6801L159.326 55.5954C159.484 55.3818 159.617 55.1829 159.731 55.0025C159.841 54.822 159.933 54.6415 160.011 54.4648C160.088 54.288 160.154 54.1075 160.21 53.927C160.265 53.7466 160.32 53.5477 160.372 53.3341L161.55 48.4431C161.639 48.0637 161.756 47.7507 161.907 47.5039C162.055 47.2571 162.224 47.0619 162.412 46.9146C162.6 46.771 162.799 46.6679 163.016 46.6053C163.23 46.5463 163.451 46.5132 163.672 46.5132C163.819 46.5132 163.944 46.5205 164.055 46.5353C164.165 46.55 164.272 46.5758 164.371 46.6053L164.18 47.1356C164.084 47.1025 163.988 47.0804 163.896 47.0693C163.801 47.0583 163.694 47.0509 163.572 47.0509C163.406 47.0509 163.255 47.073 163.115 47.1172C162.976 47.1614 162.847 47.2387 162.732 47.3455C162.615 47.4523 162.508 47.596 162.416 47.7764C162.32 47.9569 162.239 48.1853 162.169 48.4541L162.036 48.9661H163.679L163.565 49.4964H161.904L161.086 52.9069L161.082 52.9179ZM164.581 48.9771H165.196L164.01 53.8865H163.395L164.581 48.9771ZM164.832 47.5407C164.832 47.375 164.876 47.2498 164.968 47.1651C165.06 47.0804 165.16 47.0362 165.266 47.0362C165.392 47.0362 165.491 47.0767 165.561 47.154C165.631 47.2314 165.664 47.3345 165.664 47.4634C165.664 47.6144 165.613 47.7323 165.513 47.8133C165.414 47.8943 165.311 47.9348 165.207 47.9348C165.082 47.9348 164.986 47.898 164.924 47.8243C164.861 47.7507 164.828 47.6549 164.828 47.5334L164.832 47.5407Z" fill="#353434"/>
<path d="M170.993 50.1259C170.993 50.4794 170.905 50.7704 170.732 50.9914C170.559 51.2124 170.316 51.3891 169.999 51.518C169.686 51.6469 169.31 51.7427 168.868 51.798C168.43 51.8532 167.94 51.8974 167.402 51.9195V52.1184C167.402 52.3025 167.421 52.4719 167.458 52.6303C167.494 52.7887 167.564 52.9249 167.668 53.0428C167.767 53.1607 167.911 53.2527 168.091 53.3227C168.272 53.3927 168.504 53.4258 168.791 53.4258C169.012 53.4258 169.236 53.3927 169.461 53.3301C169.686 53.2675 169.899 53.1717 170.102 53.0465L170.168 53.6173C169.955 53.7389 169.715 53.831 169.457 53.8973C169.196 53.9636 168.934 53.9967 168.669 53.9967C168.319 53.9967 168.028 53.9525 167.789 53.8641C167.553 53.7757 167.358 53.6505 167.211 53.4921C167.064 53.3338 166.957 53.1422 166.894 52.9213C166.831 52.7003 166.798 52.4572 166.798 52.1884C166.798 51.7832 166.861 51.3818 166.982 50.9803C167.104 50.5826 167.288 50.2253 167.528 49.9086C167.767 49.5918 168.065 49.3377 168.415 49.1425C168.765 48.9473 169.166 48.8516 169.616 48.8516C170.065 48.8516 170.4 48.9657 170.636 49.1978C170.872 49.4298 170.993 49.7355 170.993 50.1148V50.1259ZM169.561 49.4224C169.306 49.4224 169.071 49.474 168.85 49.5808C168.629 49.6839 168.43 49.8276 168.253 50.0043C168.076 50.1811 167.922 50.3874 167.793 50.6231C167.664 50.8588 167.568 51.1056 167.502 51.3634C168.04 51.3523 168.493 51.3155 168.861 51.2602C169.229 51.2013 169.524 51.124 169.748 51.0245C169.973 50.9214 170.131 50.7999 170.227 50.6599C170.323 50.52 170.371 50.3542 170.371 50.1701C170.371 49.9233 170.297 49.7392 170.146 49.6139C169.999 49.4924 169.804 49.4298 169.561 49.4298V49.4224Z" fill="#353434"/>
<path d="M175.641 53.9415C175.608 53.8789 175.579 53.7942 175.546 53.6911C175.512 53.588 175.49 53.4849 175.479 53.3817C175.424 53.4443 175.347 53.5143 175.258 53.5843C175.166 53.658 175.059 53.7243 174.931 53.7832C174.802 53.8421 174.662 53.8937 174.503 53.9342C174.345 53.9747 174.172 53.9968 173.98 53.9968C173.708 53.9968 173.476 53.9489 173.284 53.8495C173.093 53.75 172.934 53.6211 172.809 53.4554C172.688 53.2897 172.596 53.0945 172.54 52.8698C172.485 52.6451 172.456 52.4094 172.456 52.1627C172.456 51.7649 172.522 51.3671 172.651 50.9767C172.78 50.5827 172.979 50.2328 173.247 49.916C173.516 49.603 173.855 49.3489 174.264 49.15C174.673 48.9548 175.159 48.8553 175.715 48.8553C175.918 48.8553 176.124 48.8738 176.33 48.9106L176.875 46.6235L177.523 46.5093L176.157 52.1774C176.124 52.2916 176.102 52.4021 176.087 52.5089C176.072 52.6157 176.065 52.7225 176.065 52.8219C176.065 53.0061 176.08 53.1792 176.113 53.3449C176.146 53.5106 176.201 53.6727 176.282 53.8384L175.641 53.9342V53.9415ZM176.197 49.4814C176.109 49.4704 176.013 49.4594 175.903 49.4483C175.796 49.4373 175.697 49.4336 175.608 49.4336C175.166 49.4336 174.787 49.5146 174.466 49.6766C174.15 49.8387 173.885 50.0486 173.682 50.3028C173.479 50.5569 173.325 50.8442 173.229 51.1572C173.13 51.4703 173.082 51.7796 173.082 52.0816C173.082 52.2732 173.1 52.4463 173.133 52.6083C173.166 52.7704 173.222 52.914 173.299 53.0355C173.376 53.1571 173.472 53.2565 173.594 53.3265C173.715 53.3965 173.859 53.4296 174.028 53.4296C174.187 53.4296 174.334 53.4075 174.478 53.3633C174.621 53.3191 174.754 53.2639 174.875 53.1976C174.997 53.1313 175.111 53.0576 175.21 52.9729C175.31 52.8919 175.398 52.8109 175.465 52.7372C175.465 52.5715 175.487 52.3873 175.531 52.1811C175.575 51.9748 175.627 51.7612 175.682 51.5402L176.19 49.4778L176.197 49.4814Z" fill="#353434"/>
<path d="M184.989 53.9416C184.952 53.8643 184.919 53.7796 184.889 53.6801C184.86 53.5807 184.841 53.4813 184.827 53.3818C184.606 53.5954 184.37 53.7538 184.127 53.8569C183.884 53.9564 183.63 54.0079 183.372 54.0079C183.169 54.0079 182.974 53.9748 182.79 53.9048C182.606 53.8348 182.444 53.728 182.304 53.5807C182.164 53.4334 182.053 53.2456 181.965 53.0172C181.88 52.7852 181.836 52.5126 181.836 52.1959C181.836 51.6876 181.917 51.231 182.083 50.8185C182.248 50.406 182.477 50.0561 182.771 49.7688C183.066 49.4815 183.416 49.2569 183.817 49.0985C184.219 48.9401 184.657 48.8628 185.132 48.8628C185.526 48.8628 185.902 48.9291 186.263 49.0617L185.53 52.0154C185.493 52.1738 185.46 52.3211 185.434 52.4611C185.408 52.601 185.397 52.7336 185.397 52.8588C185.397 53.0283 185.412 53.1903 185.445 53.345C185.478 53.496 185.534 53.6654 185.615 53.8496L184.981 53.9453L184.989 53.9416ZM185.541 49.5073C185.427 49.4815 185.324 49.4631 185.228 49.4521C185.132 49.441 185.033 49.4337 184.933 49.4337C184.539 49.4337 184.193 49.511 183.887 49.662C183.582 49.813 183.328 50.0119 183.118 50.2586C182.908 50.5054 182.749 50.789 182.639 51.1021C182.528 51.4188 182.473 51.7429 182.473 52.0707C182.473 52.3322 182.499 52.5458 182.55 52.7226C182.602 52.8957 182.672 53.0356 182.76 53.1387C182.849 53.2419 182.952 53.3192 183.07 53.3671C183.188 53.415 183.313 53.4371 183.445 53.4371C183.707 53.4371 183.95 53.3745 184.178 53.2529C184.407 53.1314 184.624 52.9546 184.827 52.7262C184.827 52.5568 184.852 52.3579 184.904 52.137C184.955 51.916 185.003 51.7171 185.048 51.5403L185.552 49.5073H185.541Z" fill="#353434"/>
<path d="M188.815 49.1465C189.062 49.0765 189.323 49.0139 189.603 48.9624C189.879 48.9071 190.156 48.8813 190.428 48.8813C190.657 48.8813 190.87 48.9034 191.073 48.9513C191.275 48.9992 191.452 49.0839 191.603 49.2018C191.754 49.3233 191.876 49.4817 191.964 49.6769C192.052 49.8721 192.097 50.1188 192.097 50.4098C192.097 50.5755 192.082 50.7449 192.06 50.918C192.034 51.0911 192.001 51.2679 191.957 51.4447L191.367 53.8865H190.752L191.275 51.7025C191.327 51.4926 191.371 51.2827 191.412 51.0654C191.452 50.8517 191.478 50.6455 191.482 50.4466C191.482 50.2514 191.452 50.0894 191.389 49.9641C191.331 49.8389 191.246 49.7358 191.143 49.6585C191.04 49.5811 190.918 49.5296 190.778 49.4964C190.638 49.4633 190.494 49.4485 190.34 49.4485C190.174 49.4485 190.008 49.4596 189.835 49.4854C189.666 49.5111 189.496 49.5443 189.331 49.5811L188.296 53.8828H187.681L188.811 49.1428L188.815 49.1465Z" fill="#353434"/>
<path d="M197.216 53.9415C197.183 53.8789 197.153 53.7942 197.12 53.6911C197.087 53.588 197.065 53.4849 197.054 53.3817C196.999 53.4443 196.921 53.5143 196.833 53.5843C196.741 53.658 196.634 53.7243 196.505 53.7832C196.376 53.8421 196.236 53.8937 196.078 53.9342C195.92 53.9747 195.747 53.9968 195.555 53.9968C195.282 53.9968 195.05 53.9489 194.859 53.8495C194.667 53.75 194.509 53.6211 194.384 53.4554C194.262 53.2897 194.17 53.0945 194.115 52.8698C194.06 52.6451 194.03 52.4094 194.03 52.1627C194.03 51.7649 194.097 51.3671 194.225 50.9767C194.354 50.5827 194.553 50.2328 194.822 49.916C195.091 49.603 195.43 49.3489 195.839 49.15C196.247 48.9548 196.734 48.8553 197.29 48.8553C197.492 48.8553 197.699 48.8738 197.905 48.9106L198.45 46.6235L199.098 46.5093L197.732 52.1774C197.699 52.2916 197.676 52.4021 197.662 52.5089C197.647 52.6157 197.64 52.7225 197.64 52.8219C197.64 53.0061 197.654 53.1792 197.687 53.3449C197.721 53.5106 197.776 53.6727 197.857 53.8384L197.216 53.9342V53.9415ZM197.772 49.4814C197.684 49.4704 197.588 49.4594 197.478 49.4483C197.371 49.4373 197.271 49.4336 197.183 49.4336C196.741 49.4336 196.362 49.5146 196.041 49.6766C195.724 49.8387 195.459 50.0486 195.257 50.3028C195.054 50.5569 194.899 50.8442 194.804 51.1572C194.704 51.4703 194.656 51.7796 194.656 52.0816C194.656 52.2732 194.675 52.4463 194.708 52.6083C194.741 52.7704 194.796 52.914 194.874 53.0355C194.951 53.1571 195.047 53.2565 195.168 53.3265C195.29 53.3965 195.433 53.4296 195.603 53.4296C195.761 53.4296 195.909 53.4075 196.052 53.3633C196.196 53.3191 196.328 53.2639 196.45 53.1976C196.572 53.1313 196.686 53.0576 196.785 52.9729C196.885 52.8919 196.973 52.8109 197.039 52.7372C197.039 52.5715 197.061 52.3873 197.106 52.1811C197.15 51.9748 197.201 51.7612 197.257 51.5402L197.765 49.4778L197.772 49.4814Z" fill="#353434"/>
<path d="M204.741 47.5331L205.385 47.4189L205.021 48.9769H206.752L206.626 49.5072H204.881L204.302 51.9085C204.269 52.0227 204.243 52.1442 204.221 52.2731C204.199 52.402 204.188 52.5309 204.188 52.6562C204.188 52.9397 204.258 53.1386 204.398 53.2528C204.538 53.367 204.711 53.4222 204.921 53.4222C205.131 53.4222 205.3 53.4001 205.451 53.3559C205.602 53.3117 205.757 53.2528 205.923 53.1755L205.982 53.7353C205.812 53.8052 205.617 53.8642 205.407 53.9157C205.194 53.9673 204.984 53.9931 204.774 53.9931C204.608 53.9931 204.453 53.9747 204.306 53.9342C204.159 53.8973 204.03 53.8347 203.919 53.7426C203.809 53.6542 203.72 53.5364 203.654 53.3928C203.588 53.2491 203.555 53.065 203.555 52.8403C203.555 52.5678 203.599 52.2547 203.687 51.9011L204.741 47.5221V47.5331Z" fill="#353434"/>
<path d="M209.005 49.1943C209.245 49.0985 209.51 49.0212 209.797 48.9586C210.084 48.8959 210.368 48.8628 210.644 48.8628C210.788 48.8628 210.928 48.8738 211.06 48.8923C211.193 48.9107 211.318 48.9438 211.44 48.988L211.278 49.5478C211.031 49.4705 210.777 49.4337 210.519 49.4337C210.353 49.4337 210.191 49.4447 210.025 49.4705C209.86 49.4963 209.698 49.5331 209.532 49.5847L208.497 53.8864H207.882L209.001 49.1943H209.005Z" fill="#353434"/>
<path d="M213.955 54.0004C213.683 54.0004 213.454 53.9673 213.27 53.8973C213.086 53.8273 212.942 53.7316 212.832 53.6063C212.725 53.4848 212.648 53.3375 212.6 53.1681C212.552 52.9987 212.53 52.8182 212.53 52.623C212.53 52.4388 212.545 52.2436 212.578 52.0374C212.611 51.8311 212.651 51.6249 212.703 51.415L213.292 48.9731H213.907L213.384 51.1387C213.333 51.3597 213.277 51.5917 213.219 51.8385C213.16 52.0816 213.126 52.3136 213.126 52.5346C213.126 52.6598 213.141 52.7777 213.171 52.8845C213.2 52.9913 213.248 53.087 213.318 53.1681C213.388 53.2491 213.48 53.3154 213.594 53.3596C213.708 53.4038 213.856 53.4259 214.032 53.4259C214.338 53.4259 214.603 53.3669 214.835 53.2454C215.067 53.1239 215.285 52.9508 215.487 52.7224C215.487 52.553 215.513 52.3541 215.565 52.1331C215.616 51.9122 215.664 51.7133 215.708 51.5365L216.345 48.9731H216.96L216.209 52.0116C216.172 52.17 216.139 52.3173 216.113 52.4573C216.088 52.5972 216.077 52.7298 216.077 52.855C216.077 53.0244 216.091 53.1865 216.124 53.3412C216.158 53.4922 216.213 53.6616 216.294 53.8457L215.66 53.9415C215.623 53.8642 215.59 53.7794 215.561 53.68C215.531 53.5806 215.513 53.4811 215.498 53.3817C215.277 53.5953 215.042 53.7537 214.791 53.8531C214.541 53.9525 214.264 54.0004 213.959 54.0004H213.955Z" fill="#353434"/>
<path d="M218.298 53.109C218.533 53.2342 218.736 53.3226 218.916 53.3668C219.097 53.411 219.292 53.4331 219.513 53.4331C219.671 53.4331 219.822 53.4147 219.97 53.3816C220.117 53.3484 220.242 53.2932 220.349 53.2269C220.456 53.1569 220.541 53.0648 220.607 52.9506C220.673 52.8365 220.703 52.7039 220.703 52.5529C220.703 52.3871 220.658 52.2509 220.566 52.1441C220.474 52.0373 220.36 51.9452 220.224 51.8642C220.088 51.7868 219.94 51.7095 219.782 51.6321C219.623 51.5548 219.476 51.4664 219.34 51.367C219.204 51.2675 219.089 51.1386 218.997 50.9876C218.905 50.8366 218.861 50.6377 218.861 50.3983C218.861 50.1258 218.913 49.8938 219.012 49.6986C219.112 49.5034 219.248 49.3487 219.421 49.2235C219.59 49.0982 219.789 49.0098 220.01 48.9509C220.231 48.8957 220.46 48.8662 220.695 48.8662C220.898 48.8662 221.1 48.8846 221.299 48.9178C221.498 48.9509 221.69 49.0062 221.874 49.0725L221.627 49.6249C221.494 49.5697 221.343 49.5218 221.17 49.4886C221.001 49.4555 220.82 49.4371 220.64 49.4371C220.489 49.4371 220.342 49.4518 220.198 49.485C220.054 49.5181 219.929 49.5697 219.822 49.6433C219.716 49.717 219.627 49.8091 219.561 49.9195C219.495 50.03 219.461 50.1663 219.461 50.3247C219.461 50.483 219.506 50.6267 219.598 50.7335C219.69 50.8403 219.8 50.9361 219.937 51.0171C220.069 51.0981 220.216 51.1754 220.379 51.2491C220.541 51.3228 220.688 51.4075 220.82 51.5106C220.953 51.6137 221.067 51.7353 221.159 51.8752C221.251 52.0188 221.296 52.1993 221.296 52.4203C221.296 52.7002 221.244 52.9396 221.137 53.1422C221.034 53.3447 220.894 53.5105 220.725 53.6357C220.555 53.7609 220.356 53.8567 220.135 53.9156C219.914 53.9745 219.686 54.0077 219.45 54.0077C219.204 54.0077 218.957 53.9819 218.71 53.9266C218.463 53.8714 218.239 53.7904 218.036 53.6762L218.301 53.1164L218.298 53.109Z" fill="#353434"/>
<path d="M224.658 47.5331L225.303 47.4189L224.938 48.9769H226.669L226.544 49.5072H224.798L224.22 51.9085C224.187 52.0227 224.161 52.1442 224.139 52.2731C224.117 52.402 224.106 52.5309 224.106 52.6562C224.106 52.9397 224.176 53.1386 224.316 53.2528C224.456 53.367 224.629 53.4222 224.839 53.4222C225.048 53.4222 225.218 53.4001 225.369 53.3559C225.52 53.3117 225.675 53.2528 225.84 53.1755L225.899 53.7353C225.73 53.8052 225.535 53.8642 225.325 53.9157C225.111 53.9673 224.901 53.9931 224.691 53.9931C224.526 53.9931 224.371 53.9747 224.223 53.9342C224.076 53.8973 223.947 53.8347 223.837 53.7426C223.726 53.6542 223.638 53.5364 223.572 53.3928C223.505 53.2491 223.472 53.065 223.472 52.8403C223.472 52.5678 223.516 52.2547 223.605 51.9011L224.658 47.5221V47.5331Z" fill="#353434"/>
<path d="M232.138 50.1259C232.138 50.4794 232.05 50.7704 231.877 50.9914C231.704 51.2124 231.461 51.3891 231.144 51.518C230.831 51.6469 230.455 51.7427 230.013 51.798C229.575 51.8532 229.085 51.8974 228.547 51.9195V52.1184C228.547 52.3025 228.566 52.4719 228.603 52.6303C228.639 52.7887 228.709 52.9249 228.813 53.0428C228.912 53.1607 229.056 53.2527 229.236 53.3227C229.417 53.3927 229.649 53.4258 229.936 53.4258C230.157 53.4258 230.381 53.3927 230.606 53.3301C230.831 53.2675 231.044 53.1717 231.247 53.0465L231.313 53.6173C231.1 53.7389 230.86 53.831 230.602 53.8973C230.341 53.9636 230.079 53.9967 229.814 53.9967C229.464 53.9967 229.173 53.9525 228.934 53.8641C228.698 53.7757 228.503 53.6505 228.356 53.4921C228.209 53.3338 228.102 53.1422 228.039 52.9213C227.976 52.7003 227.943 52.4572 227.943 52.1884C227.943 51.7832 228.006 51.3818 228.128 50.9803C228.249 50.5826 228.433 50.2253 228.673 49.9086C228.912 49.5918 229.21 49.3377 229.56 49.1425C229.91 48.9473 230.312 48.8516 230.761 48.8516C231.21 48.8516 231.545 48.9657 231.781 49.1978C232.017 49.4298 232.138 49.7355 232.138 50.1148V50.1259ZM230.702 49.4224C230.448 49.4224 230.212 49.474 229.991 49.5808C229.77 49.6839 229.571 49.8276 229.394 50.0043C229.218 50.1811 229.063 50.3874 228.934 50.6231C228.805 50.8588 228.709 51.1056 228.643 51.3634C229.181 51.3523 229.634 51.3155 230.002 51.2602C230.37 51.2013 230.665 51.124 230.89 51.0245C231.114 50.9214 231.273 50.7999 231.369 50.6599C231.464 50.52 231.512 50.3542 231.512 50.1701C231.512 49.9233 231.438 49.7392 231.287 49.6139C231.14 49.4924 230.945 49.4298 230.702 49.4298V49.4224Z" fill="#353434"/>
<path d="M236.782 53.9415C236.749 53.8789 236.72 53.7942 236.687 53.6911C236.654 53.588 236.631 53.4849 236.62 53.3817C236.565 53.4443 236.488 53.5143 236.399 53.5843C236.307 53.658 236.201 53.7243 236.072 53.7832C235.943 53.8421 235.803 53.8937 235.644 53.9342C235.486 53.9747 235.313 53.9968 235.121 53.9968C234.849 53.9968 234.617 53.9489 234.425 53.8495C234.234 53.75 234.075 53.6211 233.95 53.4554C233.829 53.2897 233.737 53.0945 233.681 52.8698C233.626 52.6451 233.597 52.4094 233.597 52.1627C233.597 51.7649 233.663 51.3671 233.792 50.9767C233.921 50.5827 234.12 50.2328 234.389 49.916C234.657 49.603 234.996 49.3489 235.405 49.15C235.814 48.9548 236.3 48.8553 236.856 48.8553C237.059 48.8553 237.265 48.8738 237.471 48.9106L238.016 46.6235L238.664 46.5093L237.298 52.1774C237.265 52.2916 237.243 52.4021 237.228 52.5089C237.213 52.6157 237.206 52.7225 237.206 52.8219C237.206 53.0061 237.221 53.1792 237.254 53.3449C237.287 53.5106 237.342 53.6727 237.423 53.8384L236.782 53.9342V53.9415ZM237.339 49.4814C237.25 49.4704 237.154 49.4594 237.044 49.4483C236.937 49.4373 236.838 49.4336 236.749 49.4336C236.307 49.4336 235.928 49.5146 235.608 49.6766C235.291 49.8387 235.026 50.0486 234.823 50.3028C234.621 50.5569 234.466 50.8442 234.37 51.1572C234.271 51.4703 234.223 51.7796 234.223 52.0816C234.223 52.2732 234.241 52.4463 234.274 52.6083C234.308 52.7704 234.363 52.914 234.44 53.0355C234.517 53.1571 234.613 53.2565 234.735 53.3265C234.856 53.3965 235 53.4296 235.169 53.4296C235.328 53.4296 235.475 53.4075 235.619 53.3633C235.762 53.3191 235.895 53.2639 236.016 53.1976C236.138 53.1313 236.252 53.0576 236.352 52.9729C236.451 52.8919 236.539 52.8109 236.606 52.7372C236.606 52.5715 236.628 52.3873 236.672 52.1811C236.716 51.9748 236.768 51.7612 236.823 51.5402L237.331 49.4778L237.339 49.4814Z" fill="#353434"/>
<path d="M246.167 53.9415C246.134 53.8789 246.104 53.7942 246.071 53.6911C246.038 53.588 246.016 53.4849 246.005 53.3817C245.949 53.4443 245.872 53.5143 245.784 53.5843C245.692 53.658 245.585 53.7243 245.456 53.7832C245.327 53.8421 245.187 53.8937 245.029 53.9342C244.87 53.9747 244.697 53.9968 244.506 53.9968C244.233 53.9968 244.001 53.9489 243.81 53.8495C243.618 53.75 243.46 53.6211 243.335 53.4554C243.213 53.2897 243.121 53.0945 243.066 52.8698C243.01 52.6451 242.981 52.4094 242.981 52.1627C242.981 51.7649 243.047 51.3671 243.176 50.9767C243.305 50.5827 243.504 50.2328 243.773 49.916C244.042 49.603 244.381 49.3489 244.789 49.15C245.198 48.9548 245.684 48.8553 246.24 48.8553C246.443 48.8553 246.649 48.8738 246.855 48.9106L247.401 46.6235L248.049 46.5093L246.682 52.1774C246.649 52.2916 246.627 52.4021 246.612 52.5089C246.598 52.6157 246.59 52.7225 246.59 52.8219C246.59 53.0061 246.605 53.1792 246.638 53.3449C246.671 53.5106 246.727 53.6727 246.808 53.8384L246.167 53.9342V53.9415ZM246.719 49.4814C246.631 49.4704 246.535 49.4594 246.425 49.4483C246.318 49.4373 246.218 49.4336 246.13 49.4336C245.688 49.4336 245.309 49.5146 244.988 49.6766C244.671 49.8387 244.406 50.0486 244.204 50.3028C244.001 50.5569 243.846 50.8442 243.751 51.1572C243.651 51.4703 243.603 51.7796 243.603 52.0816C243.603 52.2732 243.622 52.4463 243.655 52.6083C243.688 52.7704 243.743 52.914 243.821 53.0355C243.898 53.1571 243.994 53.2565 244.115 53.3265C244.237 53.3965 244.38 53.4296 244.55 53.4296C244.708 53.4296 244.856 53.4075 244.999 53.3633C245.143 53.3191 245.275 53.2639 245.397 53.1976C245.519 53.1313 245.633 53.0576 245.732 52.9729C245.832 52.8919 245.92 52.8109 245.986 52.7372C245.986 52.5715 246.008 52.3873 246.053 52.1811C246.097 51.9748 246.148 51.7612 246.204 51.5402L246.712 49.4778L246.719 49.4814Z" fill="#353434"/>
<path d="M253.503 50.5164C253.503 51.1131 253.418 51.6287 253.253 52.0633C253.083 52.5015 252.87 52.8625 252.608 53.1498C252.347 53.437 252.056 53.6506 251.735 53.7906C251.415 53.9305 251.102 54.0005 250.789 54.0005C250.568 54.0005 250.358 53.9674 250.159 53.8974C249.96 53.8274 249.783 53.7243 249.632 53.5843C249.481 53.4444 249.36 53.2713 249.271 53.065C249.183 52.8588 249.139 52.6194 249.139 52.3469C249.139 51.7502 249.223 51.2346 249.389 50.8C249.559 50.3617 249.772 50.0008 250.034 49.7172C250.295 49.4336 250.586 49.22 250.907 49.08C251.227 48.9401 251.54 48.8701 251.853 48.8701C252.074 48.8701 252.284 48.9033 252.483 48.9732C252.682 49.0432 252.858 49.1463 253.009 49.2863C253.16 49.4262 253.282 49.5993 253.37 49.8056C253.459 50.0118 253.503 50.2476 253.503 50.5127V50.5164ZM249.761 52.31C249.761 52.682 249.864 52.9656 250.074 53.1534C250.284 53.3413 250.535 53.437 250.825 53.437C251.054 53.437 251.286 53.3781 251.529 53.2602C251.768 53.1424 251.989 52.9656 252.188 52.7299C252.387 52.4942 252.553 52.1922 252.682 51.8312C252.811 51.4703 252.877 51.0468 252.877 50.5569C252.877 50.1849 252.774 49.9014 252.564 49.7135C252.354 49.5257 252.103 49.4299 251.813 49.4299C251.584 49.4299 251.352 49.4889 251.109 49.6067C250.87 49.7246 250.649 49.9014 250.45 50.1371C250.251 50.3728 250.085 50.6748 249.956 51.0357C249.827 51.3966 249.761 51.8202 249.761 52.31Z" fill="#353434"/>
<path d="M258.357 53.6507C258.232 53.7317 258.037 53.8127 257.772 53.8864C257.51 53.9637 257.216 54.0006 256.895 54.0006C256.321 54.0006 255.886 53.8348 255.595 53.507C255.304 53.1793 255.157 52.7263 255.157 52.148C255.157 51.7171 255.223 51.3046 255.356 50.9069C255.488 50.5128 255.683 50.1629 255.941 49.8572C256.199 49.5515 256.512 49.3121 256.888 49.1317C257.26 48.9512 257.687 48.8628 258.162 48.8628C258.49 48.8628 258.818 48.918 259.142 49.0248L258.884 49.5847C258.737 49.5294 258.593 49.4889 258.453 49.4668C258.309 49.4447 258.173 49.4337 258.041 49.4337C257.705 49.4337 257.4 49.5036 257.123 49.6473C256.847 49.7909 256.612 49.9824 256.416 50.2255C256.221 50.4686 256.066 50.7522 255.96 51.0689C255.853 51.3893 255.798 51.7245 255.798 52.0817C255.798 52.4979 255.893 52.8294 256.089 53.0688C256.284 53.3082 256.589 53.4297 257.013 53.4297C257.146 53.4297 257.282 53.415 257.418 53.3929C257.554 53.3671 257.68 53.3376 257.794 53.3008C257.908 53.2676 258.007 53.2308 258.099 53.1903C258.188 53.1535 258.254 53.1166 258.298 53.0872L258.365 53.647L258.357 53.6507Z" fill="#353434"/>
<path d="M261.934 54.0004C261.661 54.0004 261.433 53.9673 261.249 53.8973C261.064 53.8273 260.921 53.7316 260.81 53.6063C260.704 53.4848 260.626 53.3375 260.578 53.1681C260.53 52.9987 260.508 52.8182 260.508 52.623C260.508 52.4388 260.523 52.2436 260.556 52.0374C260.589 51.8311 260.63 51.6249 260.681 51.415L261.271 48.9731H261.886L261.363 51.1387C261.311 51.3597 261.256 51.5917 261.197 51.8385C261.138 52.0816 261.105 52.3136 261.105 52.5346C261.105 52.6598 261.12 52.7777 261.149 52.8845C261.179 52.9913 261.226 53.087 261.296 53.1681C261.366 53.2491 261.459 53.3154 261.573 53.3596C261.687 53.4038 261.834 53.4259 262.011 53.4259C262.317 53.4259 262.582 53.3669 262.814 53.2454C263.046 53.1239 263.263 52.9508 263.466 52.7224C263.466 52.553 263.492 52.3541 263.543 52.1331C263.595 51.9122 263.643 51.7133 263.687 51.5365L264.324 48.9731H264.939L264.188 52.0116C264.151 52.17 264.118 52.3173 264.092 52.4573C264.066 52.5972 264.055 52.7298 264.055 52.855C264.055 53.0244 264.07 53.1865 264.103 53.3412C264.136 53.4922 264.191 53.6616 264.272 53.8457L263.639 53.9415C263.602 53.8642 263.569 53.7794 263.539 53.68C263.51 53.5806 263.492 53.4811 263.477 53.3817C263.256 53.5953 263.02 53.7537 262.77 53.8531C262.519 53.9525 262.243 54.0004 261.937 54.0004H261.934Z" fill="#353434"/>
<path d="M267.48 49.1465C267.576 49.1134 267.683 49.0839 267.804 49.0508C267.926 49.0176 268.051 48.9918 268.184 48.9661C268.316 48.9403 268.452 48.9219 268.592 48.9034C268.732 48.8887 268.865 48.8813 268.99 48.8813C269.255 48.8813 269.498 48.9182 269.716 48.9918C269.933 49.0655 270.117 49.1944 270.261 49.3859C270.585 49.1944 270.865 49.0655 271.108 48.9918C271.351 48.9182 271.59 48.8813 271.822 48.8813C272.036 48.8813 272.238 48.9034 272.423 48.9513C272.607 48.9992 272.773 49.0802 272.912 49.1944C273.052 49.3086 273.163 49.4633 273.244 49.6585C273.325 49.8537 273.365 50.1041 273.365 50.4098C273.365 50.5755 273.354 50.7449 273.329 50.918C273.303 51.0911 273.27 51.2679 273.226 51.4447L272.636 53.8865H272.021L272.544 51.7025C272.596 51.4926 272.644 51.2827 272.688 51.0654C272.732 50.8517 272.754 50.6455 272.754 50.4466C272.754 50.2477 272.728 50.0857 272.677 49.9568C272.625 49.8279 272.555 49.7248 272.463 49.6474C272.371 49.5701 272.264 49.5185 272.146 49.489C272.025 49.4596 271.896 49.4448 271.756 49.4448C271.616 49.4448 271.45 49.4669 271.24 49.5148C271.027 49.5627 270.773 49.6806 270.478 49.8721C270.515 50.0378 270.533 50.2146 270.533 50.4024C270.533 50.5682 270.522 50.7376 270.496 50.9107C270.471 51.0838 270.437 51.2606 270.393 51.4373L269.804 53.8792H269.189L269.712 51.6952C269.764 51.4852 269.811 51.2753 269.856 51.058C269.9 50.8444 269.922 50.6381 269.922 50.4393C269.922 50.2404 269.896 50.0783 269.845 49.9494C269.793 49.8205 269.723 49.7174 269.631 49.64C269.539 49.5627 269.432 49.5111 269.311 49.4817C269.189 49.4522 269.06 49.4375 268.92 49.4375C268.78 49.4375 268.618 49.4485 268.452 49.4743C268.287 49.5001 268.136 49.5332 267.996 49.5701L266.961 53.8718H266.346L267.476 49.1318L267.48 49.1465Z" fill="#353434"/>
<path d="M279.509 50.1259C279.509 50.4794 279.42 50.7704 279.247 50.9914C279.074 51.2124 278.831 51.3891 278.514 51.518C278.201 51.6469 277.826 51.7427 277.384 51.798C276.946 51.8532 276.456 51.8974 275.918 51.9195V52.1184C275.918 52.3025 275.936 52.4719 275.973 52.6303C276.01 52.7887 276.08 52.9249 276.183 53.0428C276.283 53.1607 276.426 53.2527 276.607 53.3227C276.787 53.3927 277.019 53.4258 277.306 53.4258C277.527 53.4258 277.752 53.3927 277.977 53.3301C278.201 53.2675 278.415 53.1717 278.618 53.0465L278.684 53.6173C278.47 53.7389 278.231 53.831 277.973 53.8973C277.712 53.9636 277.45 53.9967 277.185 53.9967C276.835 53.9967 276.544 53.9525 276.305 53.8641C276.069 53.7757 275.874 53.6505 275.726 53.4921C275.579 53.3338 275.472 53.1422 275.41 52.9213C275.347 52.7003 275.314 52.4572 275.314 52.1884C275.314 51.7832 275.377 51.3818 275.498 50.9803C275.62 50.5826 275.804 50.2253 276.043 49.9086C276.283 49.5918 276.581 49.3377 276.931 49.1425C277.281 48.9473 277.682 48.8516 278.131 48.8516C278.581 48.8516 278.916 48.9657 279.152 49.1978C279.387 49.4298 279.509 49.7355 279.509 50.1148V50.1259ZM278.073 49.4224C277.818 49.4224 277.583 49.474 277.362 49.5808C277.141 49.6839 276.942 49.8276 276.765 50.0043C276.588 50.1811 276.434 50.3874 276.305 50.6231C276.176 50.8588 276.08 51.1056 276.014 51.3634C276.551 51.3523 277.004 51.3155 277.373 51.2602C277.741 51.2013 278.036 51.124 278.26 51.0245C278.485 50.9214 278.643 50.7999 278.739 50.6599C278.835 50.52 278.883 50.3542 278.883 50.1701C278.883 49.9233 278.809 49.7392 278.658 49.6139C278.511 49.4924 278.316 49.4298 278.073 49.4298V49.4224Z" fill="#353434"/>
<path d="M281.962 49.1465C282.208 49.0765 282.47 49.0139 282.75 48.9624C283.026 48.9071 283.302 48.8813 283.575 48.8813C283.803 48.8813 284.017 48.9034 284.219 48.9513C284.422 48.9992 284.599 49.0839 284.75 49.2018C284.901 49.3233 285.022 49.4817 285.11 49.6769C285.199 49.8721 285.243 50.1188 285.243 50.4098C285.243 50.5755 285.228 50.7449 285.206 50.918C285.18 51.0911 285.147 51.2679 285.103 51.4447L284.514 53.8865H283.899L284.422 51.7025C284.473 51.4926 284.518 51.2827 284.558 51.0654C284.599 50.8517 284.624 50.6455 284.628 50.4466C284.628 50.2514 284.599 50.0894 284.536 49.9641C284.477 49.8389 284.392 49.7358 284.289 49.6585C284.186 49.5811 284.065 49.5296 283.925 49.4964C283.785 49.4633 283.641 49.4485 283.486 49.4485C283.321 49.4485 283.155 49.4596 282.982 49.4854C282.812 49.5111 282.643 49.5443 282.477 49.5811L281.442 53.8828H280.827L281.958 49.1428L281.962 49.1465Z" fill="#353434"/>
<path d="M288.506 47.5331L289.151 47.4189L288.786 48.9769H290.517L290.392 49.5072H288.646L288.068 51.9085C288.035 52.0227 288.009 52.1442 287.987 52.2731C287.965 52.402 287.954 52.5309 287.954 52.6562C287.954 52.9397 288.024 53.1386 288.164 53.2528C288.304 53.367 288.477 53.4222 288.687 53.4222C288.897 53.4222 289.066 53.4001 289.217 53.3559C289.368 53.3117 289.523 53.2528 289.688 53.1755L289.747 53.7353C289.578 53.8052 289.383 53.8642 289.173 53.9157C288.959 53.9673 288.749 53.9931 288.539 53.9931C288.374 53.9931 288.219 53.9747 288.072 53.9342C287.924 53.8973 287.795 53.8347 287.685 53.7426C287.574 53.6542 287.486 53.5364 287.42 53.3928C287.353 53.2491 287.32 53.065 287.32 52.8403C287.32 52.5678 287.365 52.2547 287.453 51.9011L288.506 47.5221V47.5331Z" fill="#353434"/>
<path d="M291.721 53.109C291.957 53.2342 292.16 53.3226 292.34 53.3668C292.521 53.411 292.716 53.4331 292.937 53.4331C293.095 53.4331 293.246 53.4147 293.394 53.3816C293.541 53.3484 293.666 53.2932 293.773 53.2269C293.88 53.1569 293.964 53.0648 294.031 52.9506C294.097 52.8365 294.126 52.7039 294.126 52.5529C294.126 52.3871 294.082 52.2509 293.99 52.1441C293.898 52.0373 293.784 51.9452 293.648 51.8642C293.511 51.7868 293.364 51.7095 293.206 51.6321C293.047 51.5548 292.9 51.4664 292.764 51.367C292.627 51.2675 292.513 51.1386 292.421 50.9876C292.329 50.8366 292.285 50.6377 292.285 50.3983C292.285 50.1258 292.337 49.8938 292.436 49.6986C292.535 49.5034 292.672 49.3487 292.845 49.2235C293.014 49.0982 293.213 49.0098 293.434 48.9509C293.655 48.8957 293.883 48.8662 294.119 48.8662C294.322 48.8662 294.524 48.8846 294.723 48.9178C294.922 48.9509 295.113 49.0062 295.298 49.0725L295.051 49.6249C294.918 49.5697 294.767 49.5218 294.594 49.4886C294.425 49.4555 294.244 49.4371 294.064 49.4371C293.913 49.4371 293.766 49.4518 293.622 49.485C293.478 49.5181 293.353 49.5697 293.246 49.6433C293.139 49.717 293.051 49.8091 292.985 49.9195C292.918 50.03 292.885 50.1663 292.885 50.3247C292.885 50.483 292.929 50.6267 293.022 50.7335C293.114 50.8403 293.224 50.9361 293.36 51.0171C293.493 51.0981 293.64 51.1754 293.802 51.2491C293.964 51.3228 294.112 51.4075 294.244 51.5106C294.377 51.6137 294.491 51.7353 294.583 51.8752C294.675 52.0188 294.719 52.1993 294.719 52.4203C294.719 52.7002 294.668 52.9396 294.561 53.1422C294.458 53.3447 294.318 53.5105 294.149 53.6357C293.979 53.7609 293.78 53.8567 293.559 53.9156C293.338 53.9745 293.11 54.0077 292.874 54.0077C292.627 54.0077 292.381 53.9819 292.134 53.9266C291.887 53.8714 291.663 53.7904 291.46 53.6762L291.725 53.1164L291.721 53.109Z" fill="#353434"/>
<path d="M5.96621 6H36.2404C39.1647 6 41.5365 8.37184 41.5365 11.2961V51.9085C41.5365 55.3705 38.7301 58.1806 35.2644 58.1806H22.8822C20.956 58.1806 19.1366 57.2967 17.947 55.7793C12.8571 49.2862 7.76719 42.7967 2.6773 36.3036C1.48033 34.7789 0.82476 32.9005 0.810028 30.9633L0.670075 11.3366C0.647977 8.39763 3.02719 6 5.96621 6Z" fill="#003366"/>
<path d="M6.26807 17.3548V30.1495C6.26807 32.5435 8.209 34.4844 10.6029 34.4844H17.3465C18.3777 34.4844 19.2211 35.3131 19.2359 36.348L19.3906 47.9641C19.42 50.0524 21.1179 51.7282 23.2061 51.7282H32.9071C35.0138 51.7282 36.7227 50.0192 36.7227 47.9126V17.1965C36.7227 14.5668 34.5792 12.438 31.9495 12.4601C24.9556 12.5154 17.9652 12.5669 10.9712 12.6222C8.37105 12.6406 6.27175 14.7583 6.27175 17.3585" fill="#DD7200"/>
<path d="M31.7068 48.6786H24.7901C23.3317 48.6786 22.1494 47.4964 22.1494 46.0379V39.7989C22.1494 38.3404 23.3317 37.1582 24.7901 37.1582H31.7068C33.1652 37.1582 34.3475 38.3404 34.3475 39.7989V46.0379C34.3475 47.4964 33.1652 48.6786 31.7068 48.6786Z" fill="white"/>
<path d="M30.3142 19.5941H11.5678C11.0485 19.5941 10.6323 19.1742 10.6323 18.6586C10.6323 18.143 11.0522 17.7231 11.5678 17.7231H30.3142C30.8335 17.7231 31.2497 18.143 31.2497 18.6586C31.2497 19.1742 30.8298 19.5941 30.3142 19.5941Z" fill="white"/>
<path d="M30.3142 23.0301H11.5678C11.0485 23.0301 10.6323 22.6103 10.6323 22.0947C10.6323 21.579 11.0522 21.1592 11.5678 21.1592H30.3142C30.8335 21.1592 31.2497 21.579 31.2497 22.0947C31.2497 22.6103 30.8298 23.0301 30.3142 23.0301Z" fill="white"/>
<path d="M23.7548 26.4664H11.5678C11.0522 26.4664 10.6323 26.0466 10.6323 25.531C10.6323 25.0153 11.0522 24.5918 11.5678 24.5918H23.7548C24.2741 24.5918 24.6903 25.0117 24.6903 25.531C24.6903 26.0503 24.2704 26.4664 23.7548 26.4664Z" fill="white"/>
<path d="M17.9725 29.9025H11.5678C11.0485 29.9025 10.6323 29.4826 10.6323 28.967C10.6323 28.4514 11.0522 28.0278 11.5678 28.0278H17.9725C18.4918 28.0278 18.908 28.4477 18.908 28.967C18.908 29.4863 18.4881 29.9025 17.9725 29.9025Z" fill="white"/>
<path d="M31.0472 40.9368C31.3271 41.2167 31.3308 41.6697 31.0546 41.9496C30.2922 42.7341 28.8264 44.2147 27.9977 45.0397C27.6736 45.3638 27.1433 45.3638 26.8191 45.0397C26.3293 44.5535 25.8395 44.0637 25.3533 43.5775C25.0697 43.2939 25.0697 42.8372 25.3533 42.5536C25.6332 42.2701 26.0973 42.2701 26.3772 42.5536L27.3016 43.4781C27.3569 43.5333 27.4453 43.5333 27.4968 43.4781C28.3402 42.6273 29.1799 41.7802 30.0197 40.9368C30.3033 40.6532 30.7599 40.6532 31.0435 40.9368" fill="#003366"/>
</g>
</g>
<defs>
<clipPath id="clip0_273_2728">
<rect width="295.66" height="64.03" fill="white" transform="translate(0.669922)"/>
</clipPath>
<clipPath id="clip1_273_2728">
<rect width="295" height="52.1806" fill="white" transform="translate(0.669922 6)"/>
</clipPath>
</defs>
</svg>
