<svg width="406" height="328" viewBox="0 0 406 328" fill="none" xmlns="http://www.w3.org/2000/svg">
<path d="M406 288.112H-34V288.332H406V288.112Z" fill="#EBEBEB"/>
<path d="M361.912 302.271H332.766V302.491H361.912V302.271Z" fill="#EBEBEB"/>
<path d="M257.474 304.665H249.827V304.885H257.474V304.665Z" fill="#EBEBEB"/>
<path d="M331.886 294.105H314.999V294.325H331.886V294.105Z" fill="#EBEBEB"/>
<path d="M50.1718 295.583H12.1646V295.803H50.1718V295.583Z" fill="#EBEBEB"/>
<path d="M63.5831 295.583H58.0127V295.803H63.5831V295.583Z" fill="#EBEBEB"/>
<path d="M164.132 299.297H81.6938V299.517H164.132V299.297Z" fill="#EBEBEB"/>
<path d="M174.56 248.864H4.641C3.30987 248.862 2.03405 248.331 1.09362 247.389C0.153188 246.447 -0.375002 245.17 -0.375 243.839V4.9808C-0.363412 3.6573 0.16989 2.39182 1.10907 1.45923C2.04825 0.526643 3.31745 0.00226722 4.641 0H174.56C175.893 0 177.171 0.529397 178.113 1.47173C179.056 2.41406 179.585 3.69214 179.585 5.0248V243.839C179.585 245.172 179.056 246.45 178.113 247.392C177.171 248.335 175.893 248.864 174.56 248.864ZM4.641 0.176001C3.36821 0.178332 2.14835 0.685577 1.24918 1.5864C0.350009 2.48722 -0.155002 3.70801 -0.155 4.9808V243.839C-0.155002 245.112 0.350009 246.333 1.24918 247.234C2.14835 248.134 3.36821 248.642 4.641 248.644H174.56C175.834 248.642 177.055 248.135 177.955 247.234C178.856 246.334 179.363 245.113 179.365 243.839V4.9808C179.363 3.7072 178.856 2.48643 177.955 1.58586C177.055 0.685291 175.834 0.178327 174.56 0.176001H4.641Z" fill="#EBEBEB"/>
<path d="M364.913 248.864H194.985C193.653 248.862 192.376 248.332 191.434 247.39C190.492 246.448 189.962 245.171 189.96 243.839V4.9808C189.974 3.6565 190.509 2.39103 191.45 1.45868C192.39 0.526336 193.66 0.0022425 194.985 0H364.913C366.235 0.00457996 367.502 0.529979 368.439 1.46232C369.376 2.39466 369.908 3.65882 369.92 4.9808V243.839C369.92 245.169 369.393 246.444 368.454 247.386C367.516 248.328 366.242 248.859 364.913 248.864ZM194.985 0.176001C193.711 0.178327 192.49 0.685291 191.59 1.58586C190.689 2.48643 190.182 3.7072 190.18 4.9808V243.839C190.182 245.113 190.689 246.334 191.59 247.234C192.49 248.135 193.711 248.642 194.985 248.644H364.913C366.186 248.642 367.407 248.135 368.308 247.234C369.208 246.334 369.715 245.113 369.718 243.839V4.9808C369.715 3.7072 369.208 2.48643 368.308 1.58586C367.407 0.685291 366.186 0.178327 364.913 0.176001H194.985Z" fill="#EBEBEB"/>
<path d="M298.878 232.892V245.388L304.158 249.225H279.518L287.385 246.303V233.763L298.878 232.892Z" fill="#E0E0E0"/>
<path d="M232.411 248.864V288.226H342.411V248.864H232.411ZM234.391 251.416H320.49V264.281H234.4L234.391 251.416Z" fill="#E0E0E0"/>
<path d="M232.411 248.864V288.226H323.139V248.864H232.411ZM234.391 251.416H320.49V264.281H234.4L234.391 251.416Z" fill="#EBEBEB"/>
<path d="M234.391 264.282H252.132V251.416H234.391V264.282Z" fill="#E0E0E0"/>
<path d="M298.534 264.282H320.49V257.849H298.534V264.282Z" fill="#E0E0E0"/>
<path d="M280.389 264.282H296.915V260.463H280.389V264.282Z" fill="#E0E0E0"/>
<path d="M260.826 264.282H276.569V256.467H260.826V264.282Z" fill="#E0E0E0"/>
<path d="M304.888 267.08L305.354 268.62H311.673L312.148 267.08H320.49V284.161H292.797V267.08H304.888Z" fill="#E0E0E0"/>
<path d="M271.976 267.08L272.451 268.62H278.769L279.244 267.08H291.327V284.161H263.633V267.08H271.976Z" fill="#E0E0E0"/>
<path d="M246.561 267.08L247.028 268.62H253.346L253.821 267.08H262.164V284.161H234.47V267.08H246.561Z" fill="#E0E0E0"/>
<path d="M248.497 240.363H330.329C332.044 240.363 333.435 238.972 333.435 237.257V190.274C333.435 188.558 332.044 187.167 330.329 187.167H248.497C246.782 187.167 245.391 188.558 245.391 190.274V237.257C245.391 238.972 246.782 240.363 248.497 240.363Z" fill="#E0E0E0"/>
<path d="M246.43 240.363H328.261C329.976 240.363 331.367 238.972 331.367 237.257V190.274C331.367 188.558 329.976 187.167 328.261 187.167H246.43C244.714 187.167 243.323 188.558 243.323 190.274V237.257C243.323 238.972 244.714 240.363 246.43 240.363Z" fill="#E6E6E6"/>
<path d="M328.78 237.776V189.746H245.911V237.776H328.78Z" fill="#F0F0F0"/>
<path d="M134.203 46.3232H29.8091V154.194H134.203V46.3232Z" fill="#EBEBEB"/>
<path d="M137.855 46.3232H33.4609V154.194H137.855V46.3232Z" fill="#F0F0F0"/>
<path d="M135.092 48.8843H36.0918V151.695H135.092V48.8843Z" fill="#E0E0E0"/>
<path d="M132.619 48.8843H36.0918V151.695H132.619V48.8843Z" fill="#F5F5F5"/>
<path d="M85.3545 48.8843H83.3921V151.695H85.3545V48.8843Z" fill="#EBEBEB"/>
<path d="M96.6006 48.8843L124.109 151.686H126.749L99.2406 48.8843H96.6006Z" fill="white"/>
<path d="M86.1906 47.2998H84.5098V153.665H86.1906V47.2998Z" fill="#F0F0F0"/>
<path d="M106.58 48.8843L132.619 146.177V92.6995L120.898 48.8843H106.58Z" fill="white"/>
<path d="M36.0918 58.2119V68.0767L58.4702 151.686H61.1102L36.0918 58.2119Z" fill="white"/>
<path d="M36.0918 78.1353V131.613L41.4598 151.686H55.7686L36.0918 78.1353Z" fill="white"/>
<path d="M317.604 52.4746H254.394V129.387H317.604V52.4746Z" fill="#E6E6E6"/>
<path d="M303.137 110.335L269.926 77.6866L305.856 71.7554L303.137 110.335Z" fill="#E0E0E0"/>
<path d="M270.727 102.599L269.081 77.563L294.091 83.7054L295.903 102.854L270.727 102.599Z" fill="#F0F0F0"/>
<path d="M310.58 74.5035C314.522 70.5617 314.522 64.1708 310.58 60.229C306.638 56.2872 300.247 56.2872 296.305 60.229C292.363 64.1708 292.363 70.5617 296.305 74.5035C300.247 78.4453 306.638 78.4453 310.58 74.5035Z" fill="#FAFAFA"/>
<path d="M274 111.522C274.002 110.552 273.715 109.603 273.178 108.796C272.64 107.988 271.874 107.359 270.978 106.987C270.082 106.615 269.096 106.517 268.144 106.706C267.193 106.894 266.318 107.361 265.632 108.047C264.946 108.733 264.479 109.608 264.291 110.559C264.102 111.511 264.199 112.497 264.572 113.393C264.944 114.289 265.573 115.055 266.381 115.593C267.188 116.131 268.137 116.417 269.107 116.415C270.404 116.413 271.647 115.896 272.564 114.979C273.481 114.062 273.998 112.819 274 111.522Z" fill="#E0E0E0"/>
<path d="M270.26 120.129L284.393 111.522L272.513 101.728L270.26 120.129Z" fill="#F5F5F5"/>
<path d="M286.962 123.675H289.743V62.2601H286.962V123.675Z" fill="#E0E0E0"/>
<path d="M260.325 120.956H263.924V62.26H260.325V120.956Z" fill="#EBEBEB"/>
<path d="M292.876 121.237H311.25V102.863H292.876V121.237Z" fill="#EBEBEB"/>
<path d="M82.952 249.541L71.3184 216.013C71.3184 216.013 87.44 227.973 87.352 214.72C87.264 201.467 79.9953 211.763 77.4872 206.861C74.9792 201.96 84.6417 202.013 81.2449 194.585C77.8481 187.158 68.212 198.572 66.5048 191.989C64.7976 185.407 62.1048 182.063 55.0648 182.653C55.0648 182.653 51.272 191.312 55.9448 197.569C60.6176 203.825 44.408 198.801 46.08 205.093C47.752 211.385 53.12 216.876 55.5048 212.449C57.8896 208.023 60.8904 216.506 56.8336 218.697C52.7768 220.889 62.1136 230.357 64.1992 225.385C65.6322 222.082 67.4016 218.936 69.4792 215.996L80.2064 251.873L82.952 249.541Z" fill="#EBEBEB"/>
<path d="M94.9463 249.841L108.058 228.395C108.058 228.395 95.0871 234.238 97.1639 225.078C99.2407 215.917 102.699 224.136 105.181 221.126C107.662 218.117 100.957 216.726 104.433 212.062C107.909 207.398 112.854 216.788 114.993 212.494C117.131 208.199 119.542 206.29 124.321 207.759C124.321 207.759 125.641 214.324 121.469 217.95C117.298 221.575 129.249 220.59 127.163 224.655C125.077 228.721 120.51 231.748 119.533 228.325C118.557 224.902 115.186 230.322 117.668 232.443C120.149 234.564 112.229 239.712 111.561 235.963C111.067 233.461 110.318 231.017 109.325 228.668L96.4863 251.874L94.9463 249.841Z" fill="#E6E6E6"/>
<path d="M86.1113 250.043L92.1129 215.503C92.1129 215.503 78.2881 229.733 76.2729 216.788C74.2577 203.843 82.9697 212.731 84.6417 207.548C86.3137 202.365 76.8889 203.966 79.0185 196.178C81.1481 188.39 92.3681 197.991 92.9841 191.303C93.6001 184.615 95.7121 180.919 102.664 180.382C102.664 180.382 107.742 188.214 104.195 195.061C100.649 201.907 115.635 194.436 115.019 200.834C114.403 207.231 110.03 213.444 107.011 209.502C103.993 205.559 102.4 214.324 106.703 215.802C111.006 217.281 103.386 228.017 100.587 223.502C98.6659 220.511 96.4393 217.727 93.9433 215.195L89.2001 251.874L86.1113 250.043Z" fill="#F5F5F5"/>
<path d="M78.6401 288.878H99.2497C99.9452 288.879 100.615 288.615 101.122 288.139C101.629 287.663 101.935 287.011 101.978 286.317L104.16 250.8C104.183 250.429 104.13 250.057 104.003 249.707C103.877 249.357 103.68 249.036 103.426 248.765C103.171 248.494 102.864 248.278 102.522 248.13C102.181 247.982 101.813 247.905 101.441 247.905H76.4489C76.0769 247.905 75.7089 247.982 75.3676 248.13C75.0263 248.278 74.7188 248.494 74.4641 248.765C74.2094 249.036 74.0129 249.357 73.8866 249.707C73.7603 250.057 73.7069 250.429 73.7297 250.8L75.9121 286.361C75.9654 287.047 76.2762 287.688 76.7821 288.155C77.2881 288.621 77.9518 288.88 78.6401 288.878Z" fill="#EBEBEB"/>
<path d="M74.0198 251.874H104.16C104.83 251.873 105.477 251.627 105.977 251.18C106.476 250.734 106.795 250.119 106.87 249.454C106.916 249.07 106.881 248.682 106.765 248.314C106.65 247.945 106.458 247.606 106.202 247.317C105.946 247.028 105.631 246.797 105.279 246.639C104.927 246.481 104.546 246.4 104.16 246.4H74.0198C73.6356 246.4 73.2557 246.481 72.9051 246.638C72.5544 246.795 72.2409 247.025 71.985 247.311C71.7291 247.598 71.5366 247.935 71.4202 248.301C71.3038 248.668 71.2661 249.054 71.3094 249.436C71.3811 250.105 71.6974 250.724 72.1977 251.174C72.698 251.624 73.347 251.873 74.0198 251.874Z" fill="#F5F5F5"/>
<path d="M186 327.853C280.233 327.853 356.623 323.393 356.623 317.891C356.623 312.39 280.233 307.93 186 307.93C91.7676 307.93 15.377 312.39 15.377 317.891C15.377 323.393 91.7676 327.853 186 327.853Z" fill="#F5F5F5"/>
<path d="M279.57 56.8746V304.568C279.57 305.081 279.468 305.588 279.27 306.061C279.072 306.534 278.782 306.962 278.417 307.322C278.052 307.681 277.619 307.965 277.143 308.155C276.667 308.346 276.158 308.44 275.645 308.431H142.554C142.09 308.439 141.629 308.352 141.199 308.178C140.769 308.004 140.378 307.745 140.049 307.416C139.721 307.088 139.462 306.697 139.288 306.267C139.113 305.837 139.027 305.376 139.034 304.911V56.5578C139.018 56.1468 139.083 55.7365 139.225 55.3506C139.368 54.9647 139.585 54.6107 139.864 54.309C140.144 54.0073 140.481 53.7638 140.855 53.5925C141.229 53.4211 141.633 53.3253 142.044 53.3106H173.68C174.168 53.3202 174.642 53.4752 175.042 53.7558C175.442 54.0364 175.749 54.4298 175.924 54.8858L177.376 58.4058C177.554 58.8599 177.864 59.2505 178.265 59.5279C178.666 59.8053 179.141 59.9569 179.629 59.9634H239.125C239.609 59.9597 240.081 59.8121 240.481 59.5394C240.88 59.2667 241.19 58.8813 241.369 58.4322L242.821 54.8506C242.996 54.3937 243.303 53.999 243.702 53.7169C244.102 53.4348 244.576 53.2781 245.065 53.2666H276.165C277.094 53.2965 277.973 53.6927 278.611 54.3686C279.249 55.0445 279.594 55.9454 279.57 56.8746Z" fill="#263238"/>
<path d="M279.579 69.8369H139.052V290.867H279.579V69.8369Z" fill="#C76700"/>
<path opacity="0.7" d="M279.579 69.8369H139.052V290.867H279.579V69.8369Z" fill="white"/>
<path opacity="0.6" d="M155.649 63.9673H157.47V61.5473H155.649V63.9673Z" fill="white"/>
<path opacity="0.6" d="M152.683 63.9673H154.505V60.7377H152.683V63.9673Z" fill="white"/>
<path opacity="0.6" d="M149.717 63.9673H151.539V59.9281H149.717V63.9673Z" fill="white"/>
<path opacity="0.6" d="M146.752 63.9673H148.574V59.1185H146.752V63.9673Z" fill="white"/>
<path opacity="0.6" d="M263.29 60.6582H262.217V63.0782H263.29V60.6582Z" fill="white"/>
<path opacity="0.6" d="M264.029 63.9673H272.618V59.7697H264.029V63.9673Z" fill="white"/>
<path d="M202.359 91.7842H248.603C248.741 91.7972 248.88 91.7813 249.011 91.7375C249.143 91.6936 249.263 91.6228 249.366 91.5296C249.468 91.4364 249.55 91.3229 249.606 91.1962C249.662 91.0696 249.691 90.9327 249.691 90.7942C249.691 90.6557 249.662 90.5188 249.606 90.3922C249.55 90.2655 249.468 90.152 249.366 90.0588C249.263 89.9656 249.143 89.8948 249.011 89.8509C248.88 89.8071 248.741 89.7912 248.603 89.8042H202.359C202.112 89.8275 201.884 89.9418 201.717 90.1249C201.55 90.308 201.458 90.5467 201.458 90.7942C201.458 91.0418 201.55 91.2804 201.717 91.4635C201.884 91.6466 202.112 91.7609 202.359 91.7842Z" fill="#263238"/>
<path d="M259.128 95.4536H202.104C202.002 95.4424 201.899 95.4528 201.801 95.4841C201.703 95.5155 201.613 95.5671 201.537 95.6356C201.46 95.7041 201.399 95.7879 201.357 95.8817C201.315 95.9754 201.293 96.0769 201.293 96.1796C201.293 96.2823 201.315 96.3838 201.357 96.4776C201.399 96.5713 201.46 96.6551 201.537 96.7237C201.613 96.7922 201.703 96.8438 201.801 96.8751C201.899 96.9065 202.002 96.9169 202.104 96.9056H259.128C259.307 96.8859 259.472 96.8009 259.592 96.667C259.712 96.533 259.778 96.3595 259.778 96.1796C259.778 95.9998 259.712 95.8262 259.592 95.6923C259.472 95.5583 259.307 95.4733 259.128 95.4536Z" fill="#263238"/>
<path d="M242.399 99.6162H202.104C202.002 99.605 201.899 99.6154 201.801 99.6467C201.703 99.6781 201.613 99.7297 201.537 99.7982C201.46 99.8667 201.399 99.9506 201.357 100.044C201.315 100.138 201.293 100.24 201.293 100.342C201.293 100.445 201.315 100.546 201.357 100.64C201.399 100.734 201.46 100.818 201.537 100.886C201.613 100.955 201.703 101.006 201.801 101.038C201.899 101.069 202.002 101.079 202.104 101.068H242.399C242.578 101.049 242.743 100.964 242.863 100.83C242.983 100.696 243.049 100.522 243.049 100.342C243.049 100.162 242.983 99.9888 242.863 99.8549C242.743 99.7209 242.578 99.6359 242.399 99.6162Z" fill="#263238"/>
<path d="M277.899 126.544H140.724V263.718H277.899V126.544Z" fill="#C76700"/>
<path d="M273.481 278.555L269.618 275.22L265.746 278.555V269.386H273.481V278.555Z" fill="#C76700"/>
<path d="M259.524 269.386H253.698C253.315 269.386 252.948 269.538 252.678 269.808C252.407 270.079 252.255 270.446 252.255 270.829V274.807C252.255 275.189 252.407 275.556 252.678 275.827C252.948 276.098 253.315 276.25 253.698 276.25H255.678V278.555L257.183 276.25H259.524C259.714 276.251 259.902 276.214 260.077 276.142C260.253 276.07 260.413 275.964 260.547 275.83C260.681 275.695 260.787 275.536 260.859 275.36C260.932 275.185 260.968 274.996 260.967 274.807V270.829C260.968 270.639 260.932 270.451 260.859 270.275C260.787 270.1 260.681 269.94 260.547 269.806C260.413 269.672 260.253 269.565 260.077 269.493C259.902 269.421 259.714 269.385 259.524 269.386Z" fill="#C76700"/>
<path d="M247.846 270.477C246.773 268.717 244.696 269.377 243.622 270.741C242.558 269.368 240.49 268.673 239.39 270.433C237.55 273.39 241.299 276.162 243.077 277.253L243.578 277.561L244.089 277.253C245.84 276.188 249.659 273.46 247.846 270.477Z" fill="#C76700"/>
<g opacity="0.3">
<path opacity="0.7" d="M249.888 138.09H255.08L252.484 144.822L249.888 138.09Z" fill="white"/>
<path opacity="0.7" d="M266.617 171.6L268.192 176.546L260.994 176.106L266.617 171.6Z" fill="white"/>
<path d="M264.593 149.899L262.129 155.945L269.618 158.559V153.666L264.593 149.899Z" fill="white"/>
<path d="M167.494 136.47H171.304L167.494 141.46V136.47Z" fill="white"/>
<path d="M153.167 161.067L157.479 160.081L158.685 163.786L153.713 165.519L153.167 161.067Z" fill="white"/>
<path d="M196.798 141.46C197.726 141.46 198.478 140.707 198.478 139.779C198.478 138.851 197.726 138.098 196.798 138.098C195.869 138.098 195.117 138.851 195.117 139.779C195.117 140.707 195.869 141.46 196.798 141.46Z" fill="white"/>
<path d="M172.307 252.481C172.307 253.141 172.111 253.786 171.744 254.335C171.378 254.883 170.856 255.311 170.246 255.563C169.636 255.815 168.965 255.881 168.318 255.751C167.671 255.622 167.077 255.303 166.61 254.836C166.144 254.369 165.827 253.774 165.7 253.126C165.572 252.478 165.639 251.808 165.893 251.198C166.147 250.589 166.576 250.069 167.125 249.703C167.675 249.338 168.321 249.144 168.981 249.146C169.418 249.146 169.852 249.232 170.256 249.4C170.66 249.567 171.027 249.813 171.336 250.123C171.645 250.433 171.89 250.8 172.056 251.205C172.223 251.61 172.308 252.043 172.307 252.481Z" fill="white"/>
<path d="M156.247 223.502L157.479 225.588L151.522 228.14L150.167 226.75L156.247 223.502Z" fill="white"/>
<path d="M195.117 257.647L193.955 254.699H198.487L195.117 257.647Z" fill="white"/>
<path d="M243.262 254.698L243.614 251.416L249.827 253.053V257.849L243.262 254.698Z" fill="white"/>
<path d="M256.611 237.776H262.164L259.392 241.058L256.611 237.776Z" fill="white"/>
<path d="M265.746 204.001L264.593 210.971L265.869 212.133L267.066 204.001H265.746Z" fill="white"/>
<path d="M146.603 183.585L151.522 187.158L148.002 189.745L146.603 183.585Z" fill="white"/>
<path d="M168.426 155.302C168.733 155.302 168.981 155.054 168.981 154.748C168.981 154.442 168.733 154.193 168.426 154.193C168.12 154.193 167.872 154.442 167.872 154.748C167.872 155.054 168.12 155.302 168.426 155.302Z" fill="white"/>
<path d="M239.671 148.694C240.099 148.694 240.446 148.347 240.446 147.919C240.446 147.492 240.099 147.145 239.671 147.145C239.244 147.145 238.897 147.492 238.897 147.919C238.897 148.347 239.244 148.694 239.671 148.694Z" fill="white"/>
<path d="M218.886 254.065C218.886 254.23 218.82 254.389 218.703 254.507C218.586 254.624 218.427 254.69 218.261 254.69C218.095 254.69 217.936 254.624 217.819 254.507C217.702 254.389 217.636 254.23 217.636 254.065C217.636 253.899 217.702 253.74 217.819 253.623C217.936 253.506 218.095 253.44 218.261 253.44C218.427 253.44 218.586 253.506 218.703 253.623C218.82 253.74 218.886 253.899 218.886 254.065Z" fill="white"/>
<path d="M226.216 133.452L232.411 132.519V135.537L226.216 136.47V133.452Z" fill="white"/>
<path d="M267.065 136.47H269.098L268.077 138.961L267.065 136.47Z" fill="white"/>
<path d="M150.167 139.779H153.167L151.663 141.46L150.167 139.779Z" fill="white"/>
<path d="M263.924 257.646L263.633 251.874L268.077 253.44L263.924 257.646Z" fill="white"/>
<path d="M268.192 224.427L265.869 222.57V224.427L268.192 225.826V224.427Z" fill="white"/>
<path d="M149.057 205.858L151.662 208.067L150.36 210.038L146.91 207.275L149.057 205.858Z" fill="white"/>
<path d="M146.911 154.193H150.167L146.603 155.302L146.911 154.193Z" fill="white"/>
</g>
<path d="M203.661 148.922L209.549 143.387L215.374 148.975L222.449 145.077L226.709 151.941L234.532 149.934L236.943 157.634H245.021L245.453 165.695L253.276 167.702L251.674 175.622L258.758 179.511L255.247 186.78L261.134 192.306L255.925 198.475L260.254 205.295L253.672 209.977L256.171 217.65L248.638 220.546L249.149 228.606L241.123 229.539L239.618 237.477L231.61 236.377L228.178 243.69L220.698 240.636L215.55 246.866L209.065 242.053L202.535 246.805L197.449 240.53L189.942 243.505L186.581 236.166L178.573 237.178L177.138 229.231L169.121 228.219L169.711 220.167L162.205 217.202L164.774 209.546L158.236 204.802L162.636 198.026L157.479 191.805L163.428 186.34L159.987 179.027L167.106 175.208L165.584 167.279L173.425 165.352L173.926 157.291L182.005 157.37L184.495 149.688L192.301 151.774L196.621 144.954L203.661 148.922Z" fill="#C76700"/>
<path opacity="0.4" d="M256.805 200.235L262.015 194.075L256.127 188.549L259.647 181.28L252.563 177.391L254.165 169.471L246.342 167.464L245.911 159.403H237.832L235.421 151.703L227.598 153.71L223.339 146.846L216.299 150.744L210.473 145.156L204.586 150.691L197.546 146.723L193.225 153.551L185.419 151.457L182.929 159.139L174.851 159.06L174.349 167.121L166.508 169.048L168.031 176.968L160.911 180.787L164.352 188.1L158.359 193.6L163.516 199.822L159.116 206.598L165.655 211.341L163.085 218.997L170.591 221.963L170.002 230.015L178.019 231.027L179.444 238.947L187.461 237.935L190.823 245.274L198.329 242.299L203.415 248.574L209.945 243.822L216.431 248.635L221.579 242.405L229.059 245.459L232.491 238.146L240.49 239.246L242.003 231.326L250.029 230.393L249.51 222.332L257.051 219.437L254.552 211.755L261.135 207.082L256.805 200.235ZM255.186 205.92L249.369 210.056L251.578 216.841L244.916 219.393L245.374 226.512L238.281 227.339L236.952 234.379L229.912 233.411L226.876 239.871L220.276 237.178L215.727 242.669L209.998 238.419L204.234 242.616L199.746 237.072L193.111 239.712L190.145 233.227L183.061 234.107L181.803 227.067L174.763 226.187L175.291 219.076L168.655 216.436L170.926 209.678L165.153 205.489L169.043 199.505L164.484 194.014L169.764 189.183L166.64 182.688L172.932 179.318L171.586 172.278L178.52 170.579L178.96 163.46L186.088 163.531L188.288 156.746L195.179 158.594L198.998 152.566L205.219 156.086L210.411 151.193L215.559 156.13L221.807 152.689L225.574 158.752L232.482 156.992L234.611 163.803H241.748L242.127 170.931L249.035 172.691L247.627 179.679L253.875 183.111L250.777 189.535L255.978 194.419L251.375 199.866L255.186 205.92Z" fill="black"/>
<path opacity="0.4" d="M203.661 148.922L209.549 143.387L215.374 148.975L222.449 145.077L226.709 151.941L234.532 149.934L236.943 157.634H245.021L245.453 165.695L253.276 167.702L251.674 175.622L258.758 179.511L255.247 186.78L261.134 192.306L255.925 198.475L260.254 205.295L253.672 209.977L256.171 217.65L248.638 220.546L249.149 228.606L241.123 229.539L239.618 237.477L231.61 236.377L228.178 243.69L220.698 240.636L215.55 246.866L209.065 242.053L202.535 246.805L197.449 240.53L189.942 243.505L186.581 236.166L178.573 237.178L177.138 229.231L169.121 228.219L169.711 220.167L162.205 217.202L164.774 209.546L158.236 204.802L162.636 198.026L157.479 191.805L163.428 186.34L159.987 179.027L167.106 175.208L165.584 167.279L173.425 165.352L173.926 157.291L182.005 157.37L184.495 149.688L192.301 151.774L196.621 144.954L203.661 148.922Z" fill="black"/>
<path d="M255.925 198.475L261.134 192.315L255.247 186.789L258.767 179.52L251.683 175.63L253.285 167.71L245.461 165.704L245.03 157.643H236.952L234.541 149.943L226.717 151.95L222.458 145.086L215.418 148.984L209.593 143.396L203.705 148.931L196.665 144.962L192.345 151.791L184.539 149.697L182.049 157.379L173.97 157.3L173.469 165.361L165.628 167.288L167.15 175.208L160.031 179.027L163.472 186.34L157.479 191.84L162.636 198.062L158.236 204.838L164.774 209.581L162.205 217.237L169.711 220.202L169.121 228.254L177.138 229.266L178.564 237.186L186.581 236.174L189.942 243.514L197.449 240.539L202.535 246.814L209.065 242.062L215.55 246.875L220.698 240.645L228.178 243.698L231.61 236.386L239.609 237.486L241.123 229.566L249.149 228.633L248.629 220.572L256.171 217.677L253.672 209.994L260.254 205.322L255.925 198.475ZM254.305 204.16L248.489 208.296L250.697 215.081L244.036 217.633L244.493 224.752L237.401 225.579L236.072 232.619L229.032 231.651L225.996 238.11L219.396 235.418L214.846 240.909L209.117 236.658L203.353 240.856L198.865 235.312L192.23 237.952L189.265 231.466L182.181 232.346L180.922 225.306L173.882 224.426L174.41 217.316L167.775 214.676L170.045 207.918L164.273 203.729L168.162 197.745L163.604 192.254L168.884 187.422L165.76 180.928L172.052 177.558L170.705 170.518L177.64 168.819L178.08 161.7L185.208 161.77L187.408 154.986L194.298 156.834L198.117 150.806L204.339 154.326L209.531 149.433L214.679 154.37L220.927 150.929L224.693 156.992L231.601 155.232L233.731 162.043H240.868L241.246 169.171L248.154 170.931L246.746 177.918L252.994 181.35L249.897 187.774L255.097 192.658L250.495 198.106L254.305 204.16Z" fill="#C76700"/>
<path opacity="0.6" d="M255.925 198.475L261.134 192.315L255.247 186.789L258.767 179.52L251.683 175.63L253.285 167.71L245.461 165.704L245.03 157.643H236.952L234.541 149.943L226.717 151.95L222.458 145.086L215.418 148.984L209.593 143.396L203.705 148.931L196.665 144.962L192.345 151.791L184.539 149.697L182.049 157.379L173.97 157.3L173.469 165.361L165.628 167.288L167.15 175.208L160.031 179.027L163.472 186.34L157.479 191.84L162.636 198.062L158.236 204.838L164.774 209.581L162.205 217.237L169.711 220.202L169.121 228.254L177.138 229.266L178.564 237.186L186.581 236.174L189.942 243.514L197.449 240.539L202.535 246.814L209.065 242.062L215.55 246.875L220.698 240.645L228.178 243.698L231.61 236.386L239.609 237.486L241.123 229.566L249.149 228.633L248.629 220.572L256.171 217.677L253.672 209.994L260.254 205.322L255.925 198.475ZM254.305 204.16L248.489 208.296L250.697 215.081L244.036 217.633L244.493 224.752L237.401 225.579L236.072 232.619L229.032 231.651L225.996 238.11L219.396 235.418L214.846 240.909L209.117 236.658L203.353 240.856L198.865 235.312L192.23 237.952L189.265 231.466L182.181 232.346L180.922 225.306L173.882 224.426L174.41 217.316L167.775 214.676L170.045 207.918L164.273 203.729L168.162 197.745L163.604 192.254L168.884 187.422L165.76 180.928L172.052 177.558L170.705 170.518L177.64 168.819L178.08 161.7L185.208 161.77L187.408 154.986L194.298 156.834L198.117 150.806L204.339 154.326L209.531 149.433L214.679 154.37L220.927 150.929L224.693 156.992L231.601 155.232L233.731 162.043H240.868L241.246 169.171L248.154 170.931L246.746 177.918L252.994 181.35L249.897 187.774L255.097 192.658L250.495 198.106L254.305 204.16Z" fill="white"/>
<path opacity="0.4" d="M183.448 192.553C183.448 192.553 187.936 191.778 190.145 192.553C192.353 193.327 201.699 209.273 201.699 209.273C201.699 209.273 219.827 184.333 234.321 173.43C234.321 173.43 215.515 190.273 204.612 218.548C204.612 218.548 200.942 220.167 198.346 217.272C197.598 216.392 189.177 202.039 187.549 201.502C186.273 201.071 182.154 201.282 182.154 201.282L183.448 192.553Z" fill="black"/>
<path d="M182.568 191.673C182.568 191.673 187.056 190.898 189.265 191.673C191.474 192.447 200.819 208.393 200.819 208.393C200.819 208.393 218.947 183.453 233.441 172.55C233.441 172.55 214.635 189.393 203.732 217.668C203.732 217.668 200.062 219.287 197.466 216.392C196.718 215.512 188.297 201.159 186.669 200.622C185.393 200.191 181.274 200.402 181.274 200.402L182.568 191.673Z" fill="white"/>
<path d="M189.335 99.572C189.354 103.179 188.445 106.731 186.695 109.886L186.308 110.546C185.051 112.632 183.44 114.484 181.547 116.019L181.442 116.107C179.65 117.551 177.635 118.693 175.475 119.486C173.141 120.342 170.675 120.777 168.189 120.771C167.398 120.776 166.607 120.732 165.822 120.639C164.502 120.499 163.2 120.231 161.932 119.838C158.845 118.889 156.02 117.239 153.678 115.016C151.116 112.606 149.194 109.597 148.084 106.26C146.973 102.923 146.71 99.3626 147.317 95.8985C147.925 92.4344 149.384 89.1756 151.563 86.4153C153.742 83.655 156.574 81.4797 159.802 80.0851C163.031 78.6905 166.555 78.1204 170.059 78.426C173.563 78.7316 176.935 79.9033 179.874 81.8358C182.812 83.7684 185.224 86.401 186.893 89.497C188.561 92.5929 189.434 96.0551 189.432 99.572H189.335Z" fill="#C76700"/>
<path d="M186.66 109.886L186.273 110.546C181.421 110.47 176.58 111.017 171.867 112.174L170.292 112.561L169.219 112.843C167.872 113.203 166.579 113.582 165.479 113.943L164.977 114.11L164.616 114.224C163.305 114.664 162.187 115.06 161.334 115.386C160.058 115.87 159.327 116.187 159.327 116.187C158.91 115.649 158.528 115.084 158.183 114.497L158.131 114.4C156.221 111.197 152.851 103.84 154.435 93.2801C156.195 81.5321 165.936 82.2801 169.395 82.9313C169.808 82.9997 170.216 83.0938 170.618 83.2129C170.618 83.2129 181.521 85.7825 181.926 92.5761C181.983 93.4855 182.095 94.3906 182.26 95.2865C183.285 100.275 184.758 105.161 186.66 109.886Z" fill="#263238"/>
<path d="M175.44 119.486C173.106 120.342 170.639 120.777 168.154 120.771C167.363 120.776 166.572 120.732 165.786 120.639C164.467 120.499 163.164 120.231 161.897 119.838L161.219 114.303L160.894 111.663L175.405 113.722V114.963L175.449 118.606V119.486H175.44Z" fill="#C76700"/>
<path d="M181.407 116.107C179.615 117.551 177.6 118.693 175.44 119.486C173.106 120.342 170.639 120.777 168.154 120.771C167.363 120.776 166.572 120.732 165.787 120.639C164.467 120.499 163.165 120.231 161.897 119.838C158.81 118.889 155.985 117.239 153.643 115.016C154.311 114.91 154.989 114.831 155.667 114.743H155.834C156.635 114.655 157.435 114.576 158.236 114.514C159.187 114.435 160.128 114.374 161.079 114.338H161.246L162.407 114.294H163.789H165.408C167.168 114.294 168.952 114.359 170.759 114.488L172.58 114.638L173.539 114.734L174.93 114.946L175.238 114.99H175.449L177.086 115.271C177.341 115.315 177.596 115.377 177.851 115.412L178.335 115.509L178.855 115.606L179.735 115.782L180.351 115.905L181.407 116.107Z" fill="#263238"/>
<path d="M171.726 119.68C165.681 118.65 163.956 115.975 163.956 115.975C166.543 113.74 166.235 110.264 165.716 108.055C165.55 107.366 165.326 106.692 165.047 106.04L172.307 107.712C172.097 108.722 171.958 109.745 171.894 110.774C171.838 111.536 171.877 112.301 172.008 113.054C172.413 115.254 173.662 115.342 173.662 115.342C174.815 117.85 171.726 119.68 171.726 119.68Z" fill="#E4897B"/>
<path opacity="0.2" d="M171.867 110.827C171.812 111.589 171.85 112.354 171.982 113.106C169.095 112.596 166.983 110.185 165.69 108.108C165.523 107.419 165.3 106.745 165.021 106.093L172.281 107.765C172.07 108.774 171.932 109.798 171.867 110.827Z" fill="black"/>
<path d="M170.882 86.9615C177.755 87.2607 179.814 91.0359 180.007 98.1375C180.263 107.008 178.027 113.212 169.518 110.959C157.955 107.888 159.468 86.4687 170.882 86.9615Z" fill="#E4897B"/>
<path d="M175.581 97.5571C176.089 98.6086 176.721 99.5953 177.464 100.496C177.249 100.77 176.964 100.981 176.638 101.105C176.312 101.229 175.959 101.262 175.616 101.2L175.581 97.5571Z" fill="#DE5753"/>
<path d="M168.514 93.2802C168.437 93.2806 168.361 93.2524 168.303 93.201C168.272 93.1722 168.248 93.1374 168.231 93.0988C168.215 93.0602 168.206 93.0186 168.206 92.9766C168.206 92.9345 168.215 92.893 168.231 92.8544C168.248 92.8158 168.272 92.781 168.303 92.7522C168.738 92.3354 169.265 92.0267 169.841 91.8509C170.418 91.6751 171.027 91.6372 171.621 91.7402C171.662 91.7476 171.701 91.7631 171.736 91.7857C171.771 91.8083 171.801 91.8376 171.825 91.8719C171.849 91.9063 171.866 91.945 171.874 91.9858C171.883 92.0266 171.884 92.0688 171.876 92.1098C171.868 92.1509 171.853 92.1901 171.83 92.2251C171.808 92.2602 171.778 92.2905 171.744 92.3142C171.71 92.3379 171.671 92.3546 171.63 92.3633C171.589 92.372 171.547 92.3726 171.506 92.365C171.02 92.2879 170.523 92.3206 170.051 92.4606C169.579 92.6007 169.144 92.8447 168.778 93.1746C168.746 93.2116 168.705 93.2403 168.659 93.2587C168.613 93.277 168.563 93.2844 168.514 93.2802Z" fill="#263238"/>
<path d="M179.259 92.9985C179.193 92.9967 179.129 92.9753 179.075 92.9369C178.743 92.6559 178.353 92.4524 177.933 92.3413C177.513 92.2302 177.073 92.2142 176.646 92.2945C176.606 92.3082 176.564 92.3139 176.522 92.3111C176.48 92.3083 176.439 92.2972 176.401 92.2783C176.363 92.2595 176.33 92.2333 176.302 92.2013C176.275 92.1694 176.254 92.1322 176.241 92.0921C176.216 92.0115 176.223 91.9243 176.26 91.8488C176.298 91.7732 176.364 91.7154 176.443 91.6873C176.966 91.5729 177.508 91.5792 178.028 91.7058C178.548 91.8324 179.033 92.0758 179.444 92.4177C179.512 92.4686 179.558 92.544 179.571 92.6278C179.584 92.7116 179.564 92.7973 179.515 92.8665C179.485 92.9061 179.446 92.9385 179.402 92.9613C179.358 92.9841 179.309 92.9968 179.259 92.9985Z" fill="#263238"/>
<path d="M162.874 98.2253C162.874 98.2253 166.332 92.7165 166.033 88.3341C166.033 88.3341 179.893 83.3533 179.972 97.2045C179.972 97.2045 181.829 84.9901 170.028 84.2069C158.227 83.4237 157.532 100.716 163.41 106.128C163.41 106.128 160.735 101.666 162.874 98.2253Z" fill="#263238"/>
<path d="M163.938 99.7216C163.904 98.9248 163.557 98.1737 162.972 97.6316C162.387 97.0895 161.611 96.8001 160.814 96.8263C158.667 96.9671 157.47 101.297 162.724 102.573C163.472 102.758 163.93 102.08 163.938 99.7216Z" fill="#E4897B"/>
<path d="M175.748 103.224C175.28 103.921 174.863 104.65 174.499 105.406L174.067 105.283C172.149 104.685 171.427 103.778 171.26 102.951C171.175 102.543 171.19 102.12 171.304 101.719C171.36 101.49 171.449 101.271 171.568 101.068C172.589 101.96 173.789 102.623 175.088 103.013C175.493 103.153 175.748 103.224 175.748 103.224Z" fill="#263238"/>
<path d="M175.097 103.013L174.71 103.646C172.95 103.083 171.7 102.449 171.304 101.719C171.36 101.49 171.449 101.271 171.568 101.068C172.592 101.961 173.795 102.624 175.097 103.013Z" fill="white"/>
<path d="M174.067 105.283C172.149 104.685 171.427 103.778 171.26 102.951C171.988 103.189 172.668 103.556 173.267 104.034C173.662 104.352 173.943 104.791 174.067 105.283Z" fill="#DE5753"/>
<path d="M170.723 87.4718C170.723 87.4718 167.467 98.6655 160.357 98.2167C153.246 97.7679 164.845 83.9167 164.845 83.9167C164.845 83.9167 176.646 80.0359 182.119 86.4511C187.593 92.8663 179.972 97.2047 179.972 97.2047C179.972 97.2047 180.782 88.4662 170.723 87.4718Z" fill="#263238"/>
<path d="M165.443 97.117C165.399 97.1164 165.357 97.1027 165.321 97.0776C165.285 97.0525 165.257 97.0172 165.241 96.9762C165.22 96.9236 165.22 96.8649 165.242 96.8125C165.263 96.76 165.304 96.7178 165.355 96.6946C170.899 94.3186 170.468 86.7594 170.468 86.6802C170.466 86.6233 170.485 86.5676 170.523 86.5249C170.561 86.4823 170.614 86.4559 170.671 86.4514C170.728 86.4488 170.785 86.4682 170.829 86.5058C170.873 86.5434 170.902 86.5963 170.908 86.6538C170.908 86.733 171.357 94.5738 165.531 97.0994L165.443 97.117Z" fill="#263238"/>
<path d="M171.533 97.1695C171.594 97.6975 171.357 98.1639 171.005 98.2079C170.653 98.2519 170.31 97.8471 170.248 97.3279C170.186 96.8087 170.424 96.3335 170.776 96.2895C171.128 96.2455 171.471 96.6327 171.533 97.1695Z" fill="#263238"/>
<path d="M170.626 96.325L171.735 95.7354C171.735 95.7354 171.269 96.8002 170.626 96.325Z" fill="#263238"/>
<path d="M178.124 96.272C178.186 96.8 177.948 97.2664 177.596 97.3104C177.244 97.3544 176.901 96.9584 176.839 96.4304C176.778 95.9024 177.015 95.436 177.367 95.392C177.719 95.348 178.08 95.744 178.124 96.272Z" fill="#263238"/>
<path d="M177.2 95.427L178.3 94.8374C178.3 94.8374 177.869 95.9198 177.2 95.427Z" fill="#263238"/>
<path d="M181.512 116.019L181.406 116.107C179.615 117.551 177.6 118.693 175.44 119.487V118.862V118.589L174.287 116.257L174.877 114.867L175.378 113.705L175.889 114.814L181.512 116.019Z" fill="#C76700"/>
<path opacity="0.6" d="M181.512 116.019L181.406 116.107C179.615 117.551 177.6 118.693 175.44 119.487V118.862V118.589L174.287 116.257L174.877 114.867L175.378 113.705L175.889 114.814L181.512 116.019Z" fill="white"/>
<path d="M168.286 116.081L165.883 119.099L165.76 120.648C164.441 120.508 163.138 120.239 161.871 119.847C158.784 118.898 155.959 117.248 153.616 115.025L155.614 114.743H155.781L160.014 114.145L160.894 111.672L165.206 114.241L168.312 116.098L168.286 116.081Z" fill="#C76700"/>
<path opacity="0.6" d="M168.277 116.081L165.883 119.099L165.76 120.648C164.441 120.508 163.138 120.239 161.871 119.847C158.784 118.898 155.959 117.248 153.616 115.025L155.781 114.725L160.014 114.136L160.894 111.663L165.206 114.233L168.277 116.081Z" fill="white"/>
<path d="M190.787 117.507C190.787 118.647 190.449 119.761 189.816 120.709C189.183 121.657 188.282 122.396 187.229 122.832C186.176 123.268 185.017 123.382 183.899 123.16C182.781 122.938 181.754 122.389 180.948 121.582C180.141 120.776 179.592 119.749 179.37 118.631C179.148 117.513 179.262 116.354 179.698 115.301C180.134 114.248 180.873 113.347 181.821 112.714C182.769 112.081 183.883 111.743 185.023 111.743C186.552 111.743 188.018 112.35 189.099 113.431C190.18 114.512 190.787 115.978 190.787 117.507Z" fill="white"/>
<path d="M189.942 117.507C189.942 118.48 189.654 119.431 189.113 120.24C188.573 121.049 187.805 121.679 186.906 122.051C186.007 122.424 185.018 122.521 184.064 122.331C183.109 122.141 182.233 121.673 181.545 120.985C180.857 120.297 180.388 119.421 180.199 118.466C180.009 117.512 180.106 116.523 180.478 115.624C180.851 114.725 181.481 113.957 182.29 113.416C183.099 112.876 184.05 112.587 185.023 112.587C186.328 112.587 187.579 113.106 188.502 114.028C189.424 114.951 189.942 116.202 189.942 117.507Z" fill="#263238"/>
<path d="M184.829 120.067L182.207 117.753L182.788 117.093L184.689 118.765L187.188 115.333L187.901 115.852L184.829 120.067Z" fill="white"/>
<path d="M307.51 293.524C307.51 293.524 302.38 282.339 308.241 271.313C314.101 260.286 315.791 257.69 312.06 255.429C308.329 253.167 306.613 264.229 306.613 264.229C306.613 264.229 303.462 256.599 306.067 248.626C308.672 240.654 310.291 227.656 306.745 226.257C303.198 224.858 306.067 242.466 302.987 248.468C301.418 244.256 300.406 239.857 299.977 235.382C299.546 228.976 300.215 218.742 297.408 216.119C294.601 213.497 292.814 215.31 295.569 229.451C297.224 237.9 298.137 246.478 298.297 255.086C298.297 255.086 292.216 236.535 288.133 235.998C284.049 235.462 284.058 241.463 287.552 246.673C291.045 251.882 297.786 261.219 298.895 266.033C298.895 266.033 292.216 252.076 286.205 256.353C280.195 260.63 291.433 269.06 296.44 272.114C301.447 275.167 304.932 294.254 304.932 294.254L307.51 293.524Z" fill="#C76700"/>
<path opacity="0.2" d="M307.51 293.524C307.51 293.524 302.38 282.339 308.241 271.313C314.101 260.286 315.791 257.69 312.06 255.429C308.329 253.167 306.613 264.229 306.613 264.229C306.613 264.229 303.462 256.599 306.067 248.626C308.672 240.654 310.291 227.656 306.745 226.257C303.198 224.858 306.067 242.466 302.987 248.468C301.418 244.256 300.406 239.857 299.977 235.382C299.546 228.976 300.215 218.742 297.408 216.119C294.601 213.497 292.814 215.31 295.569 229.451C297.224 237.9 298.137 246.478 298.297 255.086C298.297 255.086 292.216 236.535 288.133 235.998C284.049 235.462 284.058 241.463 287.552 246.673C291.045 251.882 297.786 261.219 298.895 266.033C298.895 266.033 292.216 252.076 286.205 256.353C280.195 260.63 291.433 269.06 296.44 272.114C301.447 275.167 304.932 294.254 304.932 294.254L307.51 293.524Z" fill="black"/>
<path d="M303.462 298.117C303.462 298.117 308.452 286.853 302.459 275.915C296.466 264.977 294.742 262.407 298.455 260.075C302.169 257.743 304.008 268.813 304.008 268.813C304.008 268.813 307.062 261.14 304.369 253.202C301.676 245.265 299.89 232.293 303.418 230.85C306.947 229.407 304.298 247.051 307.44 253C308.959 248.766 309.921 244.352 310.3 239.87C310.643 233.455 309.86 223.238 312.632 220.572C315.404 217.905 317.217 219.692 314.63 233.877C313.076 242.365 312.266 250.972 312.21 259.6C312.21 259.6 318.07 240.961 322.145 240.363C326.219 239.765 326.29 245.766 322.858 251.029C319.426 256.291 312.79 265.725 311.743 270.538C311.743 270.538 318.255 256.458 324.31 260.673C330.364 264.889 319.241 273.46 314.269 276.575C309.297 279.69 306.05 298.848 306.05 298.848L303.462 298.117Z" fill="#C76700"/>
<path d="M326.483 290.083H285.246L288.581 319.598H323.148L326.483 290.083Z" fill="#263238"/>
<path d="M53.2521 299.587L78.6401 297.097V265.857H88.6897V297.079L114.148 299.587C115.368 299.706 116.5 300.274 117.323 301.182C118.147 302.09 118.602 303.272 118.601 304.498V308.308H48.7993V304.48C48.8024 303.258 49.2598 302.08 50.0827 301.176C50.9056 300.271 52.0352 299.705 53.2521 299.587Z" fill="#263238"/>
<path opacity="0.1" d="M53.2521 299.587L78.6401 297.097V265.857H88.6897V297.079L114.148 299.587C115.368 299.706 116.5 300.274 117.323 301.182C118.147 302.09 118.602 303.272 118.601 304.498V308.308H48.7993V304.48C48.8024 303.258 49.2598 302.08 50.0827 301.176C50.9056 300.271 52.0352 299.705 53.2521 299.587Z" fill="white"/>
<path d="M116.957 319.507C120.541 318.925 122.975 315.549 122.393 311.965C121.811 308.382 118.435 305.948 114.851 306.53C111.267 307.111 108.834 310.488 109.416 314.072C109.997 317.655 113.374 320.089 116.957 319.507Z" fill="#263238"/>
<path d="M57.9701 314.097C58.5518 310.513 56.1182 307.137 52.5346 306.555C48.9511 305.973 45.5744 308.407 44.9927 311.99C44.411 315.574 46.8445 318.951 50.4281 319.532C54.0117 320.114 57.3884 317.68 57.9701 314.097Z" fill="#263238"/>
<path d="M86.7538 273.521H80.5146C79.5507 273.521 78.6263 273.139 77.9447 272.457C77.2631 271.775 76.8802 270.851 76.8802 269.887V241.789H90.3882V269.887C90.3882 270.851 90.0053 271.775 89.3237 272.457C88.6421 273.139 87.7177 273.521 86.7538 273.521Z" fill="#263238"/>
<path opacity="0.2" d="M86.7538 273.521H80.5146C79.5507 273.521 78.6263 273.139 77.9447 272.457C77.2631 271.775 76.8802 270.851 76.8802 269.887V241.789H90.3882V269.887C90.3882 270.851 90.0053 271.775 89.3237 272.457C88.6421 273.139 87.7177 273.521 86.7538 273.521Z" fill="white"/>
<path d="M48.5439 186.683C48.5439 186.683 56.0679 233.684 70.9223 241.78H55.8215C55.8215 241.78 40.9055 225.764 36.3999 186.683H48.5439Z" fill="#263238"/>
<path opacity="0.1" d="M48.5439 186.683C48.5439 186.683 56.0679 233.684 70.9223 241.78H55.8215C55.8215 241.78 40.9055 225.764 36.3999 186.683H48.5439Z" fill="white"/>
<path d="M55.0826 235.136H113.972C115.139 235.136 116.258 235.599 117.083 236.424C117.909 237.25 118.372 238.369 118.372 239.536V245.423H50.6826V239.536C50.6826 238.369 51.1462 237.25 51.9713 236.424C52.7965 235.599 53.9157 235.136 55.0826 235.136Z" fill="#C76700"/>
<path d="M119.419 240.275H49.6262C48.6493 240.275 47.8574 241.067 47.8574 242.044V243.646C47.8574 244.623 48.6493 245.415 49.6262 245.415H119.419C120.396 245.415 121.188 244.623 121.188 243.646V242.044C121.188 241.067 120.396 240.275 119.419 240.275Z" fill="#263238"/>
<path opacity="0.6" d="M119.419 240.275H49.6262C48.6493 240.275 47.8574 241.067 47.8574 242.044V243.646C47.8574 244.623 48.6493 245.415 49.6262 245.415H119.419C120.396 245.415 121.188 244.623 121.188 243.646V242.044C121.188 241.067 120.396 240.275 119.419 240.275Z" fill="white"/>
<path d="M34.5695 196.24H58.7695C65.8095 196.24 70.4647 190.555 69.0479 183.542L67.1999 174.178C65.7919 167.138 58.9015 161.489 51.8175 161.489H27.5999C20.5599 161.489 15.9047 167.174 17.3215 174.178L19.1959 183.542C20.5599 190.555 27.4855 196.24 34.5695 196.24Z" fill="#C76700"/>
<path d="M57.353 149.899H72.7706L74.1874 159.095L60.477 161.489L57.353 149.899Z" fill="#C76700"/>
<path d="M159.732 277.649L154.197 279.814L150.219 272.307L146.603 265.487L152.736 261.809L156.441 270.187L159.732 277.649Z" fill="#E4897B"/>
<path opacity="0.2" d="M156.441 270.187L150.219 272.307L146.603 265.487L152.736 261.809L156.441 270.187Z" fill="black"/>
<path d="M155.297 266.094L147.764 270.16C147.764 270.16 119.314 220.141 114.94 220.554C110.567 220.968 69.0657 247.394 56.4113 237.6C43.7569 227.806 56.0681 198.431 56.0681 198.431C56.0681 198.431 80.7961 189.033 83.6385 194.779C84.8853 197.106 85.996 199.504 86.9649 201.96C87.5193 203.72 87.9417 205.277 87.9417 205.277C88.7425 204.952 114.597 194.348 126.143 199.997C137.882 205.832 155.297 266.094 155.297 266.094Z" fill="#C76700"/>
<path opacity="0.3" d="M155.297 266.094L147.764 270.16C147.764 270.16 119.314 220.141 114.94 220.554C110.567 220.968 69.0657 247.394 56.4113 237.6C43.7569 227.806 56.0681 198.431 56.0681 198.431C56.0681 198.431 80.7961 189.033 83.6385 194.779C84.8853 197.106 85.996 199.504 86.9649 201.96C87.5193 203.72 87.9417 205.277 87.9417 205.277C88.7425 204.952 114.597 194.348 126.143 199.997C137.882 205.832 155.297 266.094 155.297 266.094Z" fill="white"/>
<path d="M114.395 306.882L108.49 306.205L108.463 297.88L108.455 290.233L115.591 289.898L114.958 298.892L114.395 306.882Z" fill="#E4897B"/>
<path opacity="0.2" d="M114.94 299.077L108.446 298.038V290.321L115.583 289.942L114.94 299.077Z" fill="black"/>
<path d="M144.085 267.652L155.103 262.134L156.247 266.798L147.905 271.101L144.085 267.652Z" fill="#263238"/>
<path d="M76 237.706C76 237.706 77.8128 237.503 105.638 232.346C105.638 232.346 106.272 267.942 107.592 294.466L116.163 294.747C116.163 294.747 128.483 235.858 127.014 226.987C125.544 218.117 114.984 216.894 114.984 216.894C114.984 216.894 96.5832 231.15 76 237.706Z" fill="#C76700"/>
<path opacity="0.4" d="M76 237.706C76 237.706 77.8128 237.503 105.638 232.346C105.638 232.346 106.272 267.942 107.592 294.466L116.163 294.747C116.163 294.747 128.483 235.858 127.014 226.987C125.544 218.117 114.984 216.894 114.984 216.894C114.984 216.894 96.5832 231.15 76 237.706Z" fill="white"/>
<path opacity="0.3" d="M76 237.706C76 237.706 77.8128 237.503 105.638 232.346C105.638 232.346 106.272 267.942 107.592 294.466L116.163 294.747C116.163 294.747 128.483 235.858 127.014 226.987C125.544 218.117 114.984 216.894 114.984 216.894C114.984 216.894 96.5832 231.15 76 237.706Z" fill="black"/>
<path d="M105.982 292.098L117.668 291.826L116.076 296.639L106.589 296.727L105.982 292.098Z" fill="#263238"/>
<path opacity="0.3" d="M87.9417 205.304L72.7705 210.707C72.7705 210.707 80.7521 204.75 86.9649 201.986C87.5193 203.782 87.9417 205.304 87.9417 205.304Z" fill="black"/>
<path d="M55.0911 196.345L54.8711 200.851L83.3039 194.823L82.6439 189.851L55.0911 196.345Z" fill="#263238"/>
<path opacity="0.2" d="M55.0911 196.345L54.8711 200.851L83.3039 194.823L82.6439 189.851L55.0911 196.345Z" fill="black"/>
<path d="M63.732 193.59L62.313 193.853L63.6501 201.06L65.0691 200.797L63.732 193.59Z" fill="#C76700"/>
<path d="M76.1389 191.759L69.9321 193.158L70.9923 197.862L77.199 196.463L76.1389 191.759Z" fill="white"/>
<path d="M81.0001 189.336L79.5811 189.599L80.9169 196.807L82.3359 196.544L81.0001 189.336Z" fill="#C76700"/>
<path opacity="0.3" d="M63.732 193.59L62.313 193.853L63.6501 201.06L65.0691 200.797L63.732 193.59Z" fill="white"/>
<path opacity="0.3" d="M81.0001 189.336L79.5811 189.599L80.9169 196.807L82.3359 196.544L81.0001 189.336Z" fill="white"/>
<path d="M170.732 287.461C169.807 287.177 168.837 287.067 167.872 287.135C167.872 287.135 164.308 285.648 159.952 278.538L156.265 279.022C155.644 279.116 155.067 279.398 154.612 279.831C154.157 280.264 153.846 280.826 153.722 281.442C153.691 281.613 153.691 281.789 153.722 281.961C153.877 282.854 154.091 283.736 154.364 284.601C155.31 287.458 156.426 290.256 157.708 292.978L158.315 292.732L156.423 287.39C155.79 285.578 157.999 287.109 159.169 288.869C160.339 290.629 161.994 292.327 165.936 290.84C170.521 289.054 172.334 288.103 170.732 287.461Z" fill="#C76700"/>
<path d="M159.055 276.654C159.055 276.654 164.977 285.639 167.855 287.135C167.855 287.135 164.599 289.775 160.252 285.533C154.637 280.104 153.704 281.961 153.704 281.961C153.654 280.896 153.704 279.83 153.854 278.775C154.32 276.716 159.055 276.654 159.055 276.654Z" fill="#E4897B"/>
<path d="M123.23 317.355C122.396 316.864 121.481 316.527 120.528 316.36C120.528 316.36 117.413 314.063 114.905 306.143L111.209 305.739C110.581 305.68 109.95 305.818 109.403 306.134C108.856 306.449 108.42 306.926 108.155 307.499C108.077 307.656 108.023 307.826 107.997 308C107.94 308.897 107.94 309.796 107.997 310.693C108.241 313.69 108.664 316.67 109.264 319.616L109.907 319.519L109.335 313.887C109.15 311.969 110.936 313.984 111.658 315.973C112.379 317.962 113.576 320.003 117.756 319.493C122.64 318.851 124.629 318.358 123.23 317.355Z" fill="#C76700"/>
<path d="M114.439 304.084C114.439 304.084 118.064 314.222 120.528 316.36C120.528 316.36 116.744 318.12 113.488 313.007C109.317 306.39 107.962 307.982 107.962 307.982C108.16 306.937 108.455 305.911 108.842 304.92C109.828 303.019 114.439 304.084 114.439 304.084Z" fill="#E4897B"/>
<path d="M70.9575 118.8C70.9575 118.8 57.0623 112.05 52.4775 126.588C47.8927 141.126 53.7711 151.158 53.7711 151.158C53.7711 151.158 69.8487 147.039 83.3831 149.917C83.3831 149.917 80.4615 137.526 81.1655 130.416C81.8695 123.306 70.9575 118.8 70.9575 118.8Z" fill="#263238"/>
<path d="M81.7993 151.703C84.8529 151.835 97.6393 169.022 97.6393 169.022L102.391 162.862C102.391 162.862 109.713 177.091 106.087 183.867C102.462 190.643 83.3657 172.128 83.3657 172.128L81.7993 151.703Z" fill="#C76700"/>
<path opacity="0.6" d="M81.7905 151.703L83.0401 165.44L83.3569 172.137C83.3569 172.137 86.4985 175.182 90.4673 178.35C96.3017 183.005 103.923 187.915 106.079 183.885C109.704 177.118 102.374 162.879 102.374 162.879L97.6305 169.039V168.986C96.8913 167.93 84.7473 151.835 81.7905 151.703Z" fill="white"/>
<path opacity="0.2" d="M83.04 165.44L83.3568 172.137C83.3568 172.137 86.4984 175.182 90.4672 178.35C90.8456 170.307 83.3568 158.594 83.3568 158.594L83.04 165.44Z" fill="black"/>
<path opacity="0.2" d="M97.6483 169.022L96.9619 170.333L98.9507 178.077C98.9507 178.077 93.4595 173.078 96.9619 168.186L97.6483 169.022Z" fill="black"/>
<path d="M83.4007 167.033C83.4007 167.244 83.4007 167.464 83.4007 167.684C83.4007 168.635 83.4007 169.638 83.3391 170.703C83.3391 170.791 83.3391 170.879 83.3391 170.975C83.3391 171.547 83.3391 172.137 83.3391 172.735C83.3391 172.841 83.3391 172.938 83.3391 173.043C83.3391 173.923 83.2775 174.803 83.2423 175.683C83.2423 175.807 83.2423 175.93 83.2423 176.053C83.2423 177.25 83.1455 178.508 83.0839 179.837C82.9431 182.82 82.7759 186.129 82.5647 189.799L82.1687 189.895L55.2847 196.267H55.1791C55.1791 196.267 56.2615 181.887 54.4047 173.747C54.3912 173.676 54.3736 173.605 54.3519 173.536C54.3519 173.413 54.2991 173.29 54.2639 173.167C54.2287 173.043 54.1407 172.709 54.0879 172.471C54.0351 172.234 53.9647 171.996 53.8943 171.75C53.6567 170.87 53.4015 169.99 53.1287 169.022C52.9527 168.388 52.7591 167.737 52.5567 167.068L52.4511 166.734C52.2135 165.942 51.9583 165.123 51.6943 164.279C51.6151 164.032 51.5447 163.795 51.4655 163.539C51.0783 162.334 50.6647 161.058 50.2159 159.72C49.7231 158.212 49.1833 156.614 48.5967 154.924C51.6797 153.941 54.8217 153.153 58.0039 152.566L59.3679 152.319L60.8111 152.082C63.2223 151.695 65.6599 151.422 68.0975 151.246C69.0772 151.175 70.054 151.123 71.0279 151.087C71.6175 151.087 72.2247 151.087 72.7879 151.087H73.0343L74.7943 151.14H75.6127H76.1319H76.6951L77.5751 151.193H78.2439L79.4495 151.272L79.9247 151.316H80.3471H80.7343H81.0511L81.8167 151.387C81.8167 151.387 81.8167 151.387 81.8871 151.387L81.9487 151.448C82.0075 151.518 82.0577 151.595 82.0983 151.677C82.3687 152.25 82.5611 152.857 82.6703 153.481C82.6703 153.657 82.7407 153.851 82.7847 154.062C82.8287 154.273 82.8903 154.722 82.9519 155.109C83.0135 155.496 83.0311 155.672 83.0663 155.989C83.1015 156.306 83.1279 156.561 83.1543 156.869C83.4147 160.25 83.4969 163.643 83.4007 167.033Z" fill="#263238"/>
<path d="M68.8014 156.913C62.395 156.095 60.4766 153.349 60.4766 153.349C63.1166 150.885 62.615 147.251 61.9462 144.98C61.7449 144.26 61.4798 143.559 61.1542 142.886L68.863 144.329C68.6837 145.4 68.5837 146.482 68.5638 147.567C68.5348 148.368 68.6087 149.17 68.7838 149.952C69.303 152.258 70.6142 152.293 70.6142 152.293C71.9694 154.819 68.8014 156.913 68.8014 156.913Z" fill="#E4897B"/>
<path opacity="0.2" d="M68.5639 147.567C68.5349 148.368 68.6089 149.17 68.7839 149.952C65.7215 149.556 63.4071 147.101 61.9463 144.98C61.745 144.26 61.48 143.559 61.1543 142.886L68.8631 144.329C68.6838 145.4 68.5838 146.482 68.5639 147.567Z" fill="black"/>
<path d="M70.6146 122.707C77.7074 124.15 79.2122 128.418 78.2442 135.828C77.0298 145.094 73.6858 151.166 65.2114 147.409C53.7186 142.305 58.8402 120.305 70.6146 122.707Z" fill="#E4897B"/>
<path d="M73.7385 134.5C74.0918 135.675 74.5852 136.804 75.2081 137.861C74.9396 138.11 74.6081 138.28 74.2496 138.352C73.8911 138.425 73.5195 138.399 73.1753 138.275L73.7385 134.5Z" fill="#DE5753"/>
<path d="M67.1999 128.885C67.153 128.885 67.1067 128.874 67.0642 128.854C67.0216 128.835 66.9839 128.806 66.9535 128.77C66.9228 128.742 66.8984 128.707 66.8817 128.668C66.8651 128.63 66.8564 128.588 66.8564 128.546C66.8564 128.504 66.8651 128.462 66.8817 128.424C66.8984 128.385 66.9228 128.35 66.9535 128.322C67.4719 127.961 68.0679 127.728 68.6932 127.641C69.3185 127.554 69.9555 127.615 70.5527 127.82C70.592 127.834 70.6281 127.855 70.6591 127.883C70.6901 127.911 70.7153 127.945 70.7333 127.982C70.7513 128.02 70.7617 128.061 70.7639 128.102C70.7661 128.144 70.7601 128.185 70.7463 128.225C70.7324 128.264 70.7109 128.3 70.6831 128.331C70.6552 128.362 70.6216 128.387 70.584 128.405C70.5464 128.423 70.5056 128.434 70.464 128.436C70.4224 128.438 70.3808 128.432 70.3415 128.418C69.8459 128.26 69.3213 128.213 68.8054 128.281C68.2896 128.35 67.7953 128.532 67.3583 128.814C67.3122 128.851 67.2577 128.875 67.1999 128.885Z" fill="#263238"/>
<path d="M78.3672 130.354C78.284 130.352 78.2049 130.318 78.1472 130.258C77.8447 129.911 77.4694 129.634 77.0481 129.449C76.6268 129.263 76.1698 129.173 75.7095 129.184C75.6684 129.192 75.6261 129.191 75.5854 129.181C75.5446 129.172 75.5062 129.154 75.4724 129.13C75.4386 129.105 75.4103 129.074 75.389 129.038C75.3677 129.002 75.3541 128.962 75.3488 128.92C75.3412 128.879 75.3422 128.837 75.3516 128.796C75.3609 128.755 75.3785 128.717 75.4032 128.683C75.4279 128.649 75.4592 128.621 75.4952 128.6C75.5313 128.578 75.5713 128.565 75.6127 128.559C76.1724 128.526 76.7323 128.621 77.2494 128.838C77.7666 129.054 78.2272 129.387 78.5959 129.809C78.6255 129.838 78.6489 129.873 78.6649 129.912C78.6809 129.95 78.6891 129.992 78.6891 130.033C78.6891 130.075 78.6809 130.116 78.6649 130.155C78.6489 130.193 78.6255 130.228 78.5959 130.258C78.5349 130.318 78.453 130.353 78.3672 130.354Z" fill="#263238"/>
<path d="M60.4327 133.074C60.4327 133.074 64.9383 127.926 65.3519 123.323C65.3519 123.323 80.5671 120.454 78.3583 134.86C78.3583 134.86 82.3095 122.47 70.1831 119.706C58.0567 116.943 54.4663 134.781 59.6759 141.372C59.6759 141.372 57.6343 136.303 60.4327 133.074Z" fill="#263238"/>
<path d="M61.2864 134.807C61.3355 134.394 61.3028 133.975 61.19 133.575C61.0773 133.174 60.8868 132.8 60.6294 132.473C60.372 132.146 60.0527 131.873 59.6898 131.67C59.3269 131.466 58.9275 131.336 58.5144 131.287C56.2704 131.076 54.2992 135.37 59.544 137.57C60.3008 137.887 60.8992 137.21 61.2864 134.807Z" fill="#E4897B"/>
<path d="M72.9728 140.404C72.3699 141.053 71.814 141.744 71.3096 142.472L70.8872 142.261C68.9864 141.328 68.4144 140.272 68.3528 139.383C68.3374 138.944 68.4248 138.507 68.608 138.107C68.7048 137.88 68.8321 137.667 68.9864 137.474C69.8976 138.584 71.0384 139.485 72.3304 140.114C72.7264 140.29 72.9728 140.404 72.9728 140.404Z" fill="#263238"/>
<path d="M72.3303 140.078L71.8287 140.677C70.0687 139.797 68.8983 138.917 68.6079 138.107C68.7047 137.88 68.832 137.667 68.9863 137.474C69.9012 138.572 71.0417 139.46 72.3303 140.078Z" fill="white"/>
<path d="M70.8874 142.261C68.9866 141.328 68.4146 140.272 68.353 139.383C69.074 139.745 69.7215 140.237 70.2626 140.835C70.6168 141.232 70.8356 141.731 70.8874 142.261Z" fill="#DE5753"/>
<path d="M70.3591 123.2C70.3591 123.2 65.0791 134.288 57.8103 132.642C50.5415 130.997 64.8503 118.562 64.8503 118.562C64.8503 118.562 77.7599 116.459 82.3711 124.08C86.9823 131.701 78.3583 134.904 78.3583 134.904C78.3583 134.904 80.6463 125.91 70.3591 123.2Z" fill="#263238"/>
<path d="M63.3193 132.343C63.2709 132.341 63.2244 132.324 63.1865 132.294C63.1485 132.264 63.1211 132.223 63.1081 132.176C63.1002 132.148 63.0981 132.119 63.1019 132.09C63.1057 132.062 63.1153 132.034 63.1302 132.01C63.145 131.985 63.1648 131.963 63.1882 131.947C63.2117 131.93 63.2383 131.918 63.2665 131.912C69.4265 130.354 70.2361 122.425 70.2449 122.346C70.2516 122.289 70.2801 122.237 70.3244 122.201C70.3688 122.165 70.4255 122.148 70.4825 122.153C70.5116 122.154 70.5401 122.161 70.5662 122.173C70.5923 122.186 70.6153 122.205 70.6337 122.227C70.6521 122.25 70.6654 122.276 70.6727 122.304C70.68 122.332 70.6812 122.362 70.6761 122.39C70.6761 122.469 69.7961 130.706 63.3721 132.334L63.3193 132.343Z" fill="#263238"/>
<path d="M69.5936 133.417C69.5936 133.98 69.2504 134.42 68.8808 134.411C68.5112 134.402 68.212 133.927 68.2384 133.364C68.2648 132.801 68.5816 132.352 68.96 132.37C69.3384 132.387 69.62 132.88 69.5936 133.417Z" fill="#263238"/>
<path d="M68.8018 132.387L70.0426 131.956C70.0426 131.956 69.3914 132.968 68.8018 132.387Z" fill="#263238"/>
<path d="M76.5986 133.575C76.5986 134.138 76.2466 134.587 75.877 134.569C75.5074 134.552 75.217 134.085 75.2346 133.522C75.2522 132.959 75.5778 132.519 75.9562 132.537C76.3346 132.554 76.6162 133.012 76.5986 133.575Z" fill="#263238"/>
<path d="M75.7979 132.554L77.0387 132.123C77.0387 132.123 76.3875 133.126 75.7979 132.554Z" fill="#263238"/>
<path d="M86.4548 163.046C86.4419 163.141 86.4497 163.236 86.4777 163.327C86.5058 163.418 86.5533 163.501 86.617 163.572C86.6808 163.642 86.7591 163.698 86.8466 163.735C86.9341 163.772 87.0286 163.789 87.1236 163.786H94.4804C94.6837 163.778 94.8781 163.7 95.0305 163.566C95.1829 163.431 95.2839 163.247 95.3164 163.046L96.9532 148.526C96.9748 148.425 96.9744 148.319 96.9519 148.217C96.9295 148.116 96.8855 148.02 96.823 147.937C96.7605 147.853 96.6809 147.784 96.5895 147.734C96.4981 147.684 96.3971 147.654 96.2932 147.646H88.9364C88.7163 147.673 88.5122 147.775 88.3596 147.936C88.2069 148.096 88.1152 148.305 88.1004 148.526L86.4548 163.046Z" fill="#263238"/>
<path opacity="0.5" d="M88.9184 148.43L87.2464 163.09C87.2256 163.176 87.2252 163.265 87.2451 163.351C87.2651 163.437 87.305 163.517 87.3615 163.585C87.4179 163.652 87.4895 163.706 87.5704 163.74C87.6513 163.775 87.7392 163.791 87.8272 163.786H94.0664C94.4888 163.786 95.2544 163.557 95.2984 163.143L96.9704 148.43C96.9704 148.016 96.3016 147.682 95.8792 147.682H89.64C89.447 147.691 89.2647 147.773 89.1305 147.912C88.9963 148.051 88.9204 148.236 88.9184 148.43Z" fill="white"/>
<path d="M101.872 164.261L98.0355 157.749C98.0656 156.333 97.9566 154.919 97.7099 153.525C97.3755 152.715 93.6179 150.885 92.8787 151.166C92.1395 151.448 91.8755 158.154 92.5443 159.086C93.2131 160.019 95.5627 160.996 95.5627 160.996L95.4043 162.272L97.6483 169.048L101.872 164.261Z" fill="#E4897B"/>
<path d="M103.412 163.522L102.145 162.246L96.0991 169.022L96.9615 171.706L103.412 163.522Z" fill="#C76700"/>
<path d="M72.7705 149.899L72.0049 152.715L73.5625 155.003L77.0121 187.176L86.4545 185.786C85.8033 160.715 85.5745 160.583 81.9313 151.563L73.4745 150.973L72.7705 149.899Z" fill="#C76700"/>
<path opacity="0.6" d="M72.7705 149.899L72.0049 152.715L73.5625 155.003L77.0121 187.176L86.4545 185.786C85.8033 160.715 85.5745 160.583 81.9313 151.563L73.4745 150.973L72.7705 149.899Z" fill="white"/>
<path d="M57.353 149.899L65.7394 153.419L63.6802 156.939L65.713 189.878L53.0058 193.6C53.0058 193.6 43.7834 169.4 48.509 155.039L56.8338 152.636L57.353 149.899Z" fill="#C76700"/>
<path opacity="0.6" d="M65.3874 184.633L65.713 189.851L60.0458 191.506L53.0058 193.565C50.4048 186.408 48.5872 178.99 47.585 171.442C46.9074 165.713 46.925 159.808 48.509 155.003L56.8338 152.601L57.353 149.899L65.7394 153.419L63.6802 156.939L64.4898 170.016L65.3874 184.633Z" fill="white"/>
<path opacity="0.2" d="M72.8234 174.346C72.8234 174.346 69.6642 178.948 65.3874 184.633C63.733 186.833 61.8674 189.191 60.0458 191.506L53.0058 193.565C50.4047 186.408 48.5871 178.99 47.585 171.442C51.0346 167.983 55.2586 163.794 55.2586 163.794C55.2586 163.794 57.1946 169.778 56.341 174.979L64.4898 169.99L67.0242 168.441L72.8234 174.346Z" fill="black"/>
<path d="M65.9414 170.632L74.6622 163.786C75.1673 162.305 75.7882 160.866 76.519 159.482C77.047 158.84 84.6942 156.024 85.319 155.962C85.9438 155.901 85.319 162.228 84.3598 163.302C83.4006 164.375 77.2494 166.505 77.2494 166.505L68.1326 175.12L65.9414 170.632Z" fill="#E4897B"/>
<path d="M48.5091 155.003C43.3875 157.573 41.1083 186.49 50.0051 191.479C58.9019 196.469 72.1811 173.879 72.1811 173.879L67.0155 168.397C67.0155 168.397 56.1915 177.461 54.8891 176.625C53.5867 175.789 55.0651 166.945 55.0651 166.945C55.0651 166.945 56.5875 164.305 53.3843 160.055C50.1811 155.804 48.5091 155.003 48.5091 155.003Z" fill="#C76700"/>
<path opacity="0.6" d="M48.5091 155.003C43.3875 157.573 41.1083 186.49 50.0051 191.479C58.9019 196.469 72.1811 173.879 72.1811 173.879L67.0155 168.397C67.0155 168.397 56.1915 177.461 54.8891 176.625C53.5867 175.789 55.0651 166.945 55.0651 166.945C55.0651 166.945 56.5875 164.305 53.3843 160.055C50.1811 155.804 48.5091 155.003 48.5091 155.003Z" fill="white"/>
<path d="M72.2775 175.921L73.8263 174.988L68.0271 166.487L65.8975 167.675L72.2775 175.921Z" fill="#C76700"/>
</svg>
