<svg width="392" height="293" viewBox="0 0 392 293" fill="none" xmlns="http://www.w3.org/2000/svg">
<path d="M441.527 289.112H0V289.333H441.527V289.112Z" fill="#E6E6E6"/>
<path d="M209.283 249.728H38.7746C37.4389 249.725 36.1586 249.193 35.2149 248.248C34.2712 247.302 33.7412 246.021 33.7412 244.685V4.99808C33.7528 3.66999 34.288 2.40012 35.2304 1.4643C36.1729 0.528471 37.4465 0.00227509 38.7746 0H209.283C210.621 0 211.903 0.531234 212.849 1.47684C213.794 2.42244 214.326 3.70495 214.326 5.04223V244.685C214.326 246.023 213.794 247.305 212.849 248.251C211.903 249.196 210.621 249.728 209.283 249.728ZM38.7746 0.176611C37.4974 0.178951 36.2733 0.687956 35.371 1.5919C34.4687 2.49585 33.962 3.72088 33.962 4.99808V244.685C33.962 245.962 34.4687 247.188 35.371 248.091C36.2733 248.995 37.4974 249.504 38.7746 249.507H209.283C210.561 249.504 211.786 248.996 212.69 248.092C213.594 247.188 214.103 245.963 214.105 244.685V4.99808C214.103 3.72007 213.594 2.49506 212.69 1.59137C211.786 0.687669 210.561 0.178946 209.283 0.176611H38.7746Z" fill="#E6E6E6"/>
<path d="M400.297 249.728H229.779C228.442 249.725 227.161 249.193 226.216 248.248C225.271 247.303 224.739 246.022 224.737 244.685V4.99808C224.751 3.66919 225.288 2.39932 226.232 1.46374C227.176 0.528162 228.45 0.00225028 229.779 0H400.297C401.623 0.00459585 402.895 0.531818 403.835 1.46739C404.776 2.40297 405.31 3.67152 405.321 4.99808V244.685C405.321 246.02 404.792 247.299 403.851 248.244C402.909 249.19 401.631 249.723 400.297 249.728ZM229.779 0.176611C228.501 0.178946 227.276 0.687669 226.372 1.59137C225.469 2.49506 224.96 3.72007 224.958 4.99808V244.685C224.96 245.963 225.469 247.188 226.372 248.092C227.276 248.996 228.501 249.504 229.779 249.507H400.297C401.575 249.504 402.8 248.996 403.703 248.092C404.607 247.188 405.116 245.963 405.118 244.685V4.99808C405.116 3.72007 404.607 2.49506 403.703 1.59137C402.8 0.687669 401.575 0.178946 400.297 0.176611H229.779Z" fill="#E6E6E6"/>
<path d="M230.441 16.4956H51.8438V143.77H230.441V16.4956Z" fill="#FAFAFA"/>
<path d="M233.745 16.4956H53.3896V143.77H233.745V16.4956Z" fill="#F5F5F5"/>
<path d="M229.117 138.569V21.688L58.0168 21.688V138.569H229.117Z" fill="#FAFAFA"/>
<path d="M89.1709 138.569L116.316 21.688H151.903L124.758 138.569H89.1709Z" fill="white"/>
<path d="M130.515 138.569L157.669 21.688H173.741L146.587 138.569H130.515Z" fill="white"/>
<path d="M229.117 138.569V21.688H228.526V138.569H229.117Z" fill="#FAFAFA"/>
<path d="M48.3735 16.2837V66.7237H61.7165C61.7165 66.7237 85.6561 51.0848 91.1398 18.9152C91.2727 18.1447 91.2352 17.3545 91.0298 16.6001C90.8245 15.8457 90.4563 15.1455 89.9513 14.5487C89.4462 13.9519 88.8165 13.473 88.1065 13.1457C87.3965 12.8184 86.6233 12.6507 85.8415 12.6544H52.0029C51.0403 12.6544 50.1172 13.0367 49.4365 13.7174C48.7559 14.398 48.3735 15.3211 48.3735 16.2837Z" fill="#E0E0E0"/>
<path d="M48.3735 159.338V70.7944H61.7165C61.7165 70.7944 88.7997 122.939 91.9346 159.338H48.3735Z" fill="#E0E0E0"/>
<path d="M61.328 66.7236H48.8593C48.1229 66.7236 47.5259 67.3206 47.5259 68.0571V69.4611C47.5259 70.1975 48.1229 70.7945 48.8593 70.7945H61.328C62.0644 70.7945 62.6614 70.1975 62.6614 69.4611V68.0571C62.6614 67.3206 62.0644 66.7236 61.328 66.7236Z" fill="#F5F5F5"/>
<path d="M237.541 16.2837V66.7237H224.172C224.172 66.7237 200.197 51.0848 194.749 18.9152C194.617 18.1449 194.656 17.3553 194.862 16.6016C195.068 15.8479 195.436 15.1483 195.941 14.5518C196.446 13.9554 197.075 13.4765 197.784 13.1487C198.493 12.821 199.266 12.6522 200.047 12.6543H233.921C234.881 12.659 235.801 13.0431 236.479 13.723C237.157 14.4029 237.539 15.3233 237.541 16.2837Z" fill="#E0E0E0"/>
<path d="M237.541 159.338V70.7944H224.172C224.172 70.7944 197.097 122.939 193.954 159.338H237.541Z" fill="#E0E0E0"/>
<path d="M224.56 70.7856H237.029C237.765 70.7856 238.362 70.1886 238.362 69.4522V68.0482C238.362 67.3118 237.765 66.7148 237.029 66.7148H224.56C223.824 66.7148 223.227 67.3118 223.227 68.0482V69.4522C223.227 70.1886 223.824 70.7856 224.56 70.7856Z" fill="#F5F5F5"/>
<path d="M233.506 175.428H204.162V289.112H233.506V175.428Z" fill="#FAFAFA"/>
<path d="M225.673 289.112H233.506V275.981H217.461L225.673 289.112Z" fill="#F4F8FF"/>
<path d="M93.1183 175.428H63.7744V289.112H93.1183V175.428Z" fill="#E0E0E0"/>
<path d="M233.506 175.428H86.2832V284.591H233.506V175.428Z" fill="#FAFAFA"/>
<path d="M130.515 156.124C130.515 166.721 140.723 175.428 153.21 175.428H164.477C176.955 175.428 187.163 166.738 187.163 156.124H130.515Z" fill="#EBEBEB"/>
<path d="M123.98 131.866H145.174C145.174 131.866 141.491 141.58 141.491 147.302C141.491 153.024 157.616 175.427 134.577 175.427C111.538 175.427 127.663 153.015 127.663 147.302C127.663 141.589 123.98 131.866 123.98 131.866Z" fill="#E0E0E0"/>
<path d="M227.43 182.077H92.3584V209.601H227.43V182.077Z" fill="#EBEBEB"/>
<path d="M94.1159 289.112H86.2832V275.981H102.337L94.1159 289.112Z" fill="#FAFAFA"/>
<path d="M155.744 195.835C155.744 196.656 155.988 197.458 156.444 198.141C156.9 198.823 157.548 199.355 158.306 199.669C159.065 199.983 159.899 200.066 160.704 199.906C161.509 199.745 162.249 199.35 162.829 198.77C163.41 198.189 163.805 197.45 163.965 196.645C164.125 195.84 164.043 195.005 163.729 194.247C163.415 193.488 162.883 192.84 162.2 192.384C161.518 191.928 160.715 191.685 159.895 191.685C158.794 191.685 157.738 192.122 156.96 192.9C156.181 193.679 155.744 194.734 155.744 195.835Z" fill="#FAFAFA"/>
<path d="M227.43 216.251H92.3584V243.776H227.43V216.251Z" fill="#EBEBEB"/>
<path d="M155.744 230.009C155.744 230.83 155.988 231.632 156.444 232.315C156.9 232.997 157.548 233.529 158.306 233.843C159.065 234.157 159.899 234.239 160.704 234.079C161.509 233.919 162.249 233.524 162.829 232.943C163.41 232.363 163.805 231.624 163.965 230.818C164.125 230.013 164.043 229.179 163.729 228.42C163.415 227.662 162.883 227.014 162.2 226.558C161.518 226.102 160.715 225.858 159.895 225.858C158.794 225.858 157.738 226.296 156.96 227.074C156.181 227.852 155.744 228.908 155.744 230.009Z" fill="#FAFAFA"/>
<path d="M227.43 250.417H92.3584V277.941H227.43V250.417Z" fill="#EBEBEB"/>
<path d="M159.895 268.333C162.187 268.333 164.045 266.475 164.045 264.183C164.045 261.891 162.187 260.033 159.895 260.033C157.602 260.033 155.744 261.891 155.744 264.183C155.744 266.475 157.602 268.333 159.895 268.333Z" fill="#FAFAFA"/>
<path d="M326.624 14.959H261.075V61.6195H326.624V14.959Z" fill="#E0E0E0"/>
<path d="M331.975 14.959H264.801V61.6195H331.975V14.959Z" fill="#F5F5F5"/>
<path d="M327.692 57.3366V19.2417L269.084 19.2417V57.3366L327.692 57.3366Z" fill="white"/>
<path d="M317.378 46.2368V30.333L279.398 30.333V46.2368H317.378Z" fill="#F5F5F5"/>
<path d="M379.801 38.2891H339.905V80.1281H379.801V38.2891Z" fill="#E0E0E0"/>
<path d="M385.17 38.2891H343.64V80.1281H385.17V38.2891Z" fill="#F5F5F5"/>
<path d="M380.887 75.8457V42.5723H347.923V75.8457H380.887Z" fill="white"/>
<path d="M358.237 59.2092C358.237 57.7399 358.82 56.3307 359.858 55.291C360.897 54.2512 362.305 53.6659 363.774 53.6636H365.028C366.497 53.6659 367.906 54.2512 368.944 55.291C369.982 56.3307 370.565 57.7399 370.565 59.2092C370.565 60.6776 369.981 62.0859 368.943 63.1242C367.905 64.1626 366.496 64.7459 365.028 64.7459H363.818C363.087 64.7517 362.363 64.6128 361.686 64.3372C361.009 64.0615 360.393 63.6546 359.875 63.1399C359.356 62.6252 358.944 62.0129 358.663 61.3382C358.382 60.6636 358.237 59.94 358.237 59.2092Z" fill="#F5F5F5"/>
<path d="M441.527 94.3545H336.179H317.025V118.7H297.872V143.046H278.718V167.392H259.565V191.738H240.411V216.075H221.258V240.42H202.105V264.766H182.951V289.112H202.105H441.527V94.3545Z" fill="#FAFAFA"/>
<path d="M290.154 264.766H180.982V272.069H290.154V264.766Z" fill="#EBEBEB"/>
<path d="M309.307 240.42H200.135V247.723H309.307V240.42Z" fill="#EBEBEB"/>
<path d="M328.46 216.074H219.289V223.377H328.46V216.074Z" fill="#EBEBEB"/>
<path d="M347.614 191.729H238.442V199.032H347.614V191.729Z" fill="#EBEBEB"/>
<path d="M366.768 167.392H257.596V174.694H366.768V167.392Z" fill="#EBEBEB"/>
<path d="M385.921 143.046H276.749V150.349H385.921V143.046Z" fill="#EBEBEB"/>
<path d="M405.074 118.7H295.902V126.003H405.074V118.7Z" fill="#EBEBEB"/>
<path d="M424.228 94.3545H315.056V101.657H424.228V94.3545Z" fill="#EBEBEB"/>
<path d="M422.373 94.3545V118.7H403.22V143.046H384.066V167.392H364.913V191.738H345.76V216.075H326.606V240.42H307.453V264.766H288.299V289.112H307.453H441.527V118.7V94.3545H422.373Z" fill="white"/>
<path d="M322.447 94.4863C323.683 98.6278 330.059 106.381 330.562 112.024C331.065 117.666 320.195 126.691 320.195 126.691C320.195 126.691 312.071 99.5285 317.157 96.3583C322.244 93.1882 322.447 94.4863 322.447 94.4863Z" fill="#263238"/>
<path d="M300.123 123.83C298.198 125.437 296.308 126.788 294.339 128.175C292.37 129.561 290.339 130.824 288.272 132.007C286.199 133.234 284.062 134.351 281.87 135.354C280.758 135.857 279.654 136.352 278.506 136.784C277.941 137.014 277.367 137.235 276.784 137.429L275.018 138.047C273.508 138.469 271.928 138.584 270.373 138.383C269.073 138.231 267.786 137.983 266.523 137.641C264.168 136.989 261.863 136.169 259.626 135.186C255.284 133.29 251.094 131.061 247.096 128.519L248.747 125.446C250.831 126.329 252.968 127.212 255.087 127.98C257.207 128.749 259.344 129.561 261.481 130.223C263.564 130.906 265.687 131.461 267.839 131.884C268.826 132.077 269.827 132.198 270.832 132.246C271.582 132.304 272.336 132.226 273.057 132.016C275.072 131.245 277.042 130.361 278.956 129.367C279.936 128.855 280.908 128.334 281.862 127.768C282.815 127.203 283.787 126.656 284.731 126.073C286.63 124.899 288.484 123.653 290.321 122.373C292.158 121.093 293.986 119.724 295.619 118.426L300.123 123.83Z" fill="#E58A7B"/>
<path d="M304.786 114.426C302.596 112.713 293.536 118.32 290.79 120.66L292.794 132.784C292.794 132.784 305.819 127.327 306.596 123.601C307.417 119.706 306.42 115.733 304.786 114.426Z" fill="#C76700"/>
<path opacity="0.2" d="M304.786 114.426C302.596 112.713 293.536 118.32 290.79 120.66L292.794 132.784C292.794 132.784 305.819 127.327 306.596 123.601C307.417 119.706 306.42 115.733 304.786 114.426Z" fill="black"/>
<path d="M335.26 151.117L307.762 156.477C293.553 118.002 296.644 116.739 296.644 116.739C298.642 115.641 300.707 114.668 302.825 113.825L303.196 113.684C304.962 113.039 305.316 112.942 307.664 112.253C311.709 111.291 315.479 110.487 320.151 109.825L321.034 109.701C321.917 109.595 322.72 109.507 323.533 109.428C324.08 109.366 324.628 109.33 325.149 109.295L326.915 109.198C329.935 109.048 332.099 109.092 332.099 109.092C331.26 133.12 332.62 140.017 335.26 151.117Z" fill="#C76700"/>
<path opacity="0.2" d="M335.26 151.117L307.762 156.477C293.553 118.002 296.644 116.739 296.644 116.739C298.642 115.641 300.707 114.668 302.825 113.825L303.196 113.684C304.962 113.039 305.316 112.942 307.664 112.253C311.709 111.291 315.479 110.487 320.151 109.825L321.034 109.701C321.917 109.595 322.72 109.507 323.533 109.428C324.08 109.366 324.628 109.33 325.149 109.295L326.915 109.198C329.935 109.048 332.099 109.092 332.099 109.092C331.26 133.12 332.62 140.017 335.26 151.117Z" fill="black"/>
<path d="M313.722 97.25C311.956 100.173 318.358 101.524 322.146 98.5305C325.175 96.1286 324.46 90.583 321.864 89.2937C319.268 88.0045 313.722 97.25 313.722 97.25Z" fill="#C76700"/>
<path opacity="0.4" d="M313.722 97.25C311.956 100.173 318.358 101.524 322.146 98.5305C325.175 96.1286 324.46 90.583 321.864 89.2937C319.268 88.0045 313.722 97.25 313.722 97.25Z" fill="black"/>
<path d="M389.144 288.237L383.307 291.911L372.913 279.583L378.75 275.901L389.144 288.237Z" fill="#E58A7B"/>
<path d="M378.759 275.91L372.913 279.583L377.222 284.687L383.192 281.164L378.759 275.91Z" fill="#CF6F64"/>
<path d="M308.185 156.476C308.185 156.476 308.088 211.067 312.548 231.624C317.192 253.012 330.853 301.668 330.853 301.668L340.761 300.388C340.761 300.388 333.017 251.237 329.714 229.982C326.12 206.819 328.328 152.556 328.328 152.556L308.185 156.476Z" fill="#C76700"/>
<path opacity="0.7" d="M308.185 156.476C308.185 156.476 308.088 211.067 312.548 231.624C317.192 253.012 330.853 301.668 330.853 301.668L340.761 300.388C340.761 300.388 333.017 251.237 329.714 229.982C326.12 206.819 328.328 152.556 328.328 152.556L308.185 156.476Z" fill="black"/>
<path opacity="0.5" d="M327.71 176.752L322.853 171.913C323.038 192.885 324.213 203.243 328.248 214.529C327.613 202.599 327.56 188.488 327.71 176.752Z" fill="black"/>
<path d="M315.021 155.064C315.021 155.064 329.829 200.179 337.176 226.167C344.93 253.586 374.653 283.91 374.653 283.91L383.183 278.983C383.183 278.983 362.873 250.195 355.403 224.613C340.214 172.681 346.457 161.678 335.251 151.117L315.021 155.064Z" fill="#C76700"/>
<path opacity="0.7" d="M315.021 155.064C315.021 155.064 329.829 200.179 337.176 226.167C344.93 253.586 374.653 283.91 374.653 283.91L383.183 278.983C383.183 278.983 362.873 250.195 355.403 224.613C340.214 172.681 346.457 161.678 335.251 151.117L315.021 155.064Z" fill="black"/>
<path d="M303.382 81.3198C307.32 82.6356 310.897 92.411 311.047 96.2611C311.197 100.111 299.638 105.418 299.638 105.418C299.638 105.418 294.543 93.0556 295.964 85.1081C296.582 81.6554 303.382 81.3198 303.382 81.3198Z" fill="#263238"/>
<path d="M249.33 125.773L244.659 120.687L243.131 127.062C243.131 127.062 246.452 129.994 249.136 128.987L249.33 125.773Z" fill="#E58A7B"/>
<path d="M239.926 119.229L236.658 121.826L243.131 127.062L244.659 120.687L239.926 119.229Z" fill="#E58A7B"/>
<path d="M381.479 290.595L386.936 285.094C387.031 284.999 387.156 284.942 387.289 284.933C387.421 284.923 387.553 284.961 387.66 285.041L392.632 288.732C392.755 288.828 392.856 288.95 392.929 289.088C393.001 289.227 393.044 289.379 393.053 289.535C393.062 289.692 393.038 289.848 392.982 289.994C392.926 290.14 392.84 290.273 392.729 290.383C390.786 292.264 389.762 293.076 387.36 295.496C385.886 296.988 383.881 299.311 381.841 301.368C379.801 303.426 377.655 301.51 378.309 300.485C381.285 295.831 380.755 294.092 380.958 291.725C380.989 291.298 381.174 290.896 381.479 290.595Z" fill="#263238"/>
<g style="mix-blend-mode:multiply" opacity="0.27">
<path d="M332.991 123.018L328.752 125.543L333.644 143.937C332.576 138.365 333.052 132.245 332.991 123.018Z" fill="#C76700"/>
</g>
<path d="M308.901 94.3009C311.912 96.8176 316.283 100.482 321.431 96.1994C325.847 92.5083 328.937 82.8212 321.016 82.4679C316.875 82.2825 308.901 94.3009 308.901 94.3009Z" fill="#263238"/>
<path d="M316.177 96.0229C316.177 100.191 316.822 107.706 320.151 109.843C320.151 109.843 319.851 114.134 312.38 115.583C304.176 117.181 307.664 112.271 307.664 112.271C311.938 110.328 311.197 107.026 309.784 104.059L316.177 96.0229Z" fill="#E58A7B"/>
<path d="M313.572 99.2988L309.792 104.058C310.124 104.746 310.395 105.461 310.605 106.195C312.265 105.613 314.252 103.281 314.084 101.453C314.048 100.71 313.874 99.9793 313.572 99.2988Z" fill="#CF6F64"/>
<path d="M316.574 86.4504C317.457 93.2411 317.996 96.0933 315.276 100.2C311.188 106.381 302.658 105.984 299.752 99.599C297.103 93.8504 296.114 83.7041 302.154 79.7745C303.482 78.8953 305.013 78.3706 306.602 78.2503C308.19 78.13 309.782 78.4181 311.228 79.0873C312.673 79.7564 313.923 80.7843 314.859 82.0731C315.795 83.362 316.386 84.8688 316.574 86.4504Z" fill="#E58A7B"/>
<path d="M304.777 74.5559C300.185 77.8144 309.395 78.7769 309.404 83.5012C309.404 85.4528 312.61 91.643 317.166 91.2898L321.582 83.4483C326.226 75.9423 315.25 67.1118 304.777 74.5559Z" fill="#263238"/>
<path d="M304.777 74.5555C296.697 74.1317 293.174 80.5603 294.101 86.3355C299.737 84.9301 305.568 84.4676 311.356 84.9667C322.429 86.0971 304.777 74.5555 304.777 74.5555Z" fill="#263238"/>
<path d="M318.782 92.3048C318.894 93.623 318.478 94.9316 317.625 95.943C316.486 97.2764 314.976 96.4905 314.446 94.9098C313.996 93.4793 314.049 91.0686 315.586 90.3091C315.925 90.1521 316.298 90.0821 316.671 90.1055C317.045 90.1288 317.406 90.2447 317.724 90.4427C318.041 90.6408 318.304 90.9147 318.489 91.2398C318.673 91.5649 318.774 91.9309 318.782 92.3048Z" fill="#E58A7B"/>
<path d="M306.764 90.3094C306.87 90.8569 306.667 91.3514 306.313 91.4221C305.96 91.4927 305.58 91.1042 305.474 90.539C305.368 89.9738 305.572 89.4882 305.925 89.4175C306.278 89.3469 306.658 89.7619 306.764 90.3094Z" fill="#263238"/>
<path d="M300.591 91.5107C300.697 92.0582 300.494 92.5615 300.141 92.6322C299.788 92.7028 299.408 92.3143 299.302 91.7491C299.196 91.184 299.399 90.6983 299.752 90.6365C300.106 90.5747 300.485 90.9544 300.591 91.5107Z" fill="#263238"/>
<path d="M299.92 90.6451L298.534 90.5303C298.534 90.5303 299.408 91.4221 299.92 90.6451Z" fill="#263238"/>
<path d="M302.41 92.1372C302.162 93.4749 301.734 94.773 301.139 95.9962C301.455 96.1438 301.8 96.2203 302.15 96.2203C302.499 96.2203 302.844 96.1438 303.161 95.9962L302.41 92.1372Z" fill="#DF5753"/>
<path d="M305.466 97.7626C305.428 97.7632 305.391 97.7501 305.362 97.7258C305.333 97.7015 305.313 97.6676 305.307 97.6302C305.303 97.6093 305.303 97.5878 305.308 97.5671C305.313 97.5464 305.321 97.5268 305.334 97.5095C305.346 97.4922 305.362 97.4776 305.38 97.4664C305.398 97.4553 305.418 97.4479 305.439 97.4447C306.122 97.326 306.767 97.0483 307.322 96.6341C307.877 96.2199 308.327 95.6808 308.636 95.0605C308.644 95.0408 308.656 95.0229 308.671 95.0078C308.686 94.9926 308.704 94.9807 308.724 94.9725C308.743 94.9643 308.764 94.96 308.786 94.96C308.807 94.9599 308.828 94.9641 308.848 94.9722C308.868 94.9803 308.885 94.9922 308.901 95.0073C308.916 95.0223 308.928 95.0402 308.936 95.0599C308.944 95.0796 308.948 95.1007 308.948 95.122C308.948 95.1433 308.944 95.1644 308.936 95.1841C308.613 95.8582 308.132 96.4446 307.534 96.8934C306.936 97.3422 306.239 97.6404 305.501 97.7626H305.466Z" fill="#263238"/>
<path d="M308.186 87.9604C308.105 87.9614 308.026 87.9332 307.965 87.881C307.668 87.5986 307.308 87.3906 306.915 87.2739C306.522 87.1573 306.107 87.1353 305.704 87.2098C305.615 87.2321 305.521 87.2181 305.442 87.1709C305.364 87.1237 305.307 87.0472 305.285 86.9582C305.262 86.8692 305.277 86.775 305.324 86.6963C305.371 86.6177 305.447 86.561 305.536 86.5387C306.046 86.4385 306.571 86.4607 307.07 86.6035C307.569 86.7463 308.027 87.0055 308.406 87.3599C308.467 87.4211 308.501 87.5036 308.501 87.5895C308.501 87.6755 308.467 87.758 308.406 87.8191C308.382 87.857 308.349 87.8892 308.311 87.9136C308.273 87.938 308.23 87.9539 308.186 87.9604Z" fill="#263238"/>
<path d="M297.174 89.188C297.133 89.1971 297.091 89.1971 297.05 89.188C297.01 89.1716 296.973 89.1472 296.943 89.1165C296.912 89.0857 296.887 89.0491 296.871 89.0088C296.854 88.9685 296.846 88.9253 296.847 88.8817C296.847 88.8382 296.856 88.7952 296.874 88.7553C297.062 88.2723 297.362 87.8415 297.751 87.4988C298.14 87.1562 298.605 86.9118 299.108 86.7861C299.15 86.7772 299.194 86.777 299.237 86.7857C299.279 86.7944 299.319 86.8117 299.355 86.8365C299.39 86.8613 299.421 86.8931 299.443 86.93C299.466 86.9669 299.481 87.0081 299.488 87.051C299.496 87.0928 299.497 87.136 299.489 87.178C299.481 87.2199 299.464 87.2598 299.44 87.2953C299.416 87.3307 299.385 87.361 299.35 87.3843C299.314 87.4075 299.274 87.4233 299.231 87.4307C298.835 87.5389 298.468 87.7381 298.162 88.0125C297.855 88.2868 297.617 88.6288 297.465 89.0114C297.437 89.0641 297.395 89.1083 297.344 89.1394C297.292 89.1705 297.234 89.1872 297.174 89.188Z" fill="#263238"/>
<path d="M379.43 293.8C379.279 293.796 379.131 293.756 378.998 293.682C378.866 293.608 378.754 293.503 378.671 293.377C378.608 293.302 378.566 293.212 378.549 293.116C378.532 293.02 378.541 292.921 378.574 292.829C378.883 291.999 381.32 291.469 381.594 291.407C381.626 291.402 381.658 291.405 381.688 291.418C381.718 291.43 381.743 291.451 381.762 291.478C381.78 291.504 381.79 291.535 381.79 291.566C381.79 291.598 381.78 291.629 381.762 291.655C381.285 292.441 380.349 293.756 379.475 293.8H379.43ZM381.276 291.814C380.313 292.061 379.042 292.502 378.883 292.944C378.867 292.984 378.864 293.029 378.873 293.071C378.883 293.113 378.905 293.152 378.936 293.182C378.991 293.273 379.068 293.348 379.161 293.4C379.255 293.451 379.36 293.476 379.466 293.474C379.934 293.447 380.596 292.838 381.276 291.814Z" fill="#C76700"/>
<path d="M380.879 291.813C379.996 291.813 378.892 291.593 378.565 291.116C378.493 291.007 378.459 290.877 378.47 290.747C378.482 290.617 378.537 290.495 378.627 290.4C378.704 290.302 378.802 290.221 378.913 290.163C379.024 290.105 379.146 290.072 379.272 290.065H379.342C380.331 290.065 381.691 291.398 381.744 291.451C381.765 291.471 381.781 291.497 381.788 291.525C381.796 291.553 381.796 291.582 381.788 291.61C381.78 291.638 381.766 291.662 381.746 291.682C381.726 291.703 381.701 291.717 381.673 291.725C381.413 291.788 381.146 291.817 380.879 291.813ZM379.342 290.392H379.289C379.21 290.394 379.132 290.415 379.062 290.451C378.992 290.488 378.931 290.54 378.883 290.604C378.759 290.771 378.795 290.869 378.839 290.93C379.104 291.337 380.455 291.566 381.285 291.469C380.755 290.929 380.08 290.555 379.342 290.392Z" fill="#C76700"/>
<path d="M306.092 89.4439L304.706 89.3203C304.706 89.3203 305.58 90.221 306.092 89.4439Z" fill="#263238"/>
<path d="M312.159 121.455C297.386 124.749 301.951 115.812 302.834 113.843L303.205 113.702C304.971 113.057 305.324 112.96 307.673 112.271C311.772 111.165 315.945 110.353 320.16 109.843L321.043 109.719C321.926 109.604 322.729 109.516 323.542 109.445C324.089 109.384 324.637 109.348 325.158 109.313L326.924 109.207C327.224 110.585 327.957 117.949 312.159 121.455Z" fill="#E58A7B"/>
<path d="M335.348 149.421L337.07 151.646C337.203 151.814 337.017 152.052 336.699 152.114L307.859 157.73C307.612 157.783 307.382 157.731 307.338 157.545L306.605 155.134C306.605 154.967 306.746 154.781 307.011 154.728L334.863 149.306C334.947 149.281 335.036 149.279 335.121 149.299C335.206 149.319 335.284 149.361 335.348 149.421Z" fill="#26395A"/>
<path d="M332.214 153.262L332.964 153.121C333.114 153.121 333.211 152.997 333.185 152.9L332.214 149.774C332.214 149.677 332.037 149.633 331.887 149.659L331.145 149.801C330.995 149.801 330.898 149.933 330.924 150.021L331.896 153.156C331.922 153.245 332.072 153.298 332.214 153.262Z" fill="#C76700"/>
<path d="M315.321 163.682L309.572 161.545L310.455 167.012C310.455 167.012 314.623 168.513 316.751 166.588L315.321 163.682Z" fill="#E58A7B"/>
<path d="M304.097 162.994L302.728 166.579L310.455 167.012L309.572 161.545L304.097 162.994Z" fill="#E58A7B"/>
<path d="M310.005 157.589L310.755 157.448C310.896 157.448 311.002 157.325 310.967 157.227L309.996 154.101C309.996 154.004 309.828 153.96 309.678 153.987L308.927 154.128C308.777 154.128 308.68 154.26 308.715 154.349L309.687 157.483C309.713 157.572 309.854 157.625 310.005 157.589Z" fill="#C76700"/>
<path d="M321.113 155.417L321.855 155.276C322.005 155.276 322.102 155.152 322.076 155.055L321.105 151.929C321.105 151.832 320.928 151.788 320.778 151.814L320.036 151.956C319.886 151.956 319.789 152.088 319.815 152.176L320.787 155.311C320.822 155.362 320.873 155.4 320.932 155.419C320.991 155.439 321.055 155.438 321.113 155.417Z" fill="#C76700"/>
<path d="M317.97 106.337C318.597 106.098 319.383 108.306 319.188 108.589C318.738 109.233 310.49 111.485 310.119 110.222C310.096 109.538 310.201 108.855 310.428 108.209C310.667 107.785 312.495 108.562 317.97 106.337Z" fill="#C76700"/>
<path d="M316.575 106.39C316.893 105.657 317.802 104.482 318.597 105.153C319.392 105.825 319.727 107.273 319.206 107.511C318.685 107.75 316.027 107.617 316.575 106.39Z" fill="#C76700"/>
<path d="M318.261 106.77C318.809 106.187 320.027 105.383 320.583 106.284C321.14 107.185 320.937 108.66 320.372 108.704C319.806 108.748 317.334 107.732 318.261 106.77Z" fill="#C76700"/>
<path d="M318.562 106.637C318.517 106.168 318.609 105.695 318.827 105.277C319.045 104.859 319.379 104.512 319.789 104.279C320.796 103.626 321.776 103.202 322.165 102.513C322.332 103.159 322.365 103.832 322.262 104.491C322.059 105.436 318.924 106.16 319.136 106.981L318.562 106.637Z" fill="#C76700"/>
<path d="M318.429 106.593C318.137 106.223 317.958 105.775 317.914 105.305C317.87 104.835 317.963 104.362 318.182 103.944C318.659 102.849 319.259 101.966 319.224 101.189C319.715 101.641 320.108 102.188 320.381 102.796C320.716 103.679 318.482 106.002 319.109 106.584L318.429 106.593Z" fill="#C76700"/>
<path d="M379.845 279.098C379.827 279.097 379.81 279.092 379.794 279.083C379.779 279.073 379.766 279.06 379.757 279.045C379.554 278.762 359.367 249.957 351.967 224.649C347.138 208.414 343.426 191.869 340.859 175.127C339.331 165.696 338.404 160 335.366 155.329C335.345 155.308 335.334 155.279 335.334 155.25C335.334 155.22 335.345 155.191 335.366 155.17C335.387 155.152 335.413 155.142 335.441 155.142C335.469 155.142 335.495 155.152 335.516 155.17C338.589 159.886 339.516 165.599 341.044 175.056C343.624 191.774 347.341 208.296 352.17 224.507C359.562 249.78 379.731 278.55 379.934 278.842C379.95 278.863 379.959 278.89 379.959 278.917C379.959 278.944 379.95 278.97 379.934 278.992C379.932 279.017 379.923 279.04 379.907 279.06C379.891 279.079 379.87 279.092 379.845 279.098Z" fill="#C76700"/>
<path opacity="0.4" d="M379.845 279.098C379.827 279.097 379.81 279.092 379.794 279.083C379.779 279.073 379.766 279.06 379.757 279.045C379.554 278.762 359.367 249.957 351.967 224.649C347.138 208.414 343.426 191.869 340.859 175.127C339.331 165.696 338.404 160 335.366 155.329C335.345 155.308 335.334 155.279 335.334 155.25C335.334 155.22 335.345 155.191 335.366 155.17C335.387 155.152 335.413 155.142 335.441 155.142C335.469 155.142 335.495 155.152 335.516 155.17C338.589 159.886 339.516 165.599 341.044 175.056C343.624 191.774 347.341 208.296 352.17 224.507C359.562 249.78 379.731 278.55 379.934 278.842C379.95 278.863 379.959 278.89 379.959 278.917C379.959 278.944 379.95 278.97 379.934 278.992C379.932 279.017 379.923 279.04 379.907 279.06C379.891 279.079 379.87 279.092 379.845 279.098Z" fill="black"/>
<path d="M383.898 278.682L373.946 284.431L370.591 281.561L381.479 274.196L383.898 278.682Z" fill="#C76700"/>
<path d="M337.194 118.443C337.671 120.898 337.944 123.212 338.209 125.605C338.474 127.998 338.571 130.365 338.642 132.758C338.712 135.17 338.659 137.583 338.483 139.99C338.386 141.2 338.28 142.409 338.112 143.628C338.042 144.229 337.962 144.838 337.847 145.447L337.521 147.319C337.159 148.845 336.495 150.283 335.569 151.549C334.809 152.614 333.971 153.621 333.061 154.56C331.357 156.311 329.527 157.934 327.586 159.417C323.831 162.308 319.857 164.903 315.7 167.179L313.811 164.247C315.577 162.843 317.343 161.395 319.109 159.92C320.875 158.446 322.553 156.953 324.169 155.399C325.766 153.903 327.272 152.314 328.681 150.639C329.328 149.865 329.918 149.044 330.447 148.185C330.864 147.558 331.164 146.861 331.33 146.127C331.618 143.983 331.786 141.825 331.834 139.663C331.834 138.559 331.834 137.455 331.834 136.352C331.834 135.248 331.79 134.126 331.737 133.014C331.631 130.788 331.427 128.598 331.189 126.338C330.951 124.077 330.642 121.843 330.306 119.75L337.194 118.443Z" fill="#E58A7B"/>
<path d="M336.125 110.937C339.896 113.993 338.995 123.071 338.995 123.071L326.279 127.256C326.279 127.256 326.862 116.792 327.498 113.03C328.24 108.553 332.408 107.926 336.125 110.937Z" fill="#C76700"/>
<path opacity="0.2" d="M336.125 110.937C339.896 113.993 338.995 123.071 338.995 123.071L326.279 127.256C326.279 127.256 326.862 116.792 327.498 113.03C328.24 108.553 332.408 107.926 336.125 110.937Z" fill="black"/>
<path d="M168.142 148.821C167.649 146.679 166.444 144.769 164.725 143.401C163.005 142.033 160.873 141.288 158.676 141.288H88.0315C85.4553 141.288 82.9846 142.311 81.1629 144.133C79.3413 145.955 78.3179 148.425 78.3179 151.002V308.026C78.3179 310.602 79.3413 313.073 81.1629 314.895C82.9846 316.716 85.4553 317.74 88.0315 317.74H312.327C314.903 317.74 317.374 316.716 319.196 314.895C321.017 313.073 322.041 310.602 322.041 308.026V176.125C322.041 173.548 321.017 171.078 319.196 169.256C317.374 167.434 314.903 166.411 312.327 166.411H190.245C185.114 166.412 180.135 164.673 176.12 161.478C172.105 158.283 169.293 153.821 168.142 148.821Z" fill="#C76700"/>
<path opacity="0.6" d="M168.142 148.821C167.649 146.679 166.444 144.769 164.725 143.401C163.005 142.033 160.873 141.288 158.676 141.288H88.0315C85.4553 141.288 82.9846 142.311 81.1629 144.133C79.3413 145.955 78.3179 148.425 78.3179 151.002V308.026C78.3179 310.602 79.3413 313.073 81.1629 314.895C82.9846 316.716 85.4553 317.74 88.0315 317.74H312.327C314.903 317.74 317.374 316.716 319.196 314.895C321.017 313.073 322.041 310.602 322.041 308.026V176.125C322.041 173.548 321.017 171.078 319.196 169.256C317.374 167.434 314.903 166.411 312.327 166.411H190.245C185.114 166.412 180.135 164.673 176.12 161.478C172.105 158.283 169.293 153.821 168.142 148.821Z" fill="black"/>
<path opacity="0.22" d="M143.205 99.917L149.501 120.307C150.305 122.902 152.105 125.072 154.508 126.34C156.91 127.608 159.718 127.871 162.314 127.071L182.695 120.775L143.205 99.917Z" fill="#C76700"/>
<path d="M143.205 99.917L70.3531 122.426C69.067 122.821 67.8714 123.466 66.8348 124.323C65.7982 125.181 64.9408 126.235 64.3117 127.424C63.6827 128.613 63.2942 129.915 63.1687 131.254C63.0431 132.594 63.1829 133.945 63.58 135.23L105.172 269.878C105.569 271.164 106.215 272.359 107.074 273.394C107.933 274.43 108.987 275.287 110.177 275.915C111.367 276.543 112.669 276.93 114.009 277.055C115.348 277.18 116.699 277.04 117.985 276.643L211.227 247.837C212.512 247.441 213.706 246.796 214.742 245.938C215.778 245.08 216.634 244.026 217.262 242.837C217.891 241.648 218.278 240.347 218.403 239.008C218.528 237.668 218.388 236.318 217.991 235.033L182.669 120.775L143.205 99.917Z" fill="#C76700"/>
<path opacity="0.8" d="M143.205 99.917L70.3531 122.426C69.067 122.821 67.8714 123.466 66.8348 124.323C65.7982 125.181 64.9408 126.235 64.3117 127.424C63.6827 128.613 63.2942 129.915 63.1687 131.254C63.0431 132.594 63.1829 133.945 63.58 135.23L105.172 269.878C105.569 271.164 106.215 272.359 107.074 273.394C107.933 274.43 108.987 275.287 110.177 275.915C111.367 276.543 112.669 276.93 114.009 277.055C115.348 277.18 116.699 277.04 117.985 276.643L211.227 247.837C212.512 247.441 213.706 246.796 214.742 245.938C215.778 245.08 216.634 244.026 217.262 242.837C217.891 241.648 218.278 240.347 218.403 239.008C218.528 237.668 218.388 236.318 217.991 235.033L182.669 120.775L143.205 99.917Z" fill="white"/>
<g opacity="0.28">
<path d="M182.403 241.956L121.791 260.677C120.657 261.025 119.432 260.91 118.383 260.357C117.334 259.805 116.546 258.859 116.192 257.727C115.847 256.594 115.964 255.37 116.519 254.322C117.073 253.275 118.019 252.49 119.15 252.137L179.763 233.408C180.898 233.06 182.124 233.176 183.173 233.731C184.223 234.285 185.01 235.233 185.362 236.366C185.707 237.5 185.589 238.724 185.035 239.771C184.481 240.818 183.535 241.604 182.403 241.956Z" fill="#C76700"/>
</g>
<g opacity="0.28">
<path d="M117.172 132.087L85.1175 141.986C83.984 142.332 82.7598 142.216 81.7113 141.663C80.6628 141.111 79.8749 140.167 79.519 139.036C79.1736 137.902 79.2908 136.676 79.8449 135.628C80.399 134.579 81.3452 133.792 82.4772 133.438L114.532 123.539C115.666 123.188 116.892 123.302 117.942 123.855C118.991 124.408 119.779 125.355 120.131 126.488C120.476 127.623 120.359 128.848 119.805 129.897C119.251 130.946 118.304 131.733 117.172 132.087Z" fill="#C76700"/>
</g>
<g opacity="0.28">
<path d="M143.328 142.586L90.3452 158.949C89.214 159.289 87.9945 159.169 86.9513 158.615C85.9081 158.061 85.1254 157.118 84.7731 155.991C84.4252 154.858 84.5403 153.634 85.0931 152.587C85.6459 151.539 86.5914 150.753 87.7225 150.401L140.706 134.038C141.839 133.69 143.065 133.805 144.114 134.357C145.163 134.91 145.95 135.856 146.304 136.987C146.646 138.124 146.526 139.351 145.968 140.399C145.411 141.448 144.462 142.234 143.328 142.586Z" fill="#C76700"/>
</g>
<g opacity="0.28">
<path d="M172.911 152.026L95.5904 175.868C94.4581 176.216 93.234 176.101 92.1863 175.548C91.1386 174.996 90.3527 174.05 90.0007 172.919C89.655 171.785 89.7709 170.561 90.3233 169.513C90.8756 168.464 91.8197 167.676 92.9501 167.32L170.27 143.478C171.403 143.132 172.626 143.249 173.673 143.801C174.72 144.354 175.506 145.298 175.86 146.427C176.208 147.561 176.093 148.786 175.541 149.835C174.988 150.884 174.042 151.672 172.911 152.026Z" fill="#C76700"/>
</g>
<g opacity="0.28">
<path d="M178.147 168.981L133.2 182.871C132.066 183.216 130.842 183.099 129.795 182.545C128.747 181.99 127.962 181.044 127.61 179.913C127.264 178.781 127.38 177.558 127.933 176.511C128.485 175.463 129.429 174.677 130.559 174.323L175.507 160.433C176.641 160.09 177.865 160.208 178.914 160.762C179.962 161.316 180.749 162.26 181.105 163.391C181.45 164.525 181.333 165.749 180.779 166.796C180.224 167.843 179.278 168.629 178.147 168.981Z" fill="#C76700"/>
</g>
<g opacity="0.28">
<path d="M112.589 189.238L100.836 192.867C99.7025 193.216 98.4772 193.101 97.4281 192.548C96.379 191.995 95.5914 191.05 95.2375 189.918C94.8897 188.783 95.0057 187.557 95.5602 186.508C96.1146 185.458 97.0623 184.672 98.1957 184.32L109.949 180.69C111.083 180.344 112.307 180.46 113.355 181.013C114.404 181.565 115.192 182.509 115.548 183.64C115.891 184.774 115.772 185.998 115.219 187.047C114.665 188.095 113.72 188.882 112.589 189.238Z" fill="#C76700"/>
</g>
<g opacity="0.28">
<path d="M183.392 185.944L106.072 209.83C104.939 210.176 103.715 210.058 102.667 209.504C101.62 208.95 100.835 208.004 100.483 206.872C100.135 205.74 100.25 204.516 100.803 203.468C101.355 202.42 102.301 201.635 103.432 201.283L180.752 177.396C181.885 177.05 183.108 177.167 184.155 177.719C185.202 178.272 185.988 179.216 186.342 180.345C186.69 181.479 186.575 182.704 186.023 183.753C185.47 184.802 184.524 185.59 183.392 185.944Z" fill="#C76700"/>
</g>
<g opacity="0.28">
<path d="M158.791 212.118L111.309 226.785C110.177 227.131 108.954 227.015 107.907 226.462C106.86 225.91 106.073 224.966 105.719 223.836C105.374 222.702 105.49 221.478 106.042 220.43C106.594 219.381 107.538 218.593 108.669 218.237L156.151 203.57C157.285 203.224 158.511 203.342 159.559 203.896C160.608 204.45 161.395 205.396 161.749 206.528C162.097 207.662 161.98 208.887 161.426 209.935C160.871 210.982 159.924 211.768 158.791 212.118Z" fill="#C76700"/>
</g>
<g opacity="0.28">
<path d="M188.629 202.907L175.957 206.819C174.822 207.165 173.597 207.048 172.548 206.494C171.5 205.939 170.713 204.993 170.359 203.861C170.013 202.728 170.131 201.504 170.685 200.456C171.239 199.409 172.185 198.624 173.317 198.271L185.989 194.36C187.121 194.012 188.345 194.127 189.393 194.68C190.44 195.232 191.226 196.178 191.578 197.309C191.926 198.442 191.812 199.668 191.259 200.717C190.706 201.766 189.761 202.554 188.629 202.907Z" fill="#C76700"/>
</g>
<g opacity="0.28">
<path d="M193.865 219.88L116.563 243.722C115.428 244.07 114.202 243.954 113.152 243.4C112.103 242.845 111.316 241.898 110.964 240.764C110.617 239.631 110.733 238.406 111.288 237.358C111.842 236.31 112.79 235.525 113.922 235.174L191.234 211.288C192.369 210.945 193.593 211.063 194.641 211.617C195.689 212.171 196.476 213.115 196.832 214.246C197.01 214.811 197.074 215.405 197.02 215.994C196.967 216.584 196.798 217.157 196.522 217.681C196.246 218.204 195.869 218.668 195.413 219.046C194.957 219.423 194.431 219.707 193.865 219.88Z" fill="#C76700"/>
</g>
<path d="M195.525 49.283L218.644 100.8C219.244 102.145 219.287 103.673 218.764 105.05C218.242 106.426 217.195 107.54 215.853 108.147L117.781 152.168C116.437 152.77 114.908 152.815 113.531 152.292C112.153 151.768 111.04 150.72 110.434 149.377L87.3072 97.8597C86.7019 96.5143 86.6558 94.9834 87.1791 93.6039C87.7024 92.2245 88.7522 91.1094 90.0977 90.5039L188.17 46.4837C189.517 45.8837 191.047 45.8414 192.425 46.3659C193.803 46.8904 194.918 47.9392 195.525 49.283Z" fill="#C76700"/>
<path opacity="0.3" d="M195.525 49.283L218.644 100.8C219.244 102.145 219.287 103.673 218.764 105.05C218.242 106.426 217.195 107.54 215.853 108.147L117.781 152.168C116.437 152.77 114.908 152.815 113.531 152.292C112.153 151.768 111.04 150.72 110.434 149.377L87.3072 97.8597C86.7019 96.5143 86.6558 94.9834 87.1791 93.6039C87.7024 92.2245 88.7522 91.1094 90.0977 90.5039L188.17 46.4837C189.517 45.8837 191.047 45.8414 192.425 46.3659C193.803 46.8904 194.918 47.9392 195.525 49.283Z" fill="black"/>
<path d="M180.069 46.7371L176.935 48.1431L177.296 48.9488L180.431 47.5428L180.069 46.7371Z" fill="#C76700"/>
<path d="M172.546 50.1077L162.772 54.4917L163.134 55.2974L172.907 50.9134L172.546 50.1077Z" fill="#C76700"/>
<path d="M87.2206 103.051L86.415 103.413L89.0916 109.374L89.8972 109.013L87.2206 103.051Z" fill="#C76700"/>
<path opacity="0.6" d="M192.241 46.2982L166.95 95.8375C164.603 100.429 160.76 104.083 156.056 106.194C151.351 108.305 146.067 108.748 141.076 107.45L87.2544 93.418C87.8065 92.1266 88.8204 91.0875 90.0978 90.5039L188.17 46.4837C189.454 45.9092 190.909 45.8429 192.241 46.2982Z" fill="#C76700"/>
<path d="M227.006 109.701L150.905 114.399C149.56 114.479 148.245 114.823 147.033 115.412C145.822 116.001 144.739 116.823 143.846 117.831C142.953 118.839 142.267 120.013 141.828 121.287C141.389 122.56 141.206 123.907 141.288 125.252L149.969 265.904C150.05 267.25 150.395 268.566 150.986 269.777C151.576 270.989 152.4 272.072 153.41 272.964C154.42 273.857 155.596 274.541 156.871 274.979C158.145 275.416 159.494 275.597 160.839 275.512L258.24 269.499C259.583 269.418 260.897 269.072 262.106 268.483C263.315 267.893 264.396 267.071 265.287 266.062C266.178 265.054 266.861 263.88 267.298 262.607C267.734 261.335 267.915 259.989 267.83 258.646L260.5 139.283L227.006 109.701Z" fill="#C76700"/>
<path opacity="0.8" d="M227.006 109.701L150.905 114.399C149.56 114.479 148.245 114.823 147.033 115.412C145.822 116.001 144.739 116.823 143.846 117.831C142.953 118.839 142.267 120.013 141.828 121.287C141.389 122.56 141.206 123.907 141.288 125.252L149.969 265.904C150.05 267.25 150.395 268.566 150.986 269.777C151.576 270.989 152.4 272.072 153.41 272.964C154.42 273.857 155.596 274.541 156.871 274.979C158.145 275.416 159.494 275.597 160.839 275.512L258.24 269.499C259.583 269.418 260.897 269.072 262.106 268.483C263.315 267.893 264.396 267.071 265.287 266.062C266.178 265.054 266.861 263.88 267.298 262.607C267.734 261.335 267.915 259.989 267.83 258.646L260.5 139.283L227.006 109.701Z" fill="white"/>
<g opacity="0.22">
<path d="M231.607 256.968L168.284 260.88C167.101 260.948 165.939 260.545 165.052 259.759C164.165 258.973 163.625 257.868 163.55 256.686C163.483 255.503 163.884 254.342 164.668 253.454C165.452 252.566 166.554 252.023 167.736 251.944L231.06 248.041C232.243 247.97 233.406 248.371 234.294 249.155C235.182 249.94 235.725 251.044 235.802 252.226C235.872 253.411 235.47 254.575 234.684 255.463C233.898 256.352 232.791 256.893 231.607 256.968Z" fill="#C76700"/>
</g>
<g opacity="0.22">
<path d="M194.13 134.824L160.636 136.872C159.454 136.94 158.292 136.539 157.404 135.755C156.516 134.971 155.974 133.869 155.894 132.687C155.826 131.503 156.229 130.34 157.015 129.452C157.8 128.564 158.905 128.022 160.089 127.945L193.583 125.878C194.765 125.808 195.927 126.209 196.814 126.994C197.701 127.778 198.241 128.882 198.316 130.064C198.391 131.25 197.992 132.417 197.208 133.31C196.423 134.202 195.316 134.747 194.13 134.824Z" fill="#C76700"/>
</g>
<g opacity="0.22">
<path d="M217.072 151.196L161.731 154.604C160.548 154.677 159.384 154.277 158.495 153.492C157.606 152.708 157.064 151.602 156.989 150.419C156.919 149.234 157.321 148.07 158.107 147.182C158.893 146.293 160 145.752 161.184 145.677L216.516 142.268C217.7 142.196 218.864 142.596 219.753 143.38C220.642 144.165 221.183 145.27 221.258 146.454C221.328 147.637 220.927 148.8 220.143 149.688C219.359 150.577 218.255 151.119 217.072 151.196Z" fill="#C76700"/>
</g>
<g opacity="0.22">
<path d="M243.59 167.347L162.826 172.328C161.639 172.4 160.472 172 159.58 171.213C158.688 170.427 158.144 169.32 158.066 168.133C157.996 166.951 158.397 165.789 159.182 164.902C159.966 164.015 161.07 163.475 162.252 163.4L243.025 158.411C244.208 158.343 245.37 158.746 246.257 159.532C247.143 160.318 247.683 161.423 247.758 162.605C247.829 163.785 247.43 164.946 246.65 165.833C245.869 166.721 244.77 167.265 243.59 167.347Z" fill="#C76700"/>
</g>
<g opacity="0.22">
<path d="M244.685 185.061L197.733 187.957C196.55 188.028 195.388 187.627 194.499 186.843C193.611 186.058 193.069 184.954 192.991 183.772C192.919 182.588 193.319 181.424 194.103 180.535C194.888 179.646 195.994 179.105 197.177 179.03L244.129 176.133C245.312 176.061 246.477 176.461 247.366 177.246C248.255 178.03 248.796 179.136 248.871 180.319C248.941 181.502 248.54 182.665 247.756 183.553C246.972 184.442 245.868 184.984 244.685 185.061Z" fill="#C76700"/>
</g>
<g opacity="0.22">
<path d="M176.196 189.282L163.912 190.042C162.73 190.112 161.569 189.711 160.682 188.926C159.794 188.142 159.254 187.038 159.179 185.856C159.109 184.673 159.51 183.51 160.294 182.622C161.078 181.733 162.182 181.191 163.365 181.114L175.648 180.355C176.832 180.287 177.995 180.69 178.883 181.475C179.771 182.261 180.313 183.366 180.39 184.549C180.458 185.732 180.055 186.894 179.269 187.781C178.483 188.667 177.378 189.207 176.196 189.282Z" fill="#C76700"/>
</g>
<g opacity="0.22">
<path d="M245.781 202.775L165.008 207.755C163.825 207.825 162.662 207.425 161.773 206.64C160.885 205.856 160.343 204.752 160.266 203.57C160.198 202.386 160.601 201.223 161.386 200.335C162.172 199.447 163.277 198.905 164.46 198.828L245.224 193.847C246.409 193.777 247.573 194.179 248.461 194.965C249.35 195.751 249.891 196.858 249.966 198.042C250.036 199.224 249.635 200.386 248.851 201.273C248.066 202.16 246.962 202.7 245.781 202.775Z" fill="#C76700"/>
</g>
<g opacity="0.22">
<path d="M215.703 222.414L166.102 225.478C164.918 225.546 163.756 225.143 162.868 224.357C161.979 223.572 161.438 222.467 161.36 221.284C161.293 220.101 161.696 218.939 162.482 218.052C163.268 217.165 164.372 216.626 165.555 216.551L215.156 213.486C216.339 213.419 217.501 213.822 218.387 214.608C219.274 215.393 219.814 216.498 219.889 217.681C219.962 218.864 219.561 220.027 218.776 220.914C217.992 221.802 216.886 222.341 215.703 222.414Z" fill="#C76700"/>
</g>
<g opacity="0.22">
<path d="M246.866 220.498L233.62 221.31C232.438 221.381 231.277 220.98 230.39 220.195C229.502 219.411 228.962 218.307 228.887 217.125C228.815 215.941 229.215 214.777 229.999 213.888C230.784 212.999 231.89 212.458 233.073 212.383L246.319 211.57C247.502 211.498 248.666 211.898 249.555 212.683C250.444 213.467 250.986 214.573 251.061 215.756C251.129 216.94 250.726 218.103 249.94 218.991C249.154 219.879 248.05 220.421 246.866 220.498Z" fill="#C76700"/>
</g>
<g opacity="0.22">
<path d="M247.961 238.212L167.197 243.193C166.014 243.263 164.851 242.862 163.963 242.078C163.074 241.294 162.532 240.19 162.455 239.007C162.385 237.824 162.786 236.661 163.57 235.773C164.354 234.884 165.458 234.342 166.641 234.265L247.414 229.285C248.596 229.215 249.758 229.616 250.645 230.4C251.532 231.185 252.072 232.289 252.147 233.47C252.219 234.654 251.819 235.818 251.035 236.707C250.25 237.596 249.145 238.137 247.961 238.212Z" fill="#C76700"/>
</g>
<path opacity="0.22" d="M227.006 109.701L228.322 131C228.404 132.343 228.75 133.657 229.34 134.866C229.93 136.075 230.752 137.157 231.76 138.048C232.768 138.939 233.941 139.623 235.214 140.061C236.486 140.499 237.832 140.682 239.175 140.599L260.501 139.283L227.006 109.701Z" fill="#C76700"/>
<path opacity="0.5" d="M202.087 162.835C202.074 161.814 201.856 160.806 201.446 159.871C201.037 158.936 200.445 158.093 199.704 157.39C198.963 156.688 198.089 156.142 197.133 155.783C196.177 155.424 195.159 155.261 194.139 155.302H123.407C118.047 155.302 112.81 159.656 111.804 165.016L83.8902 308.026C82.8482 313.386 86.3451 317.74 91.7052 317.74H316.001C321.361 317.74 326.553 313.395 327.604 308.026L350.625 190.139C351.667 184.77 348.17 180.425 342.81 180.425H220.764C210.167 180.425 202.449 173.131 202.087 162.835Z" fill="#C76700"/>
</svg>
