<svg width="367" height="270" viewBox="0 0 367 270" fill="none" xmlns="http://www.w3.org/2000/svg">
<path d="M330.001 251.533H305.748V251.716H330.001V251.533Z" fill="#EBEBEB"/>
<path d="M243.095 253.524H236.731V253.707H243.095V253.524Z" fill="#EBEBEB"/>
<path d="M305.015 244.735H290.963V244.918H305.015V244.735Z" fill="#EBEBEB"/>
<path d="M70.5902 245.966H38.9629V246.149H70.5902V245.966Z" fill="#EBEBEB"/>
<path d="M81.7501 245.966H77.1147V246.149H81.7501V245.966Z" fill="#EBEBEB"/>
<path d="M165.421 249.057H96.8208V249.24H165.421V249.057Z" fill="#EBEBEB"/>
<path d="M174.099 207.09H32.7097C31.6007 207.09 30.5372 206.649 29.753 205.865C28.9689 205.081 28.5283 204.018 28.5283 202.909V4.14473C28.538 3.04212 28.9828 1.98797 29.7659 1.21171C30.549 0.435462 31.607 -4.22718e-05 32.7097 3.07746e-09H174.099C175.208 3.07747e-09 176.272 0.440533 177.056 1.22469C177.84 2.00884 178.28 3.07238 178.28 4.18134V202.909C178.28 204.018 177.84 205.081 177.056 205.865C176.272 206.649 175.208 207.09 174.099 207.09ZM32.7097 0.146457C31.6498 0.148393 30.634 0.570259 29.8846 1.31966C29.1352 2.06906 28.7133 3.08491 28.7114 4.14473V202.909C28.7133 203.968 29.1352 204.984 29.8846 205.734C30.634 206.483 31.6498 206.905 32.7097 206.907H174.099C175.159 206.905 176.175 206.483 176.924 205.734C177.674 204.984 178.095 203.968 178.097 202.909V4.14473C178.095 3.08491 177.674 2.06906 176.924 1.31966C176.175 0.570259 175.159 0.148393 174.099 0.146457H32.7097Z" fill="#EBEBEB"/>
<path d="M332.499 207.09H191.095C189.987 207.088 188.925 206.647 188.141 205.863C187.357 205.079 186.916 204.017 186.914 202.909V4.14473C186.926 3.04272 187.371 1.98967 188.154 1.21383C188.936 0.437985 189.993 0.00186607 191.095 0H332.499C333.6 0.00381117 334.654 0.441017 335.434 1.21686C336.214 1.9927 336.657 3.04466 336.666 4.14473V202.909C336.666 204.015 336.228 205.076 335.447 205.86C334.666 206.644 333.606 207.086 332.499 207.09ZM191.095 0.146457C190.036 0.148393 189.02 0.570259 188.27 1.31966C187.521 2.06906 187.099 3.08491 187.097 4.14473V202.909C187.099 203.968 187.521 204.984 188.27 205.734C189.02 206.483 190.036 206.905 191.095 206.907H332.499C333.559 206.905 334.575 206.483 335.325 205.734C336.074 204.984 336.496 203.968 336.498 202.909V4.14473C336.496 3.08491 336.074 2.06906 335.325 1.31966C334.575 0.570259 333.559 0.148393 332.499 0.146457H191.095Z" fill="#EBEBEB"/>
<path d="M366.689 239.749H0.546875V239.932H366.689V239.749Z" fill="#EBEBEB"/>
<path d="M110.975 117.107L67.5509 127.418C67.3725 127.46 67.1875 127.467 67.0065 127.438C66.8255 127.408 66.6521 127.343 66.4962 127.247C66.3404 127.15 66.2052 127.024 66.0984 126.875C65.9916 126.726 65.9153 126.557 65.874 126.378L52.0851 68.3227C51.9991 67.9625 52.0596 67.5828 52.2531 67.2671C52.4467 66.9514 52.7576 66.7253 53.1176 66.6385L79.8679 60.2896L102.217 74.2029L112.015 115.445C112.096 115.803 112.033 116.179 111.838 116.491C111.643 116.802 111.333 117.024 110.975 117.107Z" fill="#F0F0F0"/>
<path d="M102.218 74.1883L79.8684 60.2896L78.4478 60.6264L83.7129 82.7926L103.162 78.1719L102.218 74.1883Z" fill="#E6E6E6"/>
<path d="M102.181 74.0345L84.152 78.3184L79.8682 60.2896L102.181 74.0345Z" fill="#FAFAFA"/>
<path d="M96.345 80.9517L64.2271 88.5796L69.0613 108.935L101.179 101.307L96.345 80.9517Z" fill="#E6E6E6"/>
<path d="M76.4043 99.8037L71.0732 108.459L85.0599 105.135L76.4043 99.8037Z" fill="#FAFAFA"/>
<path d="M81.9116 105.882L101.178 101.305L100.739 99.4524L89.9667 92.8179L81.9116 105.882Z" fill="#FAFAFA"/>
<path d="M82.2259 91.9466C82.3886 92.6261 82.3459 93.3387 82.1033 93.9939C81.8607 94.6492 81.4291 95.2177 80.8631 95.6274C80.2971 96.0372 79.6223 96.2697 78.924 96.2956C78.2258 96.3215 77.5356 96.1395 76.9408 95.7728C76.3461 95.4061 75.8735 94.8711 75.5831 94.2356C75.2926 93.6001 75.1973 92.8927 75.3093 92.203C75.4212 91.5133 75.7353 90.8724 76.2118 90.3613C76.6883 89.8503 77.3058 89.4922 77.986 89.3324C78.8949 89.1168 79.8522 89.2712 80.6473 89.7614C81.4425 90.2517 82.0103 91.0377 82.2259 91.9466Z" fill="#FAFAFA"/>
<path d="M297.935 68.5861L266.256 53.8305C266.125 53.77 266.006 53.6838 265.908 53.5771C265.81 53.4704 265.735 53.3452 265.686 53.2088C265.637 53.0725 265.615 52.9277 265.623 52.783C265.63 52.6383 265.666 52.4965 265.729 52.366L285.457 10.0034C285.518 9.87237 285.605 9.75478 285.712 9.65734C285.818 9.5599 285.943 9.48452 286.08 9.43554C286.216 9.38655 286.36 9.36492 286.505 9.37188C286.649 9.37884 286.791 9.41427 286.921 9.47611L306.422 18.5784L313.401 37.9693L299.385 68.0588C299.262 68.321 299.041 68.5238 298.769 68.6227C298.497 68.7215 298.197 68.7084 297.935 68.5861Z" fill="#EBEBEB"/>
<path d="M313.4 37.9694L306.422 18.5785L305.389 18.1025L297.854 34.2714L312.046 40.8766L313.4 37.9694Z" fill="#E0E0E0"/>
<path d="M313.452 37.8587L300.292 31.7368L306.422 18.5776L313.452 37.8587Z" fill="#F5F5F5"/>
<path d="M299.37 56.5764L275.937 45.658C274.355 44.9258 272.971 47.2691 274.56 48.0087L297.993 58.9197C299.575 59.652 300.959 57.316 299.37 56.5764Z" fill="#FAFAFA"/>
<path d="M281.488 33.1584L304.921 44.0768C306.495 44.8091 307.85 42.4658 306.29 41.7262L282.857 30.8151C281.282 30.0829 279.928 32.4188 281.488 33.1584Z" fill="#FAFAFA"/>
<path d="M277.864 40.7815L301.297 51.6998C302.871 52.4321 304.226 50.0888 302.666 49.3492L279.233 38.4382C277.658 37.7059 276.304 40.0419 277.864 40.7815Z" fill="#FAFAFA"/>
<path d="M222.429 200.908L221.697 198.514C221.577 198.123 221.355 197.772 221.054 197.496C220.752 197.221 220.383 197.031 219.983 196.947L202.32 193.175C202.028 193.113 201.725 193.109 201.431 193.164C201.137 193.218 200.856 193.331 200.605 193.494C200.354 193.657 200.138 193.868 199.968 194.115C199.799 194.362 199.68 194.64 199.618 194.933L192.405 228.698C192.277 229.313 192.397 229.953 192.738 230.48C193.08 231.006 193.615 231.377 194.229 231.51L234.372 240.071C234.987 240.201 235.628 240.082 236.155 239.741C236.683 239.399 237.053 238.862 237.184 238.247L243.467 208.78C243.531 208.487 243.536 208.184 243.481 207.889C243.427 207.594 243.315 207.312 243.152 207.06C242.989 206.808 242.777 206.591 242.53 206.422C242.282 206.252 242.004 206.133 241.71 206.071L223.893 202.27C223.551 202.193 223.235 202.026 222.978 201.786C222.721 201.547 222.531 201.244 222.429 200.908Z" fill="#E0E0E0"/>
<path d="M241.725 206.072L224.062 202.308C223.664 202.223 223.25 202.246 222.863 202.375C222.477 202.503 222.132 202.733 221.865 203.041L220.232 204.937C220 205.203 219.701 205.402 219.367 205.514C219.032 205.626 218.673 205.647 218.328 205.574L200.504 201.774C199.913 201.648 199.296 201.761 198.788 202.089C198.28 202.417 197.923 202.933 197.795 203.524L192.405 228.7C192.277 229.314 192.397 229.955 192.738 230.481C193.08 231.008 193.615 231.378 194.229 231.512L234.372 240.072C234.987 240.203 235.628 240.084 236.155 239.742C236.683 239.4 237.053 238.863 237.184 238.249L243.467 208.782C243.531 208.49 243.536 208.188 243.483 207.893C243.43 207.599 243.319 207.318 243.157 207.066C242.995 206.814 242.786 206.597 242.54 206.427C242.294 206.256 242.017 206.136 241.725 206.072Z" fill="#F0F0F0"/>
<path d="M180.088 270.001C258.503 270.001 322.071 266.289 322.071 261.711C322.071 257.133 258.503 253.422 180.088 253.422C101.674 253.422 38.106 257.133 38.106 261.711C38.106 266.289 101.674 270.001 180.088 270.001Z" fill="#F5F5F5"/>
<path d="M267.472 42.8096H96.2347C91.426 42.8096 87.5278 46.7078 87.5278 51.5164V181.709C87.5278 186.518 91.426 190.416 96.2347 190.416H267.472C272.281 190.416 276.179 186.518 276.179 181.709V51.5164C276.179 46.7078 272.281 42.8096 267.472 42.8096Z" fill="#C76700"/>
<path opacity="0.4" d="M267.472 42.8096H96.2347C91.426 42.8096 87.5278 46.7078 87.5278 51.5164V181.709C87.5278 186.518 91.426 190.416 96.2347 190.416H267.472C272.281 190.416 276.179 186.518 276.179 181.709V51.5164C276.179 46.7078 272.281 42.8096 267.472 42.8096Z" fill="white"/>
<path opacity="0.8" d="M267.472 52.8052H96.2343C93.0433 52.8052 90.4565 55.3919 90.4565 58.5829V181.709C90.4565 184.9 93.0433 187.487 96.2343 187.487H267.472C270.663 187.487 273.249 184.9 273.249 181.709V58.5829C273.249 55.3919 270.663 52.8052 267.472 52.8052Z" fill="white"/>
<path opacity="0.3" d="M100.98 45.1602H98.9299C98.1655 45.1602 97.5459 45.7798 97.5459 46.5442V48.5946C97.5459 49.3589 98.1655 49.9786 98.9299 49.9786H100.98C101.745 49.9786 102.364 49.3589 102.364 48.5946V46.5442C102.364 45.7798 101.745 45.1602 100.98 45.1602Z" fill="white"/>
<path opacity="0.5" d="M108.793 45.1602H106.742C105.978 45.1602 105.358 45.7798 105.358 46.5442V48.5946C105.358 49.3589 105.978 49.9786 106.742 49.9786H108.793C109.557 49.9786 110.177 49.3589 110.177 48.5946V46.5442C110.177 45.7798 109.557 45.1602 108.793 45.1602Z" fill="white"/>
<path opacity="0.7" d="M116.614 45.1602H114.564C113.799 45.1602 113.18 45.7798 113.18 46.5442V48.5946C113.18 49.3589 113.799 49.9786 114.564 49.9786H116.614C117.378 49.9786 117.998 49.3589 117.998 48.5946V46.5442C117.998 45.7798 117.378 45.1602 116.614 45.1602Z" fill="white"/>
<path d="M173.029 49.8971V46.8654L171.514 49.3991H171.133L169.617 46.9094V49.9264H168.797V45.313H169.529L171.36 48.3666L173.161 45.313H173.894V49.9264L173.029 49.8971Z" fill="white"/>
<path d="M178.302 46.375L176.654 50.1756C176.548 50.4933 176.355 50.7749 176.097 50.9884C175.862 51.1474 175.583 51.2293 175.299 51.2227C175.122 51.2227 174.946 51.193 174.779 51.1348C174.624 51.0855 174.479 51.0059 174.354 50.9005L174.684 50.2927C174.765 50.3679 174.86 50.4275 174.962 50.4685C175.067 50.5114 175.179 50.5338 175.292 50.5344C175.42 50.5398 175.547 50.501 175.651 50.4245C175.762 50.3175 175.85 50.1876 175.907 50.0437L175.966 49.9119L174.435 46.375H175.292L176.398 48.9819L177.511 46.375H178.302Z" fill="white"/>
<path d="M181.568 46.0023V47.4083H183.802V48.1406H181.568V49.9054H180.689V45.292H184.058V46.0243L181.568 46.0023Z" fill="white"/>
<path d="M184.805 45.6589C184.756 45.6133 184.717 45.5576 184.692 45.4956C184.667 45.4337 184.655 45.367 184.658 45.3001C184.656 45.2344 184.668 45.169 184.693 45.1083C184.718 45.0476 184.756 44.9931 184.805 44.9486C184.908 44.854 185.045 44.8041 185.185 44.8095C185.322 44.8061 185.455 44.853 185.559 44.9413C185.608 44.984 185.647 45.0369 185.674 45.0964C185.7 45.1558 185.714 45.2204 185.713 45.2855C185.714 45.3538 185.701 45.4217 185.675 45.4848C185.648 45.5478 185.609 45.6047 185.559 45.6516C185.51 45.7002 185.452 45.7383 185.387 45.7635C185.323 45.7887 185.254 45.8004 185.185 45.7981C185.046 45.8005 184.91 45.7509 184.805 45.6589ZM184.768 46.3912H185.588V49.9135H184.768V46.3912Z" fill="white"/>
<path d="M186.672 45.0068H187.493V49.8985H186.672V45.0068Z" fill="white"/>
<path d="M191.871 48.3981H189.11C189.152 48.6471 189.288 48.8702 189.491 49.0205C189.753 49.1924 190.065 49.27 190.376 49.2407C190.688 49.2115 190.98 49.077 191.205 48.8594L191.651 49.372C191.491 49.5624 191.284 49.7085 191.051 49.7967C190.789 49.8964 190.511 49.9461 190.231 49.9432C189.876 49.9515 189.524 49.8736 189.206 49.7162C188.923 49.5695 188.687 49.3462 188.525 49.0718C188.361 48.7868 188.278 48.463 188.283 48.1345C188.28 47.8118 188.36 47.4938 188.517 47.2118C188.67 46.9404 188.896 46.7172 189.169 46.5674C189.457 46.4119 189.78 46.3337 190.106 46.3404C190.426 46.3327 190.742 46.4111 191.022 46.5674C191.29 46.7151 191.511 46.9361 191.659 47.2045C191.815 47.4969 191.893 47.8248 191.886 48.1564C191.886 48.215 191.878 48.3322 191.871 48.3981ZM189.477 47.2337C189.291 47.3925 189.171 47.6142 189.14 47.8562H191.139C191.115 47.6128 190.998 47.388 190.812 47.2285C190.627 47.069 190.387 46.9869 190.143 46.9994C189.899 46.9892 189.66 47.0731 189.477 47.2337Z" fill="white"/>
<path d="M192.926 49.8313C192.693 49.7759 192.472 49.6791 192.274 49.5457L192.589 48.9233C192.961 49.1463 193.386 49.2652 193.819 49.2675C194.31 49.2675 194.551 49.143 194.551 48.8793C194.554 48.8223 194.537 48.7662 194.504 48.7198C194.471 48.6733 194.423 48.6393 194.368 48.623C194.171 48.5559 193.967 48.5093 193.76 48.4839C193.513 48.4521 193.268 48.4007 193.028 48.3301C192.844 48.2779 192.679 48.1737 192.552 48.0299C192.409 47.8664 192.336 47.6536 192.347 47.4367C192.343 47.2783 192.38 47.1215 192.454 46.9815C192.529 46.8416 192.638 46.7234 192.772 46.6386C193.106 46.4196 193.501 46.3143 193.9 46.3383C194.146 46.3355 194.392 46.3626 194.632 46.4189C194.84 46.4611 195.04 46.5352 195.225 46.6386L194.91 47.2683C194.603 47.0908 194.254 46.9997 193.9 47.0047C193.711 46.9952 193.523 47.0303 193.35 47.1072C193.294 47.1333 193.247 47.1746 193.213 47.2264C193.18 47.2782 193.161 47.3384 193.16 47.4001C193.159 47.4626 193.179 47.5236 193.216 47.5738C193.253 47.6241 193.305 47.6608 193.365 47.6784C193.568 47.748 193.776 47.7995 193.987 47.8322C194.221 47.8653 194.451 47.9167 194.676 47.986C194.853 48.0417 195.014 48.1397 195.144 48.2715C195.28 48.4358 195.348 48.6451 195.335 48.8574C195.337 49.0145 195.299 49.1695 195.225 49.3079C195.151 49.4463 195.042 49.5635 194.91 49.6482C194.558 49.8626 194.15 49.9647 193.738 49.9412C193.464 49.9397 193.191 49.9028 192.926 49.8313Z" fill="white"/>
<path d="M124.902 82.939L124.089 81.4745C123.957 81.2329 123.762 81.0314 123.525 80.891C123.288 80.7506 123.018 80.6764 122.742 80.6763H110.557C110.149 80.6763 109.758 80.8383 109.469 81.1267C109.181 81.4151 109.019 81.8062 109.019 82.2141V105.501C109.019 105.926 109.188 106.334 109.489 106.635C109.79 106.935 110.197 107.104 110.623 107.104H138.303C138.728 107.104 139.136 106.935 139.437 106.635C139.738 106.334 139.907 105.926 139.907 105.501V85.1652C139.907 84.7573 139.745 84.3662 139.456 84.0778C139.168 83.7894 138.777 83.6274 138.369 83.6274H126.074C125.835 83.6283 125.6 83.5649 125.394 83.4437C125.188 83.3226 125.018 83.1483 124.902 82.939Z" fill="#C76700"/>
<path opacity="0.3" d="M124.902 82.939L124.089 81.4745C123.957 81.2329 123.762 81.0314 123.525 80.891C123.288 80.7506 123.018 80.6764 122.742 80.6763H110.557C110.149 80.6763 109.758 80.8383 109.469 81.1267C109.181 81.4151 109.019 81.8062 109.019 82.2141V105.501C109.019 105.926 109.188 106.334 109.489 106.635C109.79 106.935 110.197 107.104 110.623 107.104H138.303C138.728 107.104 139.136 106.935 139.437 106.635C139.738 106.334 139.907 105.926 139.907 105.501V85.1652C139.907 84.7573 139.745 84.3662 139.456 84.0778C139.168 83.7894 138.777 83.6274 138.369 83.6274H126.074C125.835 83.6283 125.6 83.5649 125.394 83.4437C125.188 83.3226 125.018 83.1483 124.902 82.939Z" fill="white"/>
<path d="M136.055 84.5566H112.439V102.212H136.055V84.5566Z" fill="#263238"/>
<path opacity="0.8" d="M136.055 84.5566H112.439V102.212H136.055V84.5566Z" fill="white"/>
<path d="M137.762 86.3286H110.733V106.54H137.762V86.3286Z" fill="#263238"/>
<path opacity="0.9" d="M137.762 86.3286H110.733V106.54H137.762V86.3286Z" fill="white"/>
<path d="M142.609 86.8343H126.419C126.088 86.8184 125.758 86.8715 125.449 86.99C125.14 87.1085 124.86 87.2898 124.624 87.5226L123.57 88.7968C123.378 88.9993 123.144 89.1579 122.885 89.2615C122.626 89.3652 122.348 89.4115 122.069 89.3973H106.251C105.153 89.3973 104.421 89.9904 104.611 90.7227C106.156 96.7201 106.933 99.7152 108.478 105.705C108.617 106.109 108.878 106.46 109.226 106.708C109.574 106.956 109.991 107.09 110.418 107.089H137.864C138.292 107.09 138.708 106.956 139.056 106.708C139.404 106.46 139.666 106.109 139.805 105.705L144.33 88.167C144.513 87.4347 143.752 86.8343 142.609 86.8343Z" fill="#C76700"/>
<g opacity="0.6">
<path d="M142.61 86.8333H126.419C126.089 86.8175 125.759 86.8705 125.45 86.989C125.141 87.1075 124.86 87.2889 124.625 87.5216L123.57 88.7958C123.378 88.9983 123.145 89.1569 122.886 89.2605C122.627 89.3642 122.348 89.4105 122.069 89.3963H106.252C105.154 89.3963 104.421 89.9894 104.612 90.7217C106.157 96.7191 106.933 99.7142 108.478 105.704C108.617 106.108 108.879 106.459 109.227 106.707C109.575 106.955 109.991 107.089 110.419 107.088H137.865C138.292 107.089 138.709 106.955 139.057 106.707C139.405 106.459 139.666 106.108 139.805 105.704L144.331 88.1661C144.514 87.4338 143.752 86.8333 142.61 86.8333Z" fill="white"/>
</g>
<path d="M109.656 115.862C109.397 115.895 109.133 115.872 108.882 115.795C108.632 115.718 108.401 115.589 108.204 115.416C108.008 115.243 107.85 115.03 107.743 114.791C107.635 114.552 107.579 114.293 107.579 114.031C107.579 113.769 107.635 113.511 107.743 113.272C107.85 113.033 108.008 112.82 108.204 112.647C108.401 112.474 108.632 112.344 108.882 112.267C109.133 112.191 109.397 112.168 109.656 112.201H139.189C139.449 112.168 139.713 112.191 139.964 112.267C140.214 112.344 140.445 112.474 140.642 112.647C140.838 112.82 140.996 113.033 141.103 113.272C141.211 113.511 141.267 113.769 141.267 114.031C141.267 114.293 141.211 114.552 141.103 114.791C140.996 115.03 140.838 115.243 140.642 115.416C140.445 115.589 140.214 115.718 139.964 115.795C139.713 115.872 139.449 115.895 139.189 115.862H109.656Z" fill="#263238"/>
<path opacity="0.6" d="M109.656 115.862C109.397 115.895 109.133 115.872 108.882 115.795C108.632 115.718 108.401 115.589 108.204 115.416C108.008 115.243 107.85 115.03 107.743 114.791C107.635 114.552 107.579 114.293 107.579 114.031C107.579 113.769 107.635 113.511 107.743 113.272C107.85 113.033 108.008 112.82 108.204 112.647C108.401 112.474 108.632 112.344 108.882 112.267C109.133 112.191 109.397 112.168 109.656 112.201H139.189C139.449 112.168 139.713 112.191 139.964 112.267C140.214 112.344 140.445 112.474 140.642 112.647C140.838 112.82 140.996 113.033 141.103 113.272C141.211 113.511 141.267 113.769 141.267 114.031C141.267 114.293 141.211 114.552 141.103 114.791C140.996 115.03 140.838 115.243 140.642 115.416C140.445 115.589 140.214 115.718 139.964 115.795C139.713 115.872 139.449 115.895 139.189 115.862H109.656Z" fill="white"/>
<path d="M179.956 82.939L179.143 81.4745C179.01 81.2334 178.814 81.0323 178.578 80.892C178.341 80.7517 178.071 80.6772 177.795 80.6763H165.639C165.232 80.6763 164.84 80.8383 164.552 81.1267C164.264 81.4151 164.102 81.8062 164.102 82.2141V105.501C164.101 105.711 164.141 105.919 164.221 106.114C164.301 106.308 164.418 106.485 164.567 106.634C164.715 106.783 164.891 106.902 165.085 106.982C165.28 107.063 165.488 107.104 165.698 107.104H193.386C193.596 107.104 193.804 107.063 193.998 106.982C194.192 106.902 194.369 106.783 194.517 106.634C194.665 106.485 194.783 106.308 194.863 106.114C194.942 105.919 194.983 105.711 194.982 105.501V85.1652C194.982 84.7573 194.82 84.3662 194.532 84.0778C194.243 83.7894 193.852 83.6274 193.444 83.6274H181.149C180.906 83.6323 180.667 83.5707 180.456 83.4494C180.246 83.3281 180.073 83.1516 179.956 82.939Z" fill="#C76700"/>
<path opacity="0.3" d="M179.956 82.939L179.143 81.4745C179.01 81.2334 178.814 81.0323 178.578 80.892C178.341 80.7517 178.071 80.6772 177.795 80.6763H165.639C165.232 80.6763 164.84 80.8383 164.552 81.1267C164.264 81.4151 164.102 81.8062 164.102 82.2141V105.501C164.101 105.711 164.141 105.919 164.221 106.114C164.301 106.308 164.418 106.485 164.567 106.634C164.715 106.783 164.891 106.902 165.085 106.982C165.28 107.063 165.488 107.104 165.698 107.104H193.386C193.596 107.104 193.804 107.063 193.998 106.982C194.192 106.902 194.369 106.783 194.517 106.634C194.665 106.485 194.783 106.308 194.863 106.114C194.942 105.919 194.983 105.711 194.982 105.501V85.1652C194.982 84.7573 194.82 84.3662 194.532 84.0778C194.243 83.7894 193.852 83.6274 193.444 83.6274H181.149C180.906 83.6323 180.667 83.5707 180.456 83.4494C180.246 83.3281 180.073 83.1516 179.956 82.939Z" fill="white"/>
<path d="M191.138 84.5566H167.521V102.212H191.138V84.5566Z" fill="#263238"/>
<path opacity="0.8" d="M191.138 84.5566H167.521V102.212H191.138V84.5566Z" fill="white"/>
<path d="M192.844 86.3286H165.815V106.54H192.844V86.3286Z" fill="#263238"/>
<path opacity="0.9" d="M192.844 86.3286H165.815V106.54H192.844V86.3286Z" fill="white"/>
<path d="M197.7 86.8343H181.501C181.17 86.8184 180.839 86.8713 180.529 86.9898C180.219 87.1082 179.936 87.2897 179.7 87.5227L178.638 88.7968C178.45 88.9946 178.223 89.1504 177.97 89.2538C177.718 89.3573 177.446 89.4062 177.174 89.3973H161.32C160.229 89.3973 159.496 89.9905 159.679 90.7227C161.232 96.7202 162.001 99.7152 163.546 105.705C163.686 106.109 163.948 106.459 164.295 106.707C164.643 106.955 165.059 107.089 165.486 107.089H192.94C193.367 107.089 193.783 106.955 194.131 106.707C194.479 106.459 194.74 106.109 194.88 105.705L199.406 88.1671C199.589 87.4348 198.827 86.8343 197.7 86.8343Z" fill="#C76700"/>
<g opacity="0.6">
<path d="M197.7 86.8333H181.501C181.17 86.8174 180.839 86.8703 180.529 86.9888C180.219 87.1073 179.936 87.2887 179.7 87.5217L178.638 88.7959C178.45 88.9936 178.223 89.1494 177.97 89.2529C177.718 89.3564 177.446 89.4053 177.174 89.3963H161.32C160.229 89.3963 159.496 89.9895 159.679 90.7218C161.232 96.7192 162.001 99.7142 163.546 105.704C163.686 106.108 163.948 106.458 164.295 106.706C164.643 106.954 165.059 107.088 165.486 107.088H192.94C193.367 107.088 193.783 106.954 194.131 106.706C194.479 106.458 194.74 106.108 194.88 105.704L199.406 88.1661C199.589 87.4338 198.827 86.8333 197.7 86.8333Z" fill="white"/>
</g>
<path d="M164.775 115.862C164.33 115.806 163.92 115.589 163.623 115.251C163.326 114.914 163.162 114.481 163.162 114.031C163.162 113.582 163.326 113.148 163.623 112.811C163.92 112.474 164.33 112.257 164.775 112.201H194.308C194.568 112.168 194.832 112.191 195.083 112.267C195.333 112.344 195.564 112.474 195.761 112.647C195.957 112.82 196.114 113.033 196.222 113.272C196.33 113.511 196.386 113.769 196.386 114.031C196.386 114.293 196.33 114.552 196.222 114.791C196.114 115.03 195.957 115.243 195.761 115.416C195.564 115.589 195.333 115.718 195.083 115.795C194.832 115.872 194.568 115.895 194.308 115.862H164.775Z" fill="#263238"/>
<path opacity="0.6" d="M164.775 115.862C164.33 115.806 163.92 115.589 163.623 115.251C163.326 114.914 163.162 114.481 163.162 114.031C163.162 113.582 163.326 113.148 163.623 112.811C163.92 112.474 164.33 112.257 164.775 112.201H194.308C194.568 112.168 194.832 112.191 195.083 112.267C195.333 112.344 195.564 112.474 195.761 112.647C195.957 112.82 196.114 113.033 196.222 113.272C196.33 113.511 196.386 113.769 196.386 114.031C196.386 114.293 196.33 114.552 196.222 114.791C196.114 115.03 195.957 115.243 195.761 115.416C195.564 115.589 195.333 115.718 195.083 115.795C194.832 115.872 194.568 115.895 194.308 115.862H164.775Z" fill="white"/>
<path d="M124.902 141.727L124.089 140.262C123.958 140.019 123.763 139.817 123.526 139.677C123.289 139.536 123.018 139.462 122.742 139.464H110.557C110.149 139.464 109.758 139.626 109.469 139.914C109.181 140.203 109.019 140.594 109.019 141.002V164.288C109.019 164.499 109.061 164.707 109.141 164.901C109.222 165.095 109.34 165.271 109.489 165.42C109.638 165.568 109.815 165.685 110.01 165.765C110.204 165.845 110.412 165.886 110.623 165.885H138.303C138.513 165.886 138.722 165.845 138.916 165.765C139.111 165.685 139.288 165.568 139.437 165.42C139.586 165.271 139.704 165.095 139.785 164.901C139.865 164.707 139.907 164.499 139.907 164.288V143.96C139.907 143.552 139.745 143.16 139.457 142.87C139.169 142.581 138.778 142.417 138.369 142.415H126.074C125.835 142.416 125.6 142.352 125.394 142.231C125.188 142.11 125.018 141.936 124.902 141.727Z" fill="#C76700"/>
<path opacity="0.3" d="M124.902 141.727L124.089 140.262C123.958 140.019 123.763 139.817 123.526 139.677C123.289 139.536 123.018 139.462 122.742 139.464H110.557C110.149 139.464 109.758 139.626 109.469 139.914C109.181 140.203 109.019 140.594 109.019 141.002V164.288C109.019 164.499 109.061 164.707 109.141 164.901C109.222 165.095 109.34 165.271 109.489 165.42C109.638 165.568 109.815 165.685 110.01 165.765C110.204 165.845 110.412 165.886 110.623 165.885H138.303C138.513 165.886 138.722 165.845 138.916 165.765C139.111 165.685 139.288 165.568 139.437 165.42C139.586 165.271 139.704 165.095 139.785 164.901C139.865 164.707 139.907 164.499 139.907 164.288V143.96C139.907 143.552 139.745 143.16 139.457 142.87C139.169 142.581 138.778 142.417 138.369 142.415H126.074C125.835 142.416 125.6 142.352 125.394 142.231C125.188 142.11 125.018 141.936 124.902 141.727Z" fill="white"/>
<path d="M136.055 143.352H112.439V161.007H136.055V143.352Z" fill="#263238"/>
<path opacity="0.8" d="M136.055 143.352H112.439V161.007H136.055V143.352Z" fill="white"/>
<path d="M137.762 145.125H110.733V165.337H137.762V145.125Z" fill="#263238"/>
<path opacity="0.9" d="M137.762 145.125H110.733V165.337H137.762V145.125Z" fill="white"/>
<path d="M142.609 145.628H126.419C126.088 145.612 125.758 145.665 125.449 145.784C125.14 145.902 124.86 146.084 124.624 146.317C124.192 146.829 123.98 147.049 123.563 147.591C123.369 147.791 123.135 147.947 122.876 148.049C122.617 148.152 122.34 148.198 122.061 148.184H106.244C105.146 148.184 104.413 148.784 104.604 149.517C106.149 155.507 106.925 158.502 108.47 164.499C108.61 164.902 108.873 165.251 109.22 165.498C109.568 165.745 109.984 165.877 110.411 165.876H137.857C138.283 165.877 138.699 165.745 139.047 165.498C139.395 165.251 139.657 164.902 139.797 164.499L144.323 146.924C144.513 146.221 143.752 145.628 142.609 145.628Z" fill="#C76700"/>
<g opacity="0.6">
<path d="M142.61 145.628H126.419C126.089 145.612 125.759 145.665 125.45 145.784C125.141 145.902 124.86 146.084 124.625 146.317C124.193 146.829 123.981 147.049 123.563 147.591C123.37 147.791 123.136 147.947 122.877 148.049C122.618 148.152 122.34 148.198 122.062 148.184H106.245C105.146 148.184 104.414 148.784 104.604 149.517C106.149 155.507 106.926 158.502 108.471 164.499C108.611 164.902 108.873 165.251 109.221 165.498C109.569 165.745 109.985 165.877 110.411 165.876H137.857C138.284 165.877 138.7 165.745 139.048 165.498C139.396 165.251 139.658 164.902 139.798 164.499L144.323 146.924C144.514 146.221 143.752 145.628 142.61 145.628Z" fill="white"/>
</g>
<path d="M109.656 175.391C109.211 175.334 108.801 175.117 108.504 174.78C108.207 174.443 108.043 174.009 108.043 173.56C108.043 173.111 108.207 172.677 108.504 172.34C108.801 172.003 109.211 171.786 109.656 171.729H139.189C139.449 171.697 139.713 171.719 139.963 171.796C140.214 171.873 140.445 172.003 140.641 172.176C140.838 172.349 140.995 172.562 141.103 172.801C141.211 173.039 141.267 173.298 141.267 173.56C141.267 173.822 141.211 174.081 141.103 174.32C140.995 174.558 140.838 174.772 140.641 174.945C140.445 175.118 140.214 175.247 139.963 175.324C139.713 175.401 139.449 175.424 139.189 175.391H109.656Z" fill="#263238"/>
<path opacity="0.6" d="M109.656 175.391C109.211 175.334 108.801 175.117 108.504 174.78C108.207 174.443 108.043 174.009 108.043 173.56C108.043 173.111 108.207 172.677 108.504 172.34C108.801 172.003 109.211 171.786 109.656 171.729H139.189C139.449 171.697 139.713 171.719 139.963 171.796C140.214 171.873 140.445 172.003 140.641 172.176C140.838 172.349 140.995 172.562 141.103 172.801C141.211 173.039 141.267 173.298 141.267 173.56C141.267 173.822 141.211 174.081 141.103 174.32C140.995 174.558 140.838 174.772 140.641 174.945C140.445 175.118 140.214 175.247 139.963 175.324C139.713 175.401 139.449 175.424 139.189 175.391H109.656Z" fill="white"/>
<path d="M179.956 141.727L179.143 140.262C179.011 140.02 178.816 139.818 178.579 139.678C178.342 139.537 178.071 139.463 177.795 139.464H165.639C165.232 139.464 164.84 139.626 164.552 139.914C164.264 140.203 164.102 140.594 164.102 141.002V164.288C164.101 164.498 164.141 164.706 164.221 164.9C164.301 165.094 164.419 165.271 164.567 165.419C164.715 165.568 164.892 165.685 165.086 165.765C165.28 165.845 165.488 165.886 165.698 165.885H193.386C193.596 165.886 193.804 165.845 193.998 165.765C194.192 165.685 194.368 165.568 194.517 165.419C194.665 165.271 194.783 165.094 194.862 164.9C194.942 164.706 194.983 164.498 194.982 164.288V143.96C194.982 143.552 194.82 143.16 194.532 142.87C194.244 142.581 193.853 142.417 193.444 142.415H181.149C180.906 142.42 180.667 142.358 180.456 142.237C180.246 142.116 180.073 141.939 179.956 141.727Z" fill="#C76700"/>
<path opacity="0.3" d="M179.956 141.727L179.143 140.262C179.011 140.02 178.816 139.818 178.579 139.678C178.342 139.537 178.071 139.463 177.795 139.464H165.639C165.232 139.464 164.84 139.626 164.552 139.914C164.264 140.203 164.102 140.594 164.102 141.002V164.288C164.101 164.498 164.141 164.706 164.221 164.9C164.301 165.094 164.419 165.271 164.567 165.419C164.715 165.568 164.892 165.685 165.086 165.765C165.28 165.845 165.488 165.886 165.698 165.885H193.386C193.596 165.886 193.804 165.845 193.998 165.765C194.192 165.685 194.368 165.568 194.517 165.419C194.665 165.271 194.783 165.094 194.862 164.9C194.942 164.706 194.983 164.498 194.982 164.288V143.96C194.982 143.552 194.82 143.16 194.532 142.87C194.244 142.581 193.853 142.417 193.444 142.415H181.149C180.906 142.42 180.667 142.358 180.456 142.237C180.246 142.116 180.073 141.939 179.956 141.727Z" fill="white"/>
<path d="M191.138 143.352H167.521V161.007H191.138V143.352Z" fill="#263238"/>
<path opacity="0.8" d="M191.138 143.352H167.521V161.007H191.138V143.352Z" fill="white"/>
<path d="M192.844 145.125H165.815V165.337H192.844V145.125Z" fill="#263238"/>
<path opacity="0.9" d="M192.844 145.125H165.815V165.337H192.844V145.125Z" fill="white"/>
<path d="M197.7 145.628H181.501C181.17 145.612 180.839 145.665 180.529 145.784C180.219 145.902 179.936 146.084 179.7 146.317C179.268 146.829 179.056 147.049 178.638 147.591C178.449 147.786 178.221 147.94 177.969 148.043C177.717 148.145 177.446 148.193 177.174 148.184H161.32C160.229 148.184 159.496 148.784 159.679 149.517C161.232 155.507 162.001 158.502 163.546 164.499C163.687 164.901 163.949 165.25 164.297 165.496C164.645 165.743 165.06 165.876 165.486 165.876H192.94C193.366 165.876 193.782 165.743 194.129 165.496C194.477 165.25 194.739 164.901 194.88 164.499L199.406 146.924C199.589 146.221 198.827 145.628 197.7 145.628Z" fill="#C76700"/>
<g opacity="0.6">
<path d="M197.7 145.628H181.502C181.17 145.612 180.839 145.665 180.529 145.784C180.219 145.902 179.937 146.084 179.701 146.317C179.268 146.829 179.056 147.049 178.639 147.591C178.45 147.786 178.222 147.94 177.969 148.043C177.717 148.145 177.446 148.193 177.174 148.184H161.32C160.229 148.184 159.497 148.784 159.68 149.517C161.232 155.507 162.001 158.502 163.546 164.499C163.687 164.901 163.95 165.25 164.297 165.496C164.645 165.743 165.061 165.876 165.487 165.876H192.94C193.366 165.876 193.782 165.743 194.13 165.496C194.477 165.25 194.74 164.901 194.881 164.499L199.406 146.924C199.589 146.221 198.828 145.628 197.7 145.628Z" fill="white"/>
</g>
<path d="M164.775 175.389C164.33 175.332 163.92 175.115 163.623 174.778C163.326 174.441 163.162 174.007 163.162 173.558C163.162 173.109 163.326 172.675 163.623 172.338C163.92 172.001 164.33 171.784 164.775 171.728H194.308C194.754 171.784 195.164 172.001 195.461 172.338C195.758 172.675 195.922 173.109 195.922 173.558C195.922 174.007 195.758 174.441 195.461 174.778C195.164 175.115 194.754 175.332 194.308 175.389H164.775Z" fill="#263238"/>
<path opacity="0.6" d="M164.775 175.389C164.33 175.332 163.92 175.115 163.623 174.778C163.326 174.441 163.162 174.007 163.162 173.558C163.162 173.109 163.326 172.675 163.623 172.338C163.92 172.001 164.33 171.784 164.775 171.728H194.308C194.754 171.784 195.164 172.001 195.461 172.338C195.758 172.675 195.922 173.109 195.922 173.558C195.922 174.007 195.758 174.441 195.461 174.778C195.164 175.115 194.754 175.332 194.308 175.389H164.775Z" fill="white"/>
<path d="M233.822 141.727L233.009 140.262C232.876 140.019 232.68 139.817 232.442 139.677C232.203 139.536 231.931 139.463 231.655 139.464H219.499C219.297 139.464 219.097 139.504 218.91 139.581C218.724 139.658 218.554 139.771 218.411 139.914C218.269 140.057 218.155 140.227 218.078 140.413C218.001 140.6 217.961 140.8 217.961 141.002V164.288C217.96 164.498 218.001 164.706 218.08 164.9C218.16 165.094 218.278 165.271 218.426 165.419C218.575 165.568 218.751 165.685 218.945 165.765C219.139 165.845 219.347 165.886 219.557 165.885H247.245C247.668 165.885 248.074 165.716 248.374 165.417C248.673 165.118 248.841 164.712 248.841 164.288V143.96C248.841 143.552 248.68 143.16 248.391 142.87C248.103 142.581 247.712 142.417 247.304 142.415H234.987C234.749 142.415 234.515 142.351 234.311 142.229C234.106 142.108 233.937 141.935 233.822 141.727Z" fill="#C76700"/>
<path opacity="0.3" d="M233.822 141.727L233.009 140.262C232.876 140.019 232.68 139.817 232.442 139.677C232.203 139.536 231.931 139.463 231.655 139.464H219.499C219.297 139.464 219.097 139.504 218.91 139.581C218.724 139.658 218.554 139.771 218.411 139.914C218.269 140.057 218.155 140.227 218.078 140.413C218.001 140.6 217.961 140.8 217.961 141.002V164.288C217.96 164.498 218.001 164.706 218.08 164.9C218.16 165.094 218.278 165.271 218.426 165.419C218.575 165.568 218.751 165.685 218.945 165.765C219.139 165.845 219.347 165.886 219.557 165.885H247.245C247.668 165.885 248.074 165.716 248.374 165.417C248.673 165.118 248.841 164.712 248.841 164.288V143.96C248.841 143.552 248.68 143.16 248.391 142.87C248.103 142.581 247.712 142.417 247.304 142.415H234.987C234.749 142.415 234.515 142.351 234.311 142.229C234.106 142.108 233.937 141.935 233.822 141.727Z" fill="white"/>
<path d="M244.975 143.352H221.358V161.007H244.975V143.352Z" fill="#263238"/>
<path opacity="0.8" d="M244.975 143.352H221.358V161.007H244.975V143.352Z" fill="white"/>
<path d="M246.682 145.125H219.653V165.337H246.682V145.125Z" fill="#263238"/>
<path opacity="0.9" d="M246.682 145.125H219.653V165.337H246.682V145.125Z" fill="white"/>
<path d="M251.537 145.628H235.338C235.007 145.612 234.676 145.665 234.366 145.784C234.056 145.902 233.773 146.084 233.537 146.317C233.105 146.829 232.893 147.049 232.475 147.591C232.286 147.786 232.058 147.94 231.806 148.043C231.553 148.145 231.283 148.193 231.011 148.184H215.157C214.066 148.184 213.333 148.784 213.516 149.517C215.069 155.507 215.838 158.502 217.383 164.499C217.524 164.901 217.786 165.25 218.134 165.496C218.482 165.743 218.897 165.876 219.323 165.876H246.769C247.197 165.877 247.614 165.745 247.963 165.499C248.312 165.252 248.576 164.903 248.717 164.499C250.221 158.641 251.727 152.783 253.235 146.924C253.426 146.221 252.664 145.628 251.537 145.628Z" fill="#C76700"/>
<g opacity="0.6">
<path d="M251.537 145.628H235.338C235.007 145.612 234.676 145.665 234.366 145.784C234.056 145.902 233.773 146.084 233.537 146.317C233.105 146.829 232.893 147.049 232.475 147.591C232.286 147.786 232.058 147.94 231.806 148.043C231.553 148.145 231.283 148.193 231.011 148.184H215.157C214.066 148.184 213.333 148.784 213.516 149.517C215.069 155.507 215.838 158.502 217.383 164.499C217.524 164.901 217.786 165.25 218.134 165.496C218.482 165.743 218.897 165.876 219.323 165.876H246.769C247.197 165.877 247.614 165.745 247.963 165.499C248.312 165.252 248.576 164.903 248.717 164.499C250.221 158.641 251.727 152.783 253.235 146.924C253.426 146.221 252.664 145.628 251.537 145.628Z" fill="white"/>
</g>
<path d="M218.613 175.389C218.168 175.332 217.758 175.115 217.461 174.778C217.164 174.441 217 174.007 217 173.558C217 173.109 217.164 172.675 217.461 172.338C217.758 172.001 218.168 171.784 218.613 171.728H248.146C248.592 171.784 249.002 172.001 249.299 172.338C249.596 172.675 249.76 173.109 249.76 173.558C249.76 174.007 249.596 174.441 249.299 174.778C249.002 175.115 248.592 175.332 248.146 175.389H218.613Z" fill="#263238"/>
<path opacity="0.6" d="M218.613 175.389C218.168 175.332 217.758 175.115 217.461 174.778C217.164 174.441 217 174.007 217 173.558C217 173.109 217.164 172.675 217.461 172.338C217.758 172.001 218.168 171.784 218.613 171.728H248.146C248.592 171.784 249.002 172.001 249.299 172.338C249.596 172.675 249.76 173.109 249.76 173.558C249.76 174.007 249.596 174.441 249.299 174.778C249.002 175.115 248.592 175.332 248.146 175.389H218.613Z" fill="white"/>
<path d="M218.232 115.862C217.972 115.895 217.708 115.872 217.458 115.795C217.208 115.718 216.977 115.589 216.78 115.416C216.584 115.243 216.426 115.03 216.318 114.791C216.211 114.552 216.155 114.293 216.155 114.031C216.155 113.769 216.211 113.511 216.318 113.272C216.426 113.033 216.584 112.82 216.78 112.647C216.977 112.474 217.208 112.344 217.458 112.267C217.708 112.191 217.972 112.168 218.232 112.201H247.765C248.025 112.168 248.289 112.191 248.539 112.267C248.79 112.344 249.021 112.474 249.217 112.647C249.414 112.82 249.571 113.033 249.679 113.272C249.787 113.511 249.843 113.769 249.843 114.031C249.843 114.293 249.787 114.552 249.679 114.791C249.571 115.03 249.414 115.243 249.217 115.416C249.021 115.589 248.79 115.718 248.539 115.795C248.289 115.872 248.025 115.895 247.765 115.862H218.232Z" fill="#263238"/>
<path opacity="0.6" d="M218.232 115.862C217.972 115.895 217.708 115.872 217.458 115.795C217.208 115.718 216.977 115.589 216.78 115.416C216.584 115.243 216.426 115.03 216.318 114.791C216.211 114.552 216.155 114.293 216.155 114.031C216.155 113.769 216.211 113.511 216.318 113.272C216.426 113.033 216.584 112.82 216.78 112.647C216.977 112.474 217.208 112.344 217.458 112.267C217.708 112.191 217.972 112.168 218.232 112.201H247.765C248.025 112.168 248.289 112.191 248.539 112.267C248.79 112.344 249.021 112.474 249.217 112.647C249.414 112.82 249.571 113.033 249.679 113.272C249.787 113.511 249.843 113.769 249.843 114.031C249.843 114.293 249.787 114.552 249.679 114.791C249.571 115.03 249.414 115.243 249.217 115.416C249.021 115.589 248.79 115.718 248.539 115.795C248.289 115.872 248.025 115.895 247.765 115.862H218.232Z" fill="white"/>
<path d="M217.222 107.741L223.519 126.165C223.69 126.569 223.973 126.915 224.336 127.162C224.698 127.409 225.124 127.546 225.562 127.556H237.953C238.196 127.58 238.44 127.521 238.645 127.388C238.85 127.255 239.003 127.056 239.08 126.824L239.446 125.484C239.513 125.284 239.646 125.113 239.823 124.999C240 124.884 240.211 124.833 240.42 124.854H252.921C253.098 124.88 253.28 124.859 253.446 124.793C253.613 124.726 253.759 124.617 253.87 124.475C253.981 124.334 254.052 124.166 254.077 123.988C254.102 123.81 254.079 123.629 254.012 123.463L248.637 107.726L248.556 104.651V80.9758C248.556 80.5621 248.392 80.1654 248.099 79.8729C247.807 79.5804 247.41 79.416 246.996 79.416H234.606C234.326 79.4145 234.052 79.4886 233.811 79.6304C233.57 79.7721 233.371 79.9764 233.237 80.2216L232.409 81.7301C232.292 81.9413 232.12 82.1173 231.911 82.2396C231.702 82.3619 231.465 82.4262 231.223 82.4257H218.716C218.3 82.4257 217.901 82.5908 217.607 82.8847C217.314 83.1786 217.148 83.5772 217.148 83.9928V104.665L217.222 107.741Z" fill="#C76700"/>
<path opacity="0.6" d="M217.222 107.741L223.519 126.165C223.69 126.569 223.973 126.915 224.336 127.162C224.698 127.409 225.124 127.546 225.562 127.556H237.953C238.196 127.58 238.44 127.521 238.645 127.388C238.85 127.255 239.003 127.056 239.08 126.824L239.446 125.484C239.513 125.284 239.646 125.113 239.823 124.999C240 124.884 240.211 124.833 240.42 124.854H252.921C253.098 124.88 253.28 124.859 253.446 124.793C253.613 124.726 253.759 124.617 253.87 124.475C253.981 124.334 254.052 124.166 254.077 123.988C254.102 123.81 254.079 123.629 254.012 123.463L248.637 107.726L248.556 104.651V80.9758C248.556 80.5621 248.392 80.1654 248.099 79.8729C247.807 79.5804 247.41 79.416 246.996 79.416H234.606C234.326 79.4145 234.052 79.4886 233.811 79.6304C233.57 79.7721 233.371 79.9764 233.237 80.2216L232.409 81.7301C232.292 81.9413 232.12 82.1173 231.911 82.2396C231.702 82.3619 231.465 82.4262 231.223 82.4257H218.716C218.3 82.4257 217.901 82.5908 217.607 82.8847C217.314 83.1786 217.148 83.5772 217.148 83.9928V104.665L217.222 107.741Z" fill="white"/>
<path d="M217.221 107.742L223.519 126.166C223.689 126.57 223.973 126.916 224.335 127.163C224.698 127.41 225.124 127.547 225.562 127.557H237.952C238.195 127.581 238.439 127.522 238.644 127.389C238.849 127.256 239.003 127.057 239.08 126.825L239.446 125.485C239.513 125.285 239.646 125.114 239.823 125C240 124.885 240.21 124.834 240.42 124.855H252.92C253.098 124.881 253.279 124.86 253.446 124.794C253.613 124.727 253.759 124.618 253.87 124.476C253.98 124.335 254.052 124.167 254.077 123.989C254.102 123.811 254.079 123.63 254.011 123.464L248.636 107.727L217.221 107.742Z" fill="#C76700"/>
<path opacity="0.3" d="M217.221 107.742L223.519 126.166C223.689 126.57 223.973 126.916 224.335 127.163C224.698 127.41 225.124 127.547 225.562 127.557H237.952C238.195 127.581 238.439 127.522 238.644 127.389C238.849 127.256 239.003 127.057 239.08 126.825L239.446 125.485C239.513 125.285 239.646 125.114 239.823 125C240 124.885 240.21 124.834 240.42 124.855H252.92C253.098 124.881 253.279 124.86 253.446 124.794C253.613 124.727 253.759 124.618 253.87 124.476C253.98 124.335 254.052 124.167 254.077 123.989C254.102 123.811 254.079 123.63 254.011 123.464L248.636 107.727L217.221 107.742Z" fill="white"/>
<path opacity="0.1" d="M220.253 107.741H245.744L250.394 120.841H224.903L220.253 107.741Z" fill="black"/>
<path d="M220.254 107.741H245.745V87.083H220.254V107.741Z" fill="#263238"/>
<path opacity="0.8" d="M220.254 107.741H245.745V87.083H220.254V107.741Z" fill="white"/>
<path d="M220.253 107.74H245.744L250.914 92.853H225.416L220.253 107.74Z" fill="#263238"/>
<path opacity="0.9" d="M220.253 107.74H245.744L250.914 92.853H225.416L220.253 107.74Z" fill="white"/>
<path d="M220.253 107.741H245.744L250.914 118.776H225.416L220.253 107.741Z" fill="#263238"/>
<path opacity="0.9" d="M220.253 107.741H245.744L250.914 118.776H225.416L220.253 107.741Z" fill="white"/>
<path d="M220.253 107.741H245.744L254.085 102.065H228.587L220.253 107.741Z" fill="#263238"/>
<path opacity="0.8" d="M220.253 107.741H245.744L254.085 102.065H228.587L220.253 107.741Z" fill="white"/>
<path d="M79.854 236.71C80.4838 226.773 84.8409 216.719 91.8488 209.894C93.599 208.195 97.275 204.827 94.2947 203.047C90.8895 201.012 84.3576 210.517 83.4422 212.274C85.3754 204.702 91.2337 199.217 97.5899 196.076C100.731 194.524 103.726 193.052 100.38 190.745C97.0334 188.438 89.7911 194.033 88.1142 196.435C92.0832 190.891 97.0993 185.341 102.24 182.023C107.915 178.362 105.352 172.255 99.5012 176.978C95.8764 179.907 89.9156 187.23 89.9156 187.23C89.9156 187.23 99.2815 168.418 96.4549 166.726C92.7935 164.529 86.3787 190.159 84.6065 195.212C85.0825 191.023 85.5292 180.888 82.4097 180.449C79.5611 180.054 80.2568 205.288 79.5977 209.74C79.1803 211.681 78.9899 212.669 78.6604 214.625C78.3528 211.264 76.4635 202.403 73.6369 203.428C71.235 204.292 72.7216 210.927 73.344 214.075C74.8525 221.699 76.3757 229.073 76.3903 236.893L79.854 236.71Z" fill="#C76700"/>
<path opacity="0.4" d="M82.8928 185.333C83.3176 190.81 83.6983 196.376 83.1711 201.882C84.2977 198.686 85.6007 195.554 87.0742 192.502C87.0911 192.45 87.1158 192.4 87.1474 192.355C87.5868 191.44 88.0408 190.532 88.5168 189.631C88.7072 189.272 89.1758 189.434 89.1099 189.77C92.581 185.377 96.7769 181.349 101.771 178.786C102.137 178.596 102.386 179.152 102.035 179.35C96.235 182.631 91.9219 187.251 87.6527 192.722C85.8511 196.374 84.3237 200.156 83.0832 204.035C86.2344 199.071 91.0874 195.426 96.733 193.783C97.1138 193.666 97.3262 194.252 96.9454 194.376C89.2198 196.815 83.7643 202.219 81.5674 209.3C81.5534 209.356 81.5285 209.408 81.4942 209.454C80.4177 213.98 79.5976 218.373 78.9678 222.987C81.1646 216.491 85.8439 210.758 91.2335 206.73C91.5557 206.488 91.8487 207.045 91.5265 207.287C85.3217 211.949 80.8154 218.516 78.6968 225.982C78.6968 225.982 78.6968 225.982 78.6968 226.018C78.4625 228.948 78.36 231.877 78.3893 234.806C78.3961 234.85 78.3934 234.895 78.3812 234.937C78.3691 234.98 78.3479 235.02 78.319 235.053C78.2901 235.087 78.2543 235.114 78.214 235.133C78.1736 235.151 78.1298 235.161 78.0854 235.161C78.041 235.161 77.9971 235.151 77.9568 235.133C77.9165 235.114 77.8807 235.087 77.8518 235.053C77.8229 235.02 77.8017 234.98 77.7895 234.937C77.7774 234.895 77.7747 234.85 77.7815 234.806C77.8282 224.987 79.2077 215.219 81.8823 205.771C83.3029 199.114 82.7903 192.165 82.2557 185.465C82.2191 185.003 82.8562 184.879 82.8928 185.333Z" fill="white"/>
<path d="M79.1216 236.703C78.3894 224.913 73.2121 212.984 64.8934 204.892C62.821 202.879 58.4639 198.88 61.9642 196.771C65.9991 194.362 73.754 205.632 74.8305 207.712C72.5457 198.734 65.589 192.231 58.0538 188.504C54.3265 186.659 50.7749 184.923 54.7439 182.184C58.7129 179.446 67.3099 186.087 69.2871 188.929C64.5785 182.338 58.6323 175.747 52.5397 171.837C45.81 167.502 48.8783 160.252 55.7837 165.854C60.1262 169.325 67.1854 177.988 67.1854 177.988C67.1854 177.988 56.084 155.683 59.4378 153.633C63.7437 150.996 71.3814 181.459 73.483 187.413C72.9265 182.448 72.3993 170.424 76.1339 169.904C79.5097 169.435 78.6823 199.356 79.4658 204.643C79.9638 206.95 80.1981 208.107 80.5716 210.436C80.945 206.452 83.1638 195.944 86.5397 197.159C89.3809 198.185 87.6235 206.049 86.8838 209.784C85.0897 218.82 83.281 227.571 83.2737 236.842L79.1216 236.703Z" fill="#C76700"/>
<path opacity="0.2" d="M75.5191 175.747C75.0211 182.249 74.5671 188.84 75.1895 195.372C73.8548 191.583 72.3097 187.872 70.5615 184.256C70.5439 184.193 70.5167 184.134 70.481 184.08C69.9537 182.996 69.4191 181.92 68.8626 180.858C68.6356 180.426 68.0717 180.624 68.1303 181.019C64.0149 175.783 59.0427 171.031 53.1185 167.97C52.6791 167.743 52.3862 168.409 52.8036 168.643C59.6798 172.532 64.7911 178.017 69.8658 184.505C71.9969 188.838 73.8081 193.322 75.2847 197.92C71.5629 192.026 65.8194 187.691 59.1306 185.728C58.6765 185.589 58.3983 186.284 58.8743 186.423C68.0425 189.316 74.4719 195.731 77.1155 204.13C77.1384 204.195 77.1704 204.257 77.2107 204.313C78.4848 209.681 79.4514 214.895 80.2057 220.357C77.6134 212.661 72.048 205.851 65.6625 201.084C65.2744 200.791 64.9303 201.457 65.311 201.743C72.6688 207.274 78.0133 215.062 80.5279 223.916C80.5279 223.916 80.5279 223.916 80.5279 223.953C80.8062 227.409 80.9282 230.88 80.894 234.366C80.894 234.463 80.9326 234.556 81.0013 234.625C81.0699 234.694 81.1631 234.732 81.2602 234.732C81.3573 234.732 81.4504 234.694 81.5191 234.625C81.5877 234.556 81.6263 234.463 81.6263 234.366C81.5485 222.741 79.893 211.18 76.7054 200C75.0211 192.113 75.6289 183.89 76.266 175.915C76.3173 175.373 75.563 175.219 75.5191 175.747Z" fill="white"/>
<path d="M79.1216 236.703C78.3894 224.913 73.2121 212.984 64.8934 204.892C62.821 202.879 58.4639 198.88 61.9642 196.771C65.9991 194.362 73.754 205.632 74.8305 207.712C72.5457 198.734 65.589 192.231 58.0538 188.504C54.3265 186.659 50.7749 184.923 54.7439 182.184C58.7129 179.446 67.3099 186.087 69.2871 188.929C64.5785 182.338 58.6323 175.747 52.5397 171.837C45.81 167.502 48.8783 160.252 55.7837 165.854C60.1262 169.325 67.1854 177.988 67.1854 177.988C67.1854 177.988 56.084 155.683 59.4378 153.633C63.7437 150.996 71.3814 181.459 73.483 187.413C72.9265 182.448 72.3993 170.424 76.1339 169.904C79.5097 169.435 78.6823 199.356 79.4658 204.643C79.9638 206.95 80.1981 208.107 80.5716 210.436C80.945 206.452 83.1638 195.944 86.5397 197.159C89.3809 198.185 87.6235 206.049 86.8838 209.784C85.0897 218.82 83.281 227.571 83.2737 236.842L79.1216 236.703Z" fill="#C76700"/>
<path opacity="0.2" d="M79.1216 236.703C78.3894 224.913 73.2121 212.984 64.8934 204.892C62.821 202.879 58.4639 198.88 61.9642 196.771C65.9991 194.362 73.754 205.632 74.8305 207.712C72.5457 198.734 65.589 192.231 58.0538 188.504C54.3265 186.659 50.7749 184.923 54.7439 182.184C58.7129 179.446 67.3099 186.087 69.2871 188.929C64.5785 182.338 58.6323 175.747 52.5397 171.837C45.81 167.502 48.8783 160.252 55.7837 165.854C60.1262 169.325 67.1854 177.988 67.1854 177.988C67.1854 177.988 56.084 155.683 59.4378 153.633C63.7437 150.996 71.3814 181.459 73.483 187.413C72.9265 182.448 72.3993 170.424 76.1339 169.904C79.5097 169.435 78.6823 199.356 79.4658 204.643C79.9638 206.95 80.1981 208.107 80.5716 210.436C80.945 206.452 83.1638 195.944 86.5397 197.159C89.3809 198.185 87.6235 206.049 86.8838 209.784C85.0897 218.82 83.281 227.571 83.2737 236.842L79.1216 236.703Z" fill="white"/>
<path opacity="0.5" d="M75.5191 175.747C75.0211 182.249 74.5671 188.84 75.1895 195.372C73.8548 191.583 72.3097 187.872 70.5615 184.256C70.5439 184.193 70.5167 184.134 70.481 184.08C69.9537 182.996 69.4191 181.92 68.8626 180.858C68.6356 180.426 68.0717 180.624 68.1303 181.019C64.0149 175.783 59.0427 171.031 53.1185 167.97C52.6791 167.743 52.3862 168.409 52.8036 168.643C59.6798 172.532 64.7911 178.017 69.8658 184.505C71.9969 188.838 73.8081 193.322 75.2847 197.92C71.5629 192.026 65.8194 187.691 59.1306 185.728C58.6765 185.589 58.3983 186.284 58.8743 186.423C68.0425 189.316 74.4719 195.731 77.1155 204.13C77.1384 204.195 77.1704 204.257 77.2107 204.313C78.4848 209.681 79.4514 214.895 80.2057 220.357C77.6134 212.661 72.048 205.851 65.6625 201.084C65.2744 200.791 64.9303 201.457 65.311 201.743C72.6688 207.274 78.0133 215.062 80.5279 223.916C80.5279 223.916 80.5279 223.916 80.5279 223.953C80.8062 227.409 80.9282 230.88 80.894 234.366C80.894 234.463 80.9326 234.556 81.0013 234.625C81.0699 234.694 81.1631 234.732 81.2602 234.732C81.3573 234.732 81.4504 234.694 81.5191 234.625C81.5877 234.556 81.6263 234.463 81.6263 234.366C81.5485 222.741 79.893 211.18 76.7054 200C75.0211 192.113 75.6289 183.89 76.266 175.915C76.3173 175.373 75.563 175.219 75.5191 175.747Z" fill="white"/>
<path d="M91.2266 235.098H68.3208C67.608 235.098 66.9244 235.381 66.4204 235.885C65.9164 236.389 65.6333 237.073 65.6333 237.786V238.972C65.6352 239.683 65.9192 240.365 66.423 240.868C66.9268 241.37 67.6093 241.652 68.3208 241.652L70.957 260.691H88.5904L91.2266 241.652C91.5802 241.653 91.9304 241.584 92.2573 241.45C92.5842 241.315 92.8814 241.117 93.1317 240.868C93.382 240.618 93.5806 240.321 93.7162 239.995C93.8517 239.668 93.9214 239.318 93.9214 238.965V237.778C93.9205 237.425 93.85 237.076 93.7141 236.75C93.5781 236.425 93.3793 236.129 93.1291 235.88C92.8789 235.631 92.5821 235.434 92.2556 235.3C91.9292 235.166 91.5796 235.097 91.2266 235.098Z" fill="#C76700"/>
<path opacity="0.2" d="M91.2266 235.098H68.3208C67.608 235.098 66.9244 235.381 66.4204 235.885C65.9164 236.389 65.6333 237.073 65.6333 237.786V238.972C65.6352 239.683 65.9192 240.365 66.423 240.868C66.9268 241.37 67.6093 241.652 68.3208 241.652L70.957 260.691H88.5904L91.2266 241.652C91.5802 241.653 91.9304 241.584 92.2573 241.45C92.5842 241.315 92.8814 241.117 93.1317 240.868C93.382 240.618 93.5806 240.321 93.7162 239.995C93.8517 239.668 93.9214 239.318 93.9214 238.965V237.778C93.9205 237.425 93.85 237.076 93.7141 236.75C93.5781 236.425 93.3793 236.129 93.1291 235.88C92.8789 235.631 92.5821 235.434 92.2556 235.3C91.9292 235.166 91.5796 235.097 91.2266 235.098Z" fill="black"/>
<path opacity="0.2" d="M90.6843 245.586L91.2188 241.72H68.3276L68.8622 245.586H90.6843Z" fill="black"/>
<path d="M285.26 103.324C285.26 103.324 298.375 114.601 298.375 121.287C298.375 127.431 285.347 134.014 279.621 134.863C277.833 134.966 276.041 134.966 274.253 134.863C273.648 134.863 273.058 134.676 272.564 134.327C272.069 133.979 271.695 133.485 271.493 132.915L271.427 132.725C271.238 132.207 271.202 131.647 271.323 131.109C271.444 130.572 271.716 130.08 272.108 129.693C272.734 129.038 273.543 128.587 274.429 128.397C276.494 128.075 279.401 130.982 279.401 130.982C279.401 130.982 292.121 123.33 292.121 121.931C292.121 120.532 286.307 115.948 284.579 113.415C283.121 111.306 281.627 108.208 285.26 103.324Z" fill="#B97964"/>
<path d="M285.589 102.694C286.863 103.426 289.726 105.623 294.376 111.774C294.376 111.774 294.208 115.114 288.261 118.226C288.261 118.226 281.927 113.356 281.986 108.662C281.945 107.597 282.119 106.534 282.496 105.536C282.874 104.539 283.447 103.627 284.183 102.855C284.369 102.682 284.606 102.573 284.859 102.544C285.112 102.515 285.368 102.568 285.589 102.694Z" fill="#C76700"/>
<path opacity="0.2" d="M284.249 114.191C285.421 115.684 286.76 117.038 288.239 118.226L288.708 117.97C289.316 110.794 287.053 106.253 287.053 106.253L284.812 109.314L284.249 114.191Z" fill="black"/>
<path opacity="0.2" d="M279.862 134.82C282.976 134.144 285.972 133.009 288.752 131.451C287.551 130.572 287.192 127.519 287.097 126.098C283.831 128.295 280.097 130.565 279.496 130.931L279.862 134.82Z" fill="#606060"/>
<path d="M287.397 118.03C287.397 118.03 292.685 115.167 294.354 110.868L295.343 112.538C293.888 115.472 291.434 117.791 288.423 119.077L287.397 118.03Z" fill="#C76700"/>
<path opacity="0.5" d="M287.397 118.03C287.397 118.03 292.685 115.167 294.354 110.868L295.343 112.538C293.888 115.472 291.434 117.791 288.423 119.077L287.397 118.03Z" fill="white"/>
<path d="M281.107 113.13L280.375 112.186C280.254 112.03 280.094 111.91 279.911 111.838C279.728 111.766 279.529 111.744 279.335 111.775L270.76 113.13C270.617 113.152 270.48 113.203 270.356 113.278C270.233 113.354 270.125 113.453 270.04 113.57C269.955 113.687 269.894 113.819 269.861 113.96C269.827 114.101 269.822 114.247 269.844 114.39L272.444 130.778C272.491 131.077 272.655 131.345 272.899 131.524C273.143 131.702 273.448 131.776 273.748 131.73L293.234 128.64C293.533 128.593 293.801 128.429 293.979 128.185C294.158 127.941 294.232 127.636 294.186 127.336L291.916 113.028C291.869 112.742 291.711 112.486 291.476 112.316C291.242 112.146 290.95 112.075 290.663 112.12L282.008 113.504C281.838 113.528 281.664 113.507 281.506 113.441C281.347 113.375 281.21 113.268 281.107 113.13Z" fill="#C76700"/>
<path opacity="0.4" d="M281.107 113.13L280.375 112.186C280.254 112.03 280.094 111.91 279.911 111.838C279.728 111.766 279.529 111.744 279.335 111.775L270.76 113.13C270.617 113.152 270.48 113.203 270.356 113.278C270.233 113.354 270.125 113.453 270.04 113.57C269.955 113.687 269.894 113.819 269.861 113.96C269.827 114.101 269.822 114.247 269.844 114.39L272.444 130.778C272.491 131.077 272.655 131.345 272.899 131.524C273.143 131.702 273.448 131.776 273.748 131.73L293.234 128.64C293.533 128.593 293.801 128.429 293.979 128.185C294.158 127.941 294.232 127.636 294.186 127.336L291.916 113.028C291.869 112.742 291.711 112.486 291.476 112.316C291.242 112.146 290.95 112.075 290.663 112.12L282.008 113.504C281.838 113.528 281.664 113.507 281.506 113.441C281.347 113.375 281.21 113.268 281.107 113.13Z" fill="white"/>
<path d="M290.663 112.12L282.088 113.504C281.892 113.538 281.708 113.624 281.556 113.753C281.404 113.881 281.29 114.048 281.224 114.236L280.821 115.371C280.762 115.528 280.664 115.667 280.535 115.775C280.407 115.882 280.253 115.955 280.089 115.986L271.433 117.355C271.146 117.4 270.888 117.558 270.717 117.792C270.545 118.027 270.473 118.32 270.518 118.608L272.458 130.829C272.505 131.128 272.669 131.397 272.913 131.575C273.157 131.754 273.463 131.828 273.762 131.781L293.248 128.691C293.547 128.644 293.815 128.481 293.993 128.236C294.172 127.992 294.246 127.687 294.2 127.388L291.93 113.079C291.913 112.931 291.866 112.789 291.792 112.66C291.719 112.531 291.62 112.418 291.501 112.328C291.383 112.239 291.248 112.174 291.104 112.138C290.959 112.102 290.809 112.096 290.663 112.12Z" fill="#C76700"/>
<path opacity="0.7" d="M290.663 112.12L282.088 113.504C281.892 113.538 281.708 113.624 281.556 113.753C281.404 113.881 281.29 114.048 281.224 114.236L280.821 115.371C280.762 115.528 280.664 115.667 280.535 115.775C280.407 115.882 280.253 115.955 280.089 115.986L271.433 117.355C271.146 117.4 270.888 117.558 270.717 117.792C270.545 118.027 270.473 118.32 270.518 118.608L272.458 130.829C272.505 131.128 272.669 131.397 272.913 131.575C273.157 131.754 273.463 131.828 273.762 131.781L293.248 128.691C293.547 128.644 293.815 128.481 293.993 128.236C294.172 127.992 294.246 127.687 294.2 127.388L291.93 113.079C291.913 112.931 291.866 112.789 291.792 112.66C291.719 112.531 291.62 112.418 291.501 112.328C291.383 112.239 291.248 112.174 291.104 112.138C290.959 112.102 290.809 112.096 290.663 112.12Z" fill="white"/>
<path d="M301.223 246.318L303.867 255.544L308.18 254.695L307.052 244.846L301.223 246.318Z" fill="#B97964"/>
<path d="M303.493 254.103L308.582 253.18C308.676 253.166 308.771 253.183 308.854 253.228C308.937 253.273 309.004 253.343 309.044 253.429L310.713 257.405C310.749 257.489 310.768 257.579 310.77 257.67C310.771 257.761 310.754 257.851 310.72 257.936C310.686 258.02 310.635 258.097 310.571 258.162C310.507 258.227 310.431 258.278 310.347 258.313C310.303 258.335 310.256 258.35 310.208 258.357C308.37 258.657 306.715 258.855 304.43 259.272C301.735 259.763 302.482 259.961 299.304 260.583C297.4 260.957 296.653 258.848 297.444 258.591C301.106 257.449 301.245 256.263 302.438 254.674C302.709 254.361 303.084 254.158 303.493 254.103Z" fill="#263238"/>
<path d="M263.627 244.524V256.753H268.212L270.577 244.81L263.627 244.524Z" fill="#B97964"/>
<path d="M263.547 255.969L268.709 256.152C268.804 256.157 268.895 256.193 268.967 256.256C269.038 256.318 269.087 256.403 269.105 256.496L269.888 260.729C269.914 260.908 269.871 261.091 269.77 261.241C269.669 261.391 269.515 261.498 269.339 261.542C269.291 261.549 269.241 261.549 269.193 261.542C267.333 261.446 265.678 261.285 263.334 261.205C260.596 261.11 261.277 261.461 258.062 261.388C256.121 261.344 255.865 259.132 256.671 259.052C260.449 258.715 260.881 257.587 262.383 256.298C262.715 256.046 263.131 255.928 263.547 255.969Z" fill="#263238"/>
<path d="M277.548 142.407L286.108 139.99C286.108 139.99 292.179 143.879 293.072 161.571C293.438 168.681 295.467 174.173 295.181 187.647C295.093 191.583 295.963 195.48 297.715 199.005C299.826 203.27 301.415 207.774 302.445 212.42C305.008 223.888 308.179 250.148 308.179 250.148L301.991 251.173C301.991 251.173 296.257 231.709 288.715 212.245C281.172 192.781 275.885 163.079 275.885 163.079L273.901 142.407H277.548Z" fill="#263238"/>
<path opacity="0.6" d="M281.092 163.988L279.357 164.361L277.394 166.324L276.889 168.33C277.673 172.27 278.896 178.077 280.455 184.565C283.443 168.052 281.092 163.988 281.092 163.988Z" fill="black"/>
<path d="M261.701 141.651L263.29 252.79H269.397C269.397 252.79 275.739 225.403 275.739 214.536C275.739 208.106 275.314 201.303 274.97 196.822C274.716 193.497 275.132 190.155 276.193 186.994C278.207 181.012 281.363 170.708 281.773 163.986C281.773 163.986 289.77 163.678 284.036 141.651H261.701Z" fill="#263238"/>
<path d="M266.432 85.4194L263.613 88.1509C263.933 88.4815 264.327 88.7321 264.762 88.8822C265.197 89.0324 265.661 89.0778 266.117 89.015L266.432 85.4194Z" fill="#A24E3F"/>
<path d="M281.839 85.9767C280.704 91.5494 280.375 93.9366 277.101 96.4264C272.349 98.755 265.612 97.5541 265.062 91.7544C264.565 86.5332 266.527 78.317 272.327 76.8231C273.609 76.4917 274.954 76.4939 276.235 76.8296C277.515 77.1654 278.689 77.8234 279.643 78.7411C280.598 79.6587 281.301 80.8055 281.687 82.072C282.072 83.3386 282.127 84.6828 281.846 85.9767H281.839Z" fill="#B97964"/>
<path d="M267.567 81.869C267.531 81.8622 267.496 81.8476 267.466 81.8261C267.435 81.8046 267.41 81.7768 267.392 81.7445C267.275 81.4912 267.099 81.2697 266.878 81.0989C266.658 80.9281 266.399 80.8129 266.125 80.7632C266.096 80.7605 266.068 80.752 266.042 80.7384C266.016 80.7247 265.994 80.7061 265.975 80.6836C265.957 80.6612 265.943 80.6353 265.935 80.6075C265.927 80.5796 265.924 80.5505 265.927 80.5216C265.93 80.492 265.938 80.4632 265.952 80.4371C265.967 80.4109 265.986 80.3879 266.009 80.3694C266.032 80.3509 266.059 80.3374 266.088 80.3295C266.117 80.3217 266.147 80.3198 266.176 80.3239C266.523 80.3819 266.852 80.5226 267.133 80.7342C267.415 80.9457 267.642 81.2219 267.794 81.5395C267.808 81.5659 267.817 81.5948 267.82 81.6246C267.823 81.6544 267.82 81.6844 267.811 81.713C267.802 81.7416 267.787 81.7682 267.768 81.7912C267.749 81.8142 267.726 81.8331 267.699 81.847L267.567 81.869Z" fill="#263238"/>
<path opacity="0.2" d="M268.71 94.7928C267.631 94.7826 266.574 94.4843 265.649 93.9287C266.659 96.0743 268.798 97.224 271.2 97.4803L271.119 96.3013C271.119 96.3013 271.331 94.8734 268.71 94.7928Z" fill="#606060"/>
<path d="M270.76 101.502L271.258 94.3474C271.258 94.3474 274.151 93.2856 275.886 94.3474C275.886 94.3474 276.721 99.7004 278.303 100.982L270.76 101.502Z" fill="#B97964"/>
<path d="M265.172 84.1599C265.07 84.57 265.172 84.9654 265.473 85.0313C265.773 85.0972 266.066 84.8043 266.161 84.4016C266.256 83.9988 266.161 83.5961 265.861 83.5302C265.56 83.4643 265.282 83.7425 265.172 84.1599Z" fill="#263238"/>
<path d="M266.088 83.5237C265.822 83.467 265.572 83.3505 265.358 83.183C265.144 83.0156 264.97 82.8015 264.851 82.5571C264.839 82.8868 264.939 83.2108 265.134 83.4766C265.329 83.7424 265.609 83.9345 265.927 84.0217L266.088 83.5237Z" fill="#263238"/>
<path d="M266.989 85.4351C266.526 86.5013 266.505 87.7072 266.93 88.7889C267.509 90.2169 269.024 90.0045 269.859 88.8329C270.643 87.7711 271.272 85.75 270.196 84.6881C269.959 84.4647 269.67 84.3034 269.355 84.2185C269.04 84.1337 268.71 84.128 268.392 84.2019C268.075 84.2758 267.78 84.4271 267.536 84.6423C267.291 84.8574 267.103 85.1298 266.989 85.4351Z" fill="#B97964"/>
<path d="M284.146 81.869C284.146 81.869 287.171 78.9911 284.754 76.8748C282.338 74.7585 285.091 79.1595 284.146 81.869Z" fill="#263238"/>
<path d="M271.66 77.9812C271.66 77.9812 268.453 75.301 267.362 77.3441C266.271 79.3872 269.207 77.0732 271.66 77.9812Z" fill="#263238"/>
<path d="M271.324 84.1673L266.586 82.6442L266.622 82.5417C266.679 82.3436 266.656 82.1311 266.557 81.9501C266.458 81.7692 266.292 81.6345 266.095 81.5751L265.231 81.3261C265.134 81.2914 265.031 81.2775 264.928 81.2853C264.825 81.2932 264.726 81.3226 264.635 81.3717C264.545 81.4207 264.465 81.4883 264.403 81.5701C264.34 81.6518 264.295 81.7458 264.272 81.846L263.364 84.9436C263.297 85.1883 263.323 85.4492 263.437 85.6758C263.499 85.7925 263.585 85.8954 263.688 85.9784C263.791 86.0615 263.91 86.1229 264.037 86.1592L264.44 86.2836C264.535 86.2943 264.631 86.2943 264.726 86.2836C264.945 86.283 265.159 86.2113 265.334 86.0793C265.51 85.9474 265.638 85.7622 265.7 85.5514L266.432 83.0103L271.155 84.5262L271.324 84.1673ZM264.857 81.7801C264.938 81.751 265.026 81.751 265.106 81.7801L265.971 82.0364C266.011 82.0481 266.048 82.0677 266.08 82.094C266.113 82.1203 266.14 82.1528 266.16 82.1896C266.179 82.2264 266.192 82.2668 266.196 82.3084C266.2 82.35 266.195 82.3919 266.183 82.4318V82.527L264.718 82.0584V81.9998C264.735 81.9115 264.785 81.8328 264.857 81.7801ZM265.282 85.4855C265.262 85.5601 265.226 85.6296 265.177 85.6898C265.128 85.75 265.068 85.7995 264.999 85.8352C264.93 85.8709 264.855 85.8921 264.778 85.8975C264.7 85.9028 264.623 85.8922 264.55 85.8662L264.154 85.7491C264.083 85.7283 264.017 85.6937 263.959 85.6472C263.901 85.6007 263.853 85.5432 263.818 85.4781C263.782 85.414 263.76 85.3433 263.752 85.2703C263.744 85.1973 263.752 85.1235 263.774 85.0534L264.506 82.4684L265.971 82.9444L265.282 85.4855Z" fill="#263238"/>
<path d="M268.27 103.508C268.27 103.508 269.002 100.681 273.901 99.6635C275.193 99.3176 276.563 99.4103 277.797 99.9272C279.031 100.444 280.059 101.356 280.718 102.519L268.27 103.508Z" fill="#C76700"/>
<path opacity="0.5" d="M268.27 103.508C268.27 103.508 269.002 100.681 273.901 99.6635C275.193 99.3176 276.563 99.4103 277.797 99.9272C279.031 100.444 280.059 101.356 280.718 102.519L268.27 103.508Z" fill="white"/>
<path d="M261.138 142.386C261.138 142.386 280.997 144.839 287.339 139.991C286.196 134.908 285.791 129.687 286.138 124.489C286.746 116.229 289.294 108.078 286.577 103.611C283.861 99.1444 263.767 102.476 259.805 106.541C255.843 110.605 261.138 126.488 261.138 142.386Z" fill="#C76700"/>
<path opacity="0.2" d="M264.25 110.075L262.61 114.967L258.948 119.573C259.373 122.964 259.951 126.779 260.413 130.806C262.346 128.692 263.851 126.223 264.843 123.535C268.431 113.759 265.575 108.311 265.575 108.311L264.25 110.075Z" fill="black"/>
<path d="M268.27 88.0787C268.27 88.0787 262.412 102.636 272.342 102.527C282.271 102.417 284.673 100 282.015 98.0378C279.357 96.0752 288.086 89.5872 284.812 81.4442C284.812 81.4442 283.655 74.9562 277.021 75.0294C276.009 73.6911 274.518 72.7962 272.861 72.5323C272.289 72.4624 271.708 72.5558 271.186 72.8017C270.664 73.0475 270.223 73.4358 269.912 73.9218C269.601 74.4079 269.434 74.9718 269.43 75.5487C269.426 76.1256 269.585 76.6918 269.888 77.1823L271.258 79.3791C271.258 79.3791 266.081 81.0634 268.27 88.0787Z" fill="#263238"/>
<path d="M263.32 105.779C263.32 105.779 258.443 106.856 257.462 112.985C256.48 119.114 255.895 123.757 254.108 124.379C252.321 125.002 243.856 117.972 243.856 117.972L244.134 113.856C244.163 113.404 244.057 112.954 243.829 112.562C243.6 112.171 243.26 111.857 242.853 111.66L242.215 111.345C241.82 111.153 241.378 111.079 240.942 111.131C240.506 111.183 240.094 111.359 239.755 111.638L239.272 112.04C238.955 112.302 238.714 112.644 238.574 113.03C238.433 113.416 238.399 113.833 238.473 114.237C238.803 115.885 239.484 118.536 240.67 119.363C240.67 119.363 252.548 133.02 256.085 131.6C259.622 130.179 262.302 121.589 263.752 118.023C264.902 115.211 266.366 112.077 263.32 105.779Z" fill="#B97964"/>
<path d="M263.627 104.98C262.302 104.13 256.781 105.155 255.477 117.824C255.477 117.824 259.834 121.485 263.964 120.995C263.964 120.995 269.339 108.663 263.627 104.98Z" fill="#C76700"/>
<path d="M255.199 116.608C255.199 116.608 259.468 120.27 264.814 120.072L264.199 121.5C264.199 121.5 259.666 122.496 255.001 118.029L255.199 116.608Z" fill="#C76700"/>
<path opacity="0.5" d="M255.199 116.608C255.199 116.608 259.468 120.27 264.814 120.072L264.199 121.5C264.199 121.5 259.666 122.496 255.001 118.029L255.199 116.608Z" fill="white"/>
<path d="M300.931 249.737L301.509 252.014L308.759 250.63L308.51 248.375L300.931 249.737Z" fill="#C76700"/>
<path d="M262.537 251.334L262.625 253.597H270.123L270.577 251.334H262.537Z" fill="#C76700"/>
</svg>
